<svg width="375" height="812" viewBox="0 0 375 812" fill="none" xmlns="http://www.w3.org/2000/svg">
    <path fill="#FCFCFC" d="M-29 0h428v812H-29z"/>
    <g opacity=".16" stroke-miterlimit="10">
        <g opacity=".9" stroke="#6CAF61">
            <path d="m179.791 317.096-10.334-20.832-14.948-30.132h-.061c-2.639-5.543-8.239-9.421-14.766-9.421-6.527 0-11.926 3.756-14.626 9.177l-.06-.04-24.698 49.786.081.041c-1.25 2.335-2.015 4.954-2.015 7.777 0 8.974 7.111 16.243 15.955 16.487v.041h50.262c9.066 0 16.419-7.411 16.419-16.549 0-2.253-.383-4.406-1.169-6.355l-.04.02z"/>
            <path d="m175.823 316.223-9.308-18.781-13.477-27.148h-.04c-2.377-4.995-7.413-8.487-13.296-8.487-5.882 0-10.757 3.391-13.175 8.284l-.06-.04-22.261 44.873h.061c-1.128 2.132-1.813 4.487-1.813 7.046 0 8.081 6.406 14.639 14.363 14.862v.041h45.287c8.158 0 14.786-6.68 14.786-14.903 0-2.031-.342-3.98-1.067-5.726v-.021z"/>
            <path d="m171.834 315.35-8.3-16.71-11.986-24.183h-.04c-2.116-4.447-6.608-7.553-11.846-7.553s-9.569 3.025-11.724 7.37h-.041l-19.823 39.919h.061c-.987 1.888-1.612 4-1.612 6.274 0 7.208 5.701 13.036 12.792 13.239v.04h40.311c7.272 0 13.175-5.949 13.175-13.279 0-1.807-.302-3.533-.947-5.096l-.02-.021z"/>
            <path d="m167.865 314.498-7.272-14.66-10.516-21.198h-.04c-1.854-3.899-5.782-6.62-10.375-6.62s-8.401 2.64-10.294 6.457h-.041l-17.365 34.985h.061c-.867 1.665-1.41 3.513-1.41 5.503 0 6.314 4.996 11.411 11.22 11.594v.04h35.335c6.366 0 11.543-5.198 11.543-11.634 0-1.584-.261-3.107-.826-4.467h-.02z"/>
            <path d="m163.897 313.624-6.245-12.588-9.025-18.214h-.04c-1.592-3.35-4.976-5.685-8.925-5.685-3.948 0-7.212 2.274-8.844 5.543h-.04l-14.927 30.071h.04c-.746 1.422-1.209 3.005-1.209 4.731 0 5.422 4.291 9.807 9.63 9.97l.282.02h30.076c5.48 0 9.912-4.467 9.912-9.99 0-1.36-.222-2.66-.705-3.837l.02-.021z"/>
            <path d="m159.928 312.751-5.217-10.538-7.555-15.228h-.02c-1.33-2.802-4.17-4.751-7.454-4.751-3.283 0-6.023 1.908-7.393 4.649h-.04l-12.49 25.137h.04c-.625 1.198-1.028 2.518-1.028 3.96 0 4.528 3.586 8.203 8.059 8.325l.241.02h25.162c4.573 0 8.3-3.736 8.3-8.365 0-1.138-.182-2.234-.605-3.209z"/>
            <path d="m155.959 311.878-4.21-8.466-6.084-12.244h-.02c-1.068-2.254-3.344-3.817-6.003-3.817-2.66 0-4.855 1.522-5.943 3.736h-.02l-10.033 20.223h.041c-.504.954-.826 2.03-.826 3.168a6.676 6.676 0 0 0 6.486 6.7h20.407c3.687 0 6.669-3.005 6.669-6.721 0-.914-.162-1.787-.484-2.579h.02zM127.033 217.706c0-2.701-.625-5.239-1.773-7.493L95.385 150.01c-2.498-5.908-8.38-10.01-15.17-10.01-6.789 0-12.43 4.041-14.988 9.848l-82.676 166.497h.08c-1.027 2.193-1.631 4.569-1.631 7.127 0 9.036 7.212 16.366 16.136 16.508l.282.02h60.778c6.528 0 12.148-3.878 14.807-9.421l52.398-105.645c1.068-2.193 1.632-4.65 1.632-7.249v.021z"/>
            <path d="M93.713 155.797a15.544 15.544 0 0 0-14.323-9.462c-6.407 0-11.725 3.817-14.142 9.3l-78.104 157.238h.081c-.967 2.071-1.551 4.325-1.551 6.721 0 8.548 6.809 15.452 15.25 15.594l.262.02h57.393c6.165 0 11.483-3.655 13.981-8.893l49.497-99.756c1.007-2.072 1.551-4.386 1.551-6.863 0-2.478-.604-4.955-1.672-7.087l-28.203-56.853-.02.041z"/>
            <path d="M92.02 161.584a14.634 14.634 0 0 0-13.477-8.894c-6.023 0-11.04 3.594-13.316 8.752l-73.49 147.979h.06c-.906 1.95-1.45 4.061-1.45 6.335 0 8.041 6.406 14.538 14.344 14.681l.241.02h54.03c5.802 0 10.798-3.452 13.155-8.366l46.576-93.868c.946-1.949 1.45-4.142 1.45-6.457 0-2.314-.564-4.669-1.571-6.659L92.02 161.604v-.02z"/>
            <path d="M90.328 167.391c-2.095-4.914-6.99-8.345-12.63-8.345-5.642 0-10.356 3.371-12.47 8.203L-3.67 305.97h.06c-.845 1.827-1.369 3.817-1.369 5.929 0 7.533 6.003 13.624 13.437 13.766l.221.021H59.324c5.44 0 10.134-3.229 12.33-7.858l43.654-88a13.807 13.807 0 0 0 1.37-6.051c0-2.173-.524-4.366-1.47-6.254l-24.88-50.152v.02z"/>
            <path d="M88.636 173.178a12.799 12.799 0 0 0-11.785-7.777c-5.278 0-9.65 3.147-11.644 7.655L.924 302.498h.06c-.785 1.705-1.269 3.553-1.269 5.543 0 7.025 5.6 12.731 12.55 12.832l.222.02h47.26c5.078 0 9.449-3.005 11.504-7.329l40.734-82.112c.825-1.706 1.269-3.614 1.269-5.645 0-2.03-.484-4.081-1.37-5.827l-23.228-46.802h-.02z"/>
            <path d="M86.944 178.985a11.886 11.886 0 0 0-10.939-7.229c-4.895 0-8.965 2.924-10.818 7.107L5.497 299.046h.06c-.745 1.583-1.188 3.309-1.188 5.137 0 6.517 5.197 11.817 11.644 11.918H60.09c4.714 0 8.764-2.802 10.677-6.802l37.813-76.243a11.963 11.963 0 0 0 1.189-5.239c0-1.888-.464-3.777-1.29-5.421l-21.555-43.452.02.041z"/>
            <path d="M85.252 184.772a10.954 10.954 0 0 0-10.093-6.66c-4.513 0-8.28 2.7-9.972 6.558L10.11 295.574h.06c-.685 1.462-1.087 3.045-1.087 4.751 0 6.03 4.794 10.903 10.757 11.005h40.653c4.352 0 8.099-2.579 9.851-6.274l34.912-70.355a11.107 11.107 0 0 0 1.088-4.833c0-1.726-.423-3.492-1.189-4.995l-19.883-40.101h-.02z"/>
            <path d="M83.58 190.579a10.04 10.04 0 0 0-9.247-6.112c-4.13 0-7.575 2.478-9.146 6.011L14.703 292.122h.04c-.624 1.34-1.007 2.782-1.007 4.345 0 5.523 4.392 9.99 9.851 10.071H60.835c3.99 0 7.414-2.355 9.046-5.746l31.991-64.467a10.194 10.194 0 0 0 1.007-4.426c0-1.584-.383-3.208-1.088-4.569L83.56 190.579h.02z"/>
            <path d="M81.888 196.365c-1.39-3.269-4.654-5.563-8.401-5.563s-6.89 2.254-8.3 5.462l-45.87 92.365h.04c-.564 1.219-.907 2.539-.907 3.96 0 5.015 3.989 9.076 8.945 9.157h33.864c3.606 0 6.748-2.152 8.22-5.218l29.069-58.599a9.26 9.26 0 0 0 .906-4.02 9.24 9.24 0 0 0-.987-4.163l-16.56-33.401-.02.02z"/>
            <path d="M80.195 202.172a8.233 8.233 0 0 0-7.575-4.995c-3.384 0-6.204 2.031-7.474 4.914L23.87 285.198h.04c-.503 1.096-.826 2.274-.826 3.553 0 4.508 3.586 8.162 8.058 8.244H61.621c3.244 0 6.064-1.929 7.393-4.711l26.149-52.711a8.34 8.34 0 0 0 .826-3.614 8.427 8.427 0 0 0-.886-3.736l-14.908-30.051z"/>
            <path d="M78.503 207.98a7.297 7.297 0 0 0-6.729-4.447c-3.022 0-5.5 1.787-6.648 4.365l-36.664 73.828h.04c-.443.975-.725 2.03-.725 3.167 0 4 3.203 7.249 7.152 7.33h27.055c2.88 0 5.399-1.725 6.567-4.182l23.227-46.843a7.483 7.483 0 0 0 .726-3.208 7.562 7.562 0 0 0-.786-3.33l-13.235-26.701.02.021z"/>
            <path d="M89.08 240.021a6.355 6.355 0 0 0-.686-2.904l-11.583-23.35a6.365 6.365 0 0 0-5.883-3.878c-2.639 0-4.814 1.563-5.802 3.817l-32.07 64.548h.04c-.403.853-.645 1.767-.645 2.762a6.38 6.38 0 0 0 6.265 6.395H62.366c2.519 0 4.715-1.502 5.742-3.654l20.306-40.955a6.588 6.588 0 0 0 .645-2.822l.02.041z"/>
        </g>
        <g opacity=".9" stroke="#E27639">
            <path d="M118.569 398.283 83.07 484.945a13.407 13.407 0 0 0 0 10.11l35.499 86.662a13.319 13.319 0 0 0 12.34 8.283h36.756c7.368 0 13.335-5.968 13.335-13.337V403.337c0-7.369-5.967-13.337-13.335-13.337h-36.756a13.319 13.319 0 0 0-12.34 8.283z"/>
            <path d="M178.179 408.25c0-6.943-5.622-12.586-12.584-12.586h-34.666a12.545 12.545 0 0 0-11.63 7.816L85.81 485.25a12.53 12.53 0 0 0 0 9.541l33.489 81.77a12.566 12.566 0 0 0 11.63 7.816h34.666c6.941 0 12.584-5.623 12.584-12.586V408.25z"/>
            <path d="M175.378 413.163c0-6.537-5.298-11.815-11.813-11.815h-32.596a11.837 11.837 0 0 0-10.939 7.349l-31.48 76.858a11.838 11.838 0 0 0 0 8.972l31.48 76.858a11.837 11.837 0 0 0 10.939 7.349h32.596c6.536 0 11.813-5.299 11.813-11.815V413.163z"/>
            <path d="M173.109 418.064c0-6.111-4.953-11.064-11.062-11.064h-30.505c-4.486 0-8.545 2.72-10.25 6.882l-29.47 71.945a11.1 11.1 0 0 0 0 8.384l29.47 71.944a11.068 11.068 0 0 0 10.25 6.882h30.505c6.109 0 11.062-4.953 11.062-11.063v-143.91z"/>
            <path d="M169.776 422.968a10.3 10.3 0 0 0-10.311-10.313H131.03a10.326 10.326 0 0 0-9.539 6.395L94.03 486.102a10.225 10.225 0 0 0 0 7.816l27.461 67.052a10.294 10.294 0 0 0 9.539 6.395h28.435a10.3 10.3 0 0 0 10.311-10.313V422.968z"/>
            <path d="M166.975 427.881c0-5.279-4.282-9.562-9.559-9.562h-26.345c-3.876 0-7.367 2.355-8.849 5.928L96.77 486.386a9.536 9.536 0 0 0 0 7.248l25.452 62.139c1.461 3.594 4.973 5.928 8.849 5.928h26.345c5.277 0 9.559-4.283 9.559-9.561V427.881z"/>
            <path d="M164.174 432.773a8.8 8.8 0 0 0-8.808-8.81h-24.275c-3.572 0-6.799 2.151-8.139 5.46L99.51 486.65a8.847 8.847 0 0 0 0 6.679l23.442 57.227a8.792 8.792 0 0 0 8.139 5.461h24.275a8.8 8.8 0 0 0 8.808-8.81V432.773z"/>
            <path d="M161.374 437.686c0-4.446-3.613-8.059-8.058-8.059h-22.184a8.042 8.042 0 0 0-7.448 4.993l-21.433 52.315a8.153 8.153 0 0 0 0 6.11l21.433 52.314a8.042 8.042 0 0 0 7.448 4.994h22.184c4.445 0 8.058-3.613 8.058-8.059V437.686z"/>
            <path d="M158.573 442.599c0-4.02-3.268-7.288-7.287-7.288h-20.113a7.314 7.314 0 0 0-6.759 4.527L104.99 487.26a7.233 7.233 0 0 0 0 5.521l19.424 47.422a7.293 7.293 0 0 0 6.759 4.527h20.113c4.019 0 7.287-3.268 7.287-7.288v-94.843z"/>
            <path d="M155.792 447.511a6.532 6.532 0 0 0-6.536-6.536h-18.023a6.518 6.518 0 0 0-6.048 4.06l-17.414 42.509a6.534 6.534 0 0 0 0 4.953l17.414 42.509a6.538 6.538 0 0 0 6.048 4.06h18.023a6.532 6.532 0 0 0 6.536-6.536v-85.019z"/>
            <path d="M152.991 452.403a5.795 5.795 0 0 0-5.784-5.785h-15.953a5.79 5.79 0 0 0-5.358 3.593l-15.405 37.596a5.846 5.846 0 0 0 0 4.385l15.405 37.596a5.789 5.789 0 0 0 5.358 3.594h15.953c3.186 0 5.784-2.599 5.784-5.786v-75.193z"/>
            <path d="m126.646 455.408-13.395 32.684a4.968 4.968 0 0 0 0 3.816l13.395 32.684a5.035 5.035 0 0 0 4.648 3.126h13.862a5.033 5.033 0 0 0 5.034-5.034v-65.368a5.033 5.033 0 0 0-5.034-5.034h-13.862a5.015 5.015 0 0 0-4.648 3.126zM43.431 398.283l35.499 86.662a13.408 13.408 0 0 1 0 10.11L43.43 581.717A13.32 13.32 0 0 1 31.091 590H-5.665C-13.033 590-19 584.032-19 576.663V403.337C-18.98 395.968-13.013 390-5.665 390H31.09a13.32 13.32 0 0 1 12.34 8.283z"/>
            <path d="m76.25 494.771-33.489 81.77a12.565 12.565 0 0 1-11.63 7.816H-3.554c-6.941 0-12.583-5.624-12.583-12.587V408.25c0-6.943 5.622-12.586 12.583-12.586h34.687c5.114 0 9.701 3.086 11.63 7.816l33.488 81.77a12.528 12.528 0 0 1 0 9.541v-.02z"/>
            <path d="m73.572 494.487-31.48 76.857a11.838 11.838 0 0 1-10.94 7.349H-1.444c-6.535 0-11.812-5.298-11.812-11.815V413.163c0-6.537 5.297-11.815 11.812-11.815h32.596c4.79 0 9.113 2.903 10.94 7.349l31.48 76.858a11.838 11.838 0 0 1 0 8.972v-.04z"/>
            <path d="m70.892 494.203-29.47 71.944a11.068 11.068 0 0 1-10.25 6.882H.688c-6.109 0-11.061-4.953-11.061-11.064V418.056c0-6.111 4.952-11.064 11.061-11.064h30.506c4.485 0 8.545 2.72 10.25 6.882l29.47 71.944a11.103 11.103 0 0 1 0 8.385h-.02z"/>
            <path d="m68.213 493.918-27.46 67.052a10.294 10.294 0 0 1-9.54 6.395H2.798a10.3 10.3 0 0 1-10.31-10.313V422.968a10.3 10.3 0 0 1 10.31-10.313h28.435c4.181 0 7.956 2.538 9.54 6.395l27.46 67.052a10.224 10.224 0 0 1 0 7.816h-.02z"/>
            <path d="m65.534 493.634-25.451 62.139c-1.462 3.594-4.973 5.928-8.85 5.928H4.91c-5.277 0-9.56-4.283-9.56-9.561V427.881c0-5.279 4.283-9.562 9.56-9.562h26.345c3.876 0 7.367 2.355 8.849 5.928l25.452 62.139a9.536 9.536 0 0 1 0 7.248h-.02z"/>
            <path d="m62.855 493.35-23.442 57.227a8.792 8.792 0 0 1-8.14 5.46H7a8.801 8.801 0 0 1-8.81-8.81V432.773a8.801 8.801 0 0 1 8.81-8.81h24.274c3.572 0 6.8 2.151 8.139 5.46l23.442 57.227a8.846 8.846 0 0 1 0 6.679v.021z"/>
            <path d="M60.196 493.065 38.763 545.38a8.044 8.044 0 0 1-7.449 4.994H9.13c-4.445 0-8.057-3.614-8.057-8.06V437.686c0-4.446 3.613-8.059 8.057-8.059h22.184a8.043 8.043 0 0 1 7.449 4.993l21.433 52.315a8.158 8.158 0 0 1 0 6.11v.02z"/>
            <path d="m57.517 492.781-19.423 47.422a7.293 7.293 0 0 1-6.759 4.527H11.221c-4.018 0-7.286-3.268-7.286-7.288v-94.843c0-4.02 3.268-7.288 7.286-7.288h20.114a7.314 7.314 0 0 1 6.759 4.527l19.423 47.422a7.227 7.227 0 0 1 0 5.521z"/>
            <path d="m54.838 492.497-17.414 42.509a6.538 6.538 0 0 1-6.049 4.06H13.352a6.531 6.531 0 0 1-6.535-6.536v-85.019a6.531 6.531 0 0 1 6.535-6.536h18.023a6.517 6.517 0 0 1 6.049 4.06l17.414 42.509c.65 1.583.65 3.37 0 4.953z"/>
            <path d="m52.16 492.212-15.406 37.597a5.79 5.79 0 0 1-5.358 3.593H15.443a5.796 5.796 0 0 1-5.784-5.786v-75.213a5.795 5.795 0 0 1 5.784-5.785h15.953a5.79 5.79 0 0 1 5.358 3.593l15.405 37.596a5.852 5.852 0 0 1 0 4.385v.02z"/>
            <path d="m36.084 455.408 13.396 32.684a4.973 4.973 0 0 1 0 3.816l-13.396 32.684a5.035 5.035 0 0 1-4.648 3.126H17.574a5.033 5.033 0 0 1-5.034-5.034v-65.368a5.033 5.033 0 0 1 5.034-5.034h13.862a5.014 5.014 0 0 1 4.648 3.126z"/>
        </g>
        <g opacity=".9" stroke="#74318E">
            <path d="M167.664 839.98h-27.667c-3.39 0-6.658-1.299-9.114-3.613l-27.423-25.736c-8.505-7.997-22.45-1.948-22.45 9.722v6.292c0 7.368-5.968 13.335-13.336 13.335H-5.664c-7.368 0-13.336-5.967-13.336-13.335v-173.31C-19 645.967-13.032 640-5.664 640H61.3c4.69 0 9.033 2.456 11.428 6.475l104.131 160.32a28.944 28.944 0 0 1 4.12 14.898v4.972c0 7.368-5.967 13.335-13.336 13.335l.021-.02z"/>
            <path d="M-.55 834.094c-6.92 0-12.543-5.623-12.543-12.544V658.47c0-6.922 5.622-12.544 12.544-12.544h63.006c4.405 0 8.485 2.314 10.758 6.089l98.001 150.843a27.26 27.26 0 0 1 3.877 14.004v4.668c0 6.921-5.623 12.543-12.545 12.543h-26.022a12.613 12.613 0 0 1-8.586-3.389l-25.8-24.214c-8.017-7.509-21.13-1.826-21.13 9.154v5.906c0 6.921-5.623 12.543-12.545 12.543H-.529l-.02.021z"/>
            <path d="M4.567 828.188c-6.496 0-11.753-5.257-11.753-11.752V663.585c0-6.495 5.257-11.752 11.753-11.752h59.048a11.78 11.78 0 0 1 10.088 5.703l91.85 141.385a25.538 25.538 0 0 1 3.634 13.131v4.384c0 6.495-5.258 11.752-11.753 11.752h-24.399a11.716 11.716 0 0 1-8.038-3.187l-24.175-22.691c-7.51-7.043-19.811-1.725-19.811 8.565v5.541c0 6.495-5.258 11.752-11.753 11.752H4.588l-.021.02z"/>
            <path d="M9.681 822.281c-6.069 0-10.981-4.912-10.981-10.98V668.679A10.976 10.976 0 0 1 9.68 657.698h55.11c3.857 0 7.43 2.03 9.419 5.338l85.7 131.926a23.88 23.88 0 0 1 3.389 12.259v4.08c0 6.068-4.912 10.98-10.981 10.98h-22.754a10.983 10.983 0 0 1-7.511-2.963l-22.572-21.169c-7.003-6.576-18.471-1.604-18.471 7.997v5.175c0 6.069-4.912 10.98-10.982 10.98H9.681v-.02z"/>
            <path d="M14.796 816.375c-5.622 0-10.19-4.567-10.19-10.189V673.793c0-5.622 4.568-10.189 10.19-10.189h51.152a10.18 10.18 0 0 1 8.729 4.953l79.549 122.468a21.998 21.998 0 0 1 3.146 11.366v3.795c0 5.622-4.567 10.189-10.19 10.189h-21.13c-2.598 0-5.075-.995-6.963-2.76l-20.947-19.647c-6.496-6.109-17.152-1.482-17.152 7.428v4.81c0 5.623-4.568 10.189-10.19 10.189H14.776l.02-.02z"/>
            <path d="M19.912 810.469a9.39 9.39 0 0 1-9.398-9.397V678.908a9.39 9.39 0 0 1 9.398-9.397h47.194a9.376 9.376 0 0 1 8.058 4.567l73.399 113.01a20.329 20.329 0 0 1 2.903 10.493v3.491a9.39 9.39 0 0 1-9.399 9.397h-19.506a9.445 9.445 0 0 1-6.435-2.537l-19.324-18.125c-6.008-5.622-15.833-1.38-15.833 6.86v4.425a9.39 9.39 0 0 1-9.398 9.397h-51.68l.02-.02z"/>
            <path d="M25.027 804.583c-4.75 0-8.606-3.857-8.606-8.606V684.043c0-4.749 3.856-8.606 8.606-8.606h43.256a8.618 8.618 0 0 1 7.389 4.181L142.92 783.15a18.658 18.658 0 0 1 2.659 9.62v3.207c0 4.749-3.857 8.606-8.606 8.606H119.11a8.55 8.55 0 0 1-5.886-2.334l-17.72-16.623c-5.502-5.155-14.494-1.258-14.494 6.272v4.059c0 4.749-3.857 8.605-8.606 8.605H25.048l-.02.021z"/>
            <path d="M30.143 798.677c-4.324 0-7.815-3.511-7.815-7.814V689.158c0-4.323 3.512-7.814 7.815-7.814H69.44a7.861 7.861 0 0 1 6.72 3.795l61.118 94.074a16.977 16.977 0 0 1 2.415 8.727v2.902c0 4.324-3.512 7.815-7.815 7.815h-16.239a7.851 7.851 0 0 1-5.358-2.111l-16.097-15.101c-4.993-4.688-13.174-1.136-13.174 5.704v3.693c0 4.324-3.511 7.815-7.814 7.815H30.163l-.02.02z"/>
            <path d="M35.257 792.771c-3.877 0-7.043-3.146-7.043-7.043v-91.476a7.047 7.047 0 0 1 7.043-7.043h35.34a7.018 7.018 0 0 1 6.028 3.41l54.968 84.615a15.314 15.314 0 0 1 2.172 7.855v2.618a7.047 7.047 0 0 1-7.043 7.043h-14.595a7.053 7.053 0 0 1-4.811-1.908l-14.472-13.578c-4.486-4.222-11.855-1.035-11.855 5.135v3.308a7.047 7.047 0 0 1-7.043 7.043h-38.71l.021.021z"/>
            <path d="M40.373 786.864a6.254 6.254 0 0 1-6.252-6.251v-81.246a6.255 6.255 0 0 1 6.252-6.252h31.38a6.26 6.26 0 0 1 5.36 3.045l48.817 75.157a13.642 13.642 0 0 1 1.928 6.982v2.334a6.254 6.254 0 0 1-6.251 6.251h-12.971a6.322 6.322 0 0 1-4.283-1.684l-12.849-12.056c-3.999-3.735-10.535-.914-10.535 4.566v2.943a6.254 6.254 0 0 1-6.252 6.252H40.352l.02-.041z"/>
            <path d="M45.488 780.978a5.448 5.448 0 0 1-5.46-5.459v-71.017a5.449 5.449 0 0 1 5.46-5.46h27.444a5.477 5.477 0 0 1 4.689 2.659l42.667 65.679a11.983 11.983 0 0 1 1.685 6.109v2.03a5.448 5.448 0 0 1-5.461 5.459h-11.326a5.46 5.46 0 0 1-3.735-1.481l-11.245-10.534c-3.492-3.268-9.196-.792-9.196 3.978v2.578a5.448 5.448 0 0 1-5.46 5.459H45.49z"/>
            <path d="M111.397 775.072h-9.703a4.688 4.688 0 0 1-3.207-1.259l-9.622-9.031c-2.983-2.801-7.875-.691-7.875 3.409v2.213a4.67 4.67 0 0 1-4.669 4.668H50.603a4.67 4.67 0 0 1-4.669-4.668v-60.788a4.67 4.67 0 0 1 4.669-4.668h23.485c1.644 0 3.167.852 4.02 2.273l36.516 56.221a10.102 10.102 0 0 1 1.441 5.216v1.746a4.67 4.67 0 0 1-4.668 4.668zM147.224 707.546c18.654 0 33.776-15.121 33.776-33.773S165.878 640 147.224 640c-18.655 0-33.777 15.121-33.777 33.773s15.122 33.773 33.777 33.773z"/>
            <path d="M147.223 704.542c16.995 0 30.773-13.776 30.773-30.769s-13.778-30.769-30.773-30.769c-16.995 0-30.772 13.776-30.772 30.769s13.777 30.769 30.772 30.769z"/>
            <path d="M147.223 701.538c15.336 0 27.768-12.431 27.768-27.765 0-15.334-12.432-27.765-27.768-27.765s-27.768 12.431-27.768 27.765c0 15.334 12.432 27.765 27.768 27.765z"/>
            <path d="M147.223 698.555c13.688 0 24.785-11.096 24.785-24.782 0-13.687-11.097-24.782-24.785-24.782s-24.784 11.095-24.784 24.782c0 13.686 11.096 24.782 24.784 24.782z"/>
            <path d="M147.223 695.551c12.029 0 21.78-9.751 21.78-21.778 0-12.028-9.751-21.778-21.78-21.778-12.029 0-21.78 9.75-21.78 21.778 0 12.027 9.751 21.778 21.78 21.778z"/>
            <path d="M147.223 692.548c10.37 0 18.776-8.406 18.776-18.775 0-10.368-8.406-18.774-18.776-18.774-10.369 0-18.776 8.406-18.776 18.774 0 10.369 8.407 18.775 18.776 18.775z"/>
            <path d="M147.224 689.544c8.71 0 15.772-7.061 15.772-15.771 0-8.709-7.062-15.77-15.772-15.77-8.711 0-15.772 7.061-15.772 15.77 0 8.71 7.061 15.771 15.772 15.771z"/>
        </g>
    </g>
    <g opacity=".16" stroke-miterlimit="10">
        <path d="m336.569 34.283-35.499 86.662a13.41 13.41 0 0 0 0 10.11l35.499 86.662a13.319 13.319 0 0 0 12.34 8.283h36.756c7.368 0 13.335-5.968 13.335-13.337V39.337C399 31.968 393.033 26 385.665 26h-36.756a13.32 13.32 0 0 0-12.34 8.283z" stroke="#E27639"/>
        <path d="M396.179 44.25c0-6.943-5.622-12.586-12.584-12.586h-34.666a12.544 12.544 0 0 0-11.63 7.816l-33.489 81.77a12.532 12.532 0 0 0 0 9.541l33.489 81.77a12.566 12.566 0 0 0 11.63 7.816h34.666c6.941 0 12.584-5.623 12.584-12.586V44.251z" stroke="#E27639"/>
        <path d="M393.378 49.163c0-6.537-5.298-11.815-11.813-11.815h-32.596a11.837 11.837 0 0 0-10.939 7.349l-31.48 76.857a11.842 11.842 0 0 0 0 8.973l31.48 76.858a11.836 11.836 0 0 0 10.939 7.348h32.596c6.536 0 11.813-5.298 11.813-11.814V49.163z" stroke="#E27639"/>
        <path d="M391.109 54.064c0-6.11-4.953-11.064-11.062-11.064h-30.505a11.09 11.09 0 0 0-10.25 6.882l-29.47 71.945a11.1 11.1 0 0 0 0 8.384l29.47 71.944a11.068 11.068 0 0 0 10.25 6.882h30.505c6.109 0 11.062-4.953 11.062-11.063V54.064z" stroke="#E27639"/>
        <path d="M387.776 58.968a10.3 10.3 0 0 0-10.311-10.313H349.03a10.325 10.325 0 0 0-9.539 6.395l-27.461 67.052a10.225 10.225 0 0 0 0 7.816l27.461 67.052a10.294 10.294 0 0 0 9.539 6.395h28.435a10.3 10.3 0 0 0 10.311-10.313V58.968z" stroke="#E27639"/>
        <path d="M384.975 63.88c0-5.278-4.282-9.561-9.559-9.561h-26.345c-3.876 0-7.367 2.355-8.849 5.928l-25.452 62.139a9.536 9.536 0 0 0 0 7.248l25.452 62.139c1.461 3.594 4.973 5.928 8.849 5.928h26.345c5.277 0 9.559-4.283 9.559-9.561V63.88z" stroke="#E27639"/>
        <path d="M382.174 68.773a8.801 8.801 0 0 0-8.808-8.81h-24.275c-3.572 0-6.799 2.151-8.139 5.46L317.51 122.65a8.844 8.844 0 0 0 0 6.679l23.442 57.227a8.792 8.792 0 0 0 8.139 5.461h24.275a8.8 8.8 0 0 0 8.808-8.81V68.773z" stroke="#E27639"/>
        <path d="M379.374 73.686c0-4.446-3.613-8.06-8.058-8.06h-22.184a8.042 8.042 0 0 0-7.448 4.994l-21.433 52.315a8.153 8.153 0 0 0 0 6.11l21.433 52.314a8.042 8.042 0 0 0 7.448 4.994h22.184c4.445 0 8.058-3.613 8.058-8.059V73.686z" stroke="#E27639"/>
        <path d="M376.573 78.599c0-4.02-3.268-7.288-7.287-7.288h-20.113a7.315 7.315 0 0 0-6.759 4.527L322.99 123.26a7.233 7.233 0 0 0 0 5.521l19.424 47.422a7.293 7.293 0 0 0 6.759 4.527h20.113c4.019 0 7.287-3.268 7.287-7.288V78.598z" stroke="#E27639"/>
        <path d="M373.792 83.511a6.532 6.532 0 0 0-6.536-6.536h-18.023a6.519 6.519 0 0 0-6.048 4.06l-17.414 42.509a6.534 6.534 0 0 0 0 4.953l17.414 42.509a6.538 6.538 0 0 0 6.048 4.06h18.023a6.532 6.532 0 0 0 6.536-6.536V83.511z" stroke="#E27639"/>
        <path d="M370.991 88.403a5.795 5.795 0 0 0-5.784-5.785h-15.953a5.79 5.79 0 0 0-5.358 3.593l-15.405 37.596a5.846 5.846 0 0 0 0 4.385l15.405 37.597a5.79 5.79 0 0 0 5.358 3.593h15.953c3.186 0 5.784-2.599 5.784-5.786V88.403z" stroke="#E27639"/>
        <path d="m344.646 91.408-13.395 32.684a4.968 4.968 0 0 0 0 3.816l13.395 32.684a5.035 5.035 0 0 0 4.648 3.126h13.862a5.033 5.033 0 0 0 5.034-5.034V93.316a5.033 5.033 0 0 0-5.034-5.034h-13.862a5.015 5.015 0 0 0-4.648 3.126zM261.431 34.283l35.499 86.662a13.41 13.41 0 0 1 0 10.11l-35.499 86.662a13.319 13.319 0 0 1-12.34 8.283h-36.756c-7.368 0-13.335-5.968-13.335-13.337V39.337C199.02 31.968 204.987 26 212.335 26h36.756a13.32 13.32 0 0 1 12.34 8.283z" stroke="#E27639"/>
        <path d="m294.25 130.771-33.488 81.77a12.567 12.567 0 0 1-11.63 7.816h-34.687c-6.941 0-12.583-5.624-12.583-12.587V44.25c0-6.943 5.622-12.586 12.583-12.586h34.687c5.114 0 9.701 3.086 11.63 7.816l33.488 81.77a12.523 12.523 0 0 1 0 9.541v-.02z" stroke="#E27639"/>
        <path d="m291.572 130.487-31.48 76.857a11.838 11.838 0 0 1-10.94 7.349h-32.596c-6.535 0-11.812-5.299-11.812-11.815V49.163c0-6.537 5.297-11.815 11.812-11.815h32.596c4.79 0 9.113 2.903 10.94 7.349l31.48 76.857a11.842 11.842 0 0 1 0 8.973v-.04z" stroke="#E27639"/>
        <path d="m288.892 130.202-29.47 71.945a11.068 11.068 0 0 1-10.249 6.882h-30.486c-6.109 0-11.061-4.953-11.061-11.064V54.055c0-6.11 4.952-11.063 11.061-11.063h30.506c4.485 0 8.545 2.72 10.249 6.882l29.471 71.944a11.1 11.1 0 0 1 0 8.384h-.021z" stroke="#E27639"/>
        <path d="m286.213 129.918-27.461 67.052a10.294 10.294 0 0 1-9.539 6.395h-28.415a10.3 10.3 0 0 1-10.31-10.313V58.968a10.3 10.3 0 0 1 10.31-10.313h28.435c4.181 0 7.956 2.538 9.54 6.395l27.46 67.052a10.216 10.216 0 0 1 0 7.816h-.02z" stroke="#E27639"/>
        <path d="m283.534 129.634-25.451 62.139c-1.462 3.594-4.973 5.928-8.849 5.928h-26.325c-5.277 0-9.559-4.283-9.559-9.561V63.88c0-5.278 4.282-9.561 9.559-9.561h26.345c3.876 0 7.367 2.355 8.849 5.928l25.452 62.139a9.536 9.536 0 0 1 0 7.248h-.021z" stroke="#E27639"/>
        <path d="m280.855 129.35-23.442 57.226a8.792 8.792 0 0 1-8.139 5.461H225a8.801 8.801 0 0 1-8.809-8.81V68.773a8.801 8.801 0 0 1 8.809-8.81h24.274c3.572 0 6.799 2.151 8.139 5.46l23.442 57.227a8.844 8.844 0 0 1 0 6.679v.021z" stroke="#E27639"/>
        <path d="m278.196 129.065-21.433 52.315a8.044 8.044 0 0 1-7.449 4.994H227.13c-4.444 0-8.057-3.614-8.057-8.06V73.686c0-4.446 3.613-8.06 8.057-8.06h22.184a8.043 8.043 0 0 1 7.449 4.994l21.433 52.315a8.153 8.153 0 0 1 0 6.11v.02z" stroke="#E27639"/>
        <path d="m275.517 128.781-19.423 47.422a7.295 7.295 0 0 1-6.759 4.527h-20.114c-4.018 0-7.286-3.268-7.286-7.288V78.598c0-4.019 3.268-7.287 7.286-7.287h20.114a7.316 7.316 0 0 1 6.759 4.527l19.423 47.422a7.224 7.224 0 0 1 0 5.521z" stroke="#E27639"/>
        <path d="m272.838 128.497-17.414 42.509a6.539 6.539 0 0 1-6.049 4.06h-18.023a6.532 6.532 0 0 1-6.535-6.536V83.511a6.532 6.532 0 0 1 6.535-6.536h18.023a6.52 6.52 0 0 1 6.049 4.06l17.414 42.509a6.543 6.543 0 0 1 0 4.953z" stroke="#E27639"/>
        <path d="m270.159 128.212-15.405 37.597a5.79 5.79 0 0 1-5.358 3.593h-15.953a5.795 5.795 0 0 1-5.784-5.786V88.403a5.795 5.795 0 0 1 5.784-5.785h15.953a5.79 5.79 0 0 1 5.358 3.593l15.405 37.596a5.855 5.855 0 0 1 0 4.385v.02z" stroke="#E27639"/>
        <path d="m254.084 91.408 13.396 32.684a4.977 4.977 0 0 1 0 3.816l-13.396 32.684a5.034 5.034 0 0 1-4.648 3.126h-13.862a5.032 5.032 0 0 1-5.033-5.034V93.316a5.032 5.032 0 0 1 5.033-5.034h13.862a5.014 5.014 0 0 1 4.648 3.126z" stroke="#E27639"/>
        <path d="m394.242 422.342-22.44-41.393-41.502-76.593-23.535-43.423c-3.567-6.577-12.381-6.577-15.948 0l-89.591 165.388c-3.831 7.064-2.661 16.179 3.076 21.559 5.285 4.973 13.212 8.12 22.063 8.12 8.852 0 16.005-2.862 21.27-7.41 1.661-1.441 4.077-1.441 5.757 0 5.265 4.548 12.852 7.41 21.27 7.41 8.417 0 16.004-2.862 21.27-7.41 1.66-1.441 4.076-1.441 5.756 0 5.265 4.548 12.852 7.41 21.27 7.41 8.417 0 16.004-2.862 21.27-7.41 1.661-1.441 4.076-1.441 5.756 0 5.266 4.548 12.853 7.41 21.27 7.41 10.192 0 19.138-4.162 24.271-10.475 4.096-5.035 4.567-12.404 1.434-18.189l-2.717-5.014v.02z" stroke="#1D50A2"/>
        <path d="m328.374 309.126-22.081-40.743c-3.341-6.171-11.626-6.171-14.948 0l-84.08 155.197c-3.585 6.639-2.491 15.185 2.888 20.22 4.964 4.648 12.4 7.612 20.704 7.612s15.004-2.679 19.968-6.943a4.08 4.08 0 0 1 5.397 0c4.945 4.264 12.06 6.943 19.968 6.943 7.908 0 15.004-2.679 19.968-6.943a4.08 4.08 0 0 1 5.398 0c4.944 4.264 12.059 6.943 19.967 6.943 7.908 0 15.004-2.679 19.968-6.943a4.08 4.08 0 0 1 5.398 0c4.945 4.264 12.06 6.943 19.968 6.943 9.549 0 17.948-3.918 22.779-9.825 3.851-4.71 4.285-11.632 1.34-17.053l-2.547-4.709-21.044-38.835-38.954-71.864h-.057z" stroke="#1D50A2"/>
        <path d="m326.431 313.917-20.629-38.063c-3.114-5.766-10.852-5.766-13.966 0l-78.55 144.986c-3.359 6.191-2.321 14.19 2.699 18.899 4.643 4.345 11.588 7.126 19.345 7.126s14.023-2.497 18.647-6.496c1.472-1.259 3.586-1.259 5.039 0 4.624 3.999 11.267 6.496 18.646 6.496 7.38 0 14.023-2.497 18.647-6.496 1.472-1.259 3.586-1.259 5.039 0 4.624 3.999 11.268 6.496 18.647 6.496 7.379 0 14.023-2.497 18.647-6.496 1.472-1.259 3.585-1.259 5.039 0 4.624 3.999 11.267 6.496 18.646 6.496 8.927 0 16.779-3.654 21.27-9.176 3.586-4.405 4.001-10.881 1.246-15.936l-2.378-4.405-19.666-36.297-36.387-67.134h.019z" stroke="#1D50A2"/>
        <path d="m324.506 318.688-19.176-35.384c-2.906-5.359-10.097-5.359-12.984 0l-73.02 134.775c-3.114 5.765-2.171 13.195 2.51 17.56 4.322 4.039 10.776 6.618 17.986 6.618 7.209 0 13.041-2.335 17.325-6.03a3.544 3.544 0 0 1 4.681 0c4.303 3.715 10.474 6.03 17.325 6.03 6.851 0 13.042-2.335 17.326-6.03a3.543 3.543 0 0 1 4.68 0c4.304 3.715 10.475 6.03 17.326 6.03 6.851 0 13.041-2.335 17.326-6.03a3.543 3.543 0 0 1 4.68 0c4.303 3.715 10.475 6.03 17.326 6.03 8.304 0 15.589-3.391 19.779-8.527 3.34-4.1 3.718-10.109 1.17-14.819l-2.208-4.08-18.288-33.74-33.821-62.403h.057z" stroke="#1D50A2"/>
        <path d="m322.58 323.479-17.722-32.704c-2.68-4.953-9.323-4.953-12.003 0l-67.49 124.563c-2.888 5.319-2.001 12.181 2.321 16.241 3.982 3.735 9.946 6.11 16.627 6.11 6.681 0 12.041-2.152 16.024-5.582a3.321 3.321 0 0 1 4.34 0c3.964 3.43 9.682 5.582 16.024 5.582 6.341 0 12.041-2.152 16.023-5.582a3.322 3.322 0 0 1 4.341 0c3.963 3.43 9.682 5.582 16.023 5.582 6.342 0 12.041-2.152 16.023-5.582a3.322 3.322 0 0 1 4.341 0c3.964 3.43 9.682 5.582 16.024 5.582 7.662 0 14.419-3.146 18.288-7.876 3.095-3.797 3.435-9.339 1.075-13.703l-2.057-3.776-16.891-31.182-31.254-57.673h-.057z" stroke="#1D50A2"/>
        <path d="m320.636 328.25-16.268-30.025c-2.454-4.547-8.569-4.547-11.022 0l-61.961 114.373c-2.642 4.892-1.83 11.185 2.133 14.9 3.661 3.431 9.135 5.624 15.268 5.624 6.134 0 11.06-1.969 14.703-5.116a3.03 3.03 0 0 1 3.982 0c3.642 3.147 8.889 5.116 14.702 5.116 5.813 0 11.06-1.969 14.702-5.116a3.03 3.03 0 0 1 3.982 0c3.643 3.147 8.89 5.116 14.703 5.116 5.813 0 11.059-1.969 14.702-5.116a3.03 3.03 0 0 1 3.982 0c3.643 3.147 8.889 5.116 14.702 5.116 7.04 0 13.23-2.883 16.778-7.248 2.831-3.471 3.152-8.566.982-12.566l-1.888-3.471-15.513-28.624-28.706-52.963h.037z" stroke="#1D50A2"/>
        <path d="m318.712 333.04-14.816-27.345c-2.246-4.141-7.794-4.141-10.04 0l-56.431 104.162c-2.416 4.446-1.68 10.191 1.944 13.581 3.34 3.126 8.323 5.116 13.89 5.116 5.568 0 10.079-1.807 13.4-4.669a2.738 2.738 0 0 1 3.624 0c3.322 2.862 8.097 4.669 13.4 4.669 5.303 0 10.078-1.807 13.4-4.669a2.738 2.738 0 0 1 3.624 0c3.321 2.862 8.096 4.669 13.399 4.669 5.304 0 10.079-1.807 13.4-4.669a2.738 2.738 0 0 1 3.624 0c3.322 2.862 8.097 4.669 13.4 4.669 6.417 0 12.041-2.619 15.287-6.598 2.586-3.167 2.869-7.816.906-11.449l-1.717-3.167-14.136-26.066-26.14-48.234h-.018z" stroke="#1D50A2"/>
        <path d="m316.786 337.811-13.362-24.665c-2.019-3.736-7.04-3.736-9.059 0l-50.901 93.95c-2.17 4.02-1.51 9.196 1.755 12.241 3.001 2.822 7.512 4.609 12.532 4.609 5.02 0 9.078-1.624 12.079-4.203a2.493 2.493 0 0 1 3.265 0c3.001 2.579 7.304 4.203 12.079 4.203s9.078-1.624 12.079-4.203a2.493 2.493 0 0 1 3.265 0c3 2.579 7.304 4.203 12.078 4.203 4.775 0 9.078-1.624 12.079-4.203a2.493 2.493 0 0 1 3.265 0c3.001 2.579 7.304 4.203 12.079 4.203 5.775 0 10.871-2.376 13.777-5.948 2.322-2.863 2.586-7.045.812-10.333l-1.548-2.842-12.739-23.508-23.572-43.504h.037z" stroke="#1D50A2"/>
        <path d="m314.843 342.602-11.909-21.985c-1.793-3.33-6.266-3.33-8.078 0l-45.371 83.739c-1.944 3.573-1.34 8.201 1.566 10.922 2.68 2.517 6.7 4.1 11.173 4.1s8.097-1.441 10.777-3.755a2.2 2.2 0 0 1 2.906 0c2.662 2.314 6.512 3.755 10.777 3.755s8.097-1.441 10.777-3.755a2.2 2.2 0 0 1 2.906 0c2.661 2.314 6.511 3.755 10.777 3.755 4.265 0 8.096-1.441 10.776-3.755a2.2 2.2 0 0 1 2.907 0c2.661 2.314 6.511 3.755 10.776 3.755 5.152 0 9.682-2.111 12.287-5.298 2.076-2.538 2.302-6.273.717-9.196l-1.378-2.538-11.362-20.97-21.024-38.774z" stroke="#1D50A2"/>
        <path d="m312.917 347.372-10.455-19.306c-1.586-2.923-5.511-2.923-7.097 0l-39.841 73.529c-1.698 3.146-1.189 7.186 1.359 9.582 2.359 2.212 5.87 3.613 9.814 3.613 3.945 0 7.115-1.279 9.456-3.289.736-.649 1.811-.649 2.566 0 2.341 2.03 5.719 3.289 9.456 3.289 3.737 0 7.115-1.279 9.455-3.289.736-.649 1.812-.649 2.567 0 2.34 2.03 5.719 3.289 9.455 3.289 3.737 0 7.116-1.279 9.456-3.289.736-.649 1.812-.649 2.567 0 2.34 2.03 5.718 3.289 9.455 3.289 4.53 0 8.512-1.847 10.795-4.649 1.831-2.233 2.02-5.522.642-8.079l-1.208-2.233-9.984-18.413-18.458-34.044z" stroke="#1D50A2"/>
        <path d="m310.993 352.143-9.003-16.626c-1.359-2.517-4.737-2.517-6.096 0l-34.311 63.337c-1.472 2.7-1.019 6.192 1.17 8.263 2.019 1.908 5.058 3.105 8.455 3.105 3.397 0 6.134-1.096 8.153-2.842a1.688 1.688 0 0 1 2.208 0c2.02 1.746 4.926 2.842 8.154 2.842 3.227 0 6.133-1.096 8.153-2.842a1.688 1.688 0 0 1 2.208 0c2.019 1.746 4.926 2.842 8.153 2.842 3.227 0 6.134-1.096 8.153-2.842a1.688 1.688 0 0 1 2.208 0c2.02 1.746 4.926 2.842 8.154 2.842 3.906 0 7.322-1.603 9.285-4.019 1.567-1.929 1.755-4.75.547-6.963l-1.038-1.929-8.587-15.854-15.891-29.334-.075.02z" stroke="#1D50A2"/>
        <path d="m329.601 394.835-7.209-13.297-13.325-24.604-7.549-13.946c-1.151-2.112-3.982-2.112-5.115 0l-28.781 53.126c-1.227 2.274-.849 5.197.981 6.922 1.699 1.604 4.247 2.599 7.097 2.599 2.849 0 5.133-.914 6.832-2.375a1.395 1.395 0 0 1 1.849 0c1.699 1.461 4.133 2.375 6.832 2.375s5.134-.914 6.832-2.375a1.397 1.397 0 0 1 1.85 0c1.699 1.461 4.133 2.375 6.832 2.375s5.134-.914 6.832-2.375a1.397 1.397 0 0 1 1.85 0c1.698 1.461 4.133 2.375 6.832 2.375 3.265 0 6.152-1.34 7.794-3.37 1.321-1.624 1.472-3.979.453-5.847l-.868-1.603-.019.02z" stroke="#1D50A2"/>
        <path d="m397.791 663.096-10.334-20.832-14.948-30.132h-.061c-2.639-5.543-8.239-9.421-14.766-9.421-6.527 0-11.926 3.756-14.626 9.177l-.06-.04-24.698 49.786.081.041c-1.249 2.335-2.015 4.954-2.015 7.777 0 8.974 7.111 16.243 15.955 16.487v.041h50.262c9.066 0 16.419-7.411 16.419-16.549 0-2.253-.383-4.406-1.169-6.355l-.04.02z" stroke="#6CAF61"/>
        <path d="m393.823 662.223-9.308-18.781-13.477-27.148h-.04c-2.377-4.995-7.413-8.487-13.296-8.487-5.882 0-10.757 3.391-13.175 8.284l-.06-.04-22.261 44.873h.061c-1.128 2.132-1.813 4.487-1.813 7.046 0 8.081 6.406 14.639 14.363 14.862v.041h45.287c8.158 0 14.786-6.68 14.786-14.903 0-2.031-.342-3.98-1.067-5.726v-.021z" stroke="#6CAF61"/>
        <path d="m389.834 661.35-8.3-16.71-11.986-24.183h-.04c-2.116-4.447-6.608-7.553-11.846-7.553s-9.569 3.025-11.724 7.37h-.041l-19.823 39.919h.061c-.987 1.888-1.612 4-1.612 6.274 0 7.208 5.701 13.036 12.792 13.239v.04h40.311c7.272 0 13.175-5.949 13.175-13.279 0-1.807-.302-3.533-.947-5.096l-.02-.021z" stroke="#6CAF61"/>
        <path d="m385.865 660.498-7.272-14.66-10.516-21.198h-.04c-1.854-3.899-5.782-6.619-10.375-6.619s-8.401 2.639-10.294 6.456h-.041l-17.365 34.985h.061c-.867 1.665-1.41 3.513-1.41 5.503 0 6.314 4.996 11.411 11.22 11.594v.04h35.335c6.366 0 11.543-5.198 11.543-11.634 0-1.584-.261-3.107-.826-4.467h-.02z" stroke="#6CAF61"/>
        <path d="m381.897 659.624-6.245-12.588-9.025-18.214h-.04c-1.592-3.35-4.976-5.685-8.925-5.685-3.948 0-7.212 2.274-8.844 5.543h-.04l-14.927 30.071h.04c-.746 1.422-1.209 3.005-1.209 4.731 0 5.422 4.291 9.807 9.63 9.97l.282.02h30.076c5.48 0 9.912-4.467 9.912-9.99 0-1.36-.222-2.66-.705-3.837l.02-.021z" stroke="#6CAF61"/>
        <path d="m377.928 658.751-5.217-10.538-7.555-15.228h-.02c-1.33-2.802-4.17-4.751-7.454-4.751-3.283 0-6.023 1.908-7.393 4.649h-.04l-12.49 25.137h.04c-.625 1.198-1.028 2.518-1.028 3.96 0 4.528 3.586 8.203 8.059 8.325l.241.02h25.162c4.573 0 8.3-3.736 8.3-8.365 0-1.138-.182-2.234-.605-3.209z" stroke="#6CAF61"/>
        <path d="m373.959 657.879-4.21-8.467-6.084-12.244h-.02c-1.068-2.254-3.344-3.817-6.003-3.817-2.66 0-4.855 1.522-5.943 3.736h-.02l-10.033 20.223h.041c-.504.954-.826 2.031-.826 3.168a6.675 6.675 0 0 0 6.486 6.7h20.407c3.687 0 6.669-3.005 6.669-6.721 0-.913-.162-1.787-.484-2.578h.02zM345.033 563.706c0-2.701-.625-5.239-1.773-7.493l-29.875-60.203c-2.498-5.908-8.381-10.01-15.17-10.01s-12.429 4.041-14.988 9.848l-82.676 166.497h.081c-1.028 2.193-1.632 4.569-1.632 7.127 0 9.036 7.212 16.366 16.136 16.508l.282.02H276.197c6.527 0 12.147-3.878 14.806-9.421l52.398-105.645c1.068-2.193 1.632-4.65 1.632-7.249v.021z" stroke="#6CAF61"/>
        <path d="M311.713 501.797a15.545 15.545 0 0 0-14.324-9.462c-6.406 0-11.724 3.817-14.141 9.3l-78.104 157.238h.081c-.967 2.071-1.551 4.325-1.551 6.721 0 8.548 6.809 15.452 15.25 15.594l.262.02h57.393c6.165 0 11.483-3.655 13.981-8.893l49.497-99.757c1.007-2.071 1.551-4.385 1.551-6.863 0-2.477-.604-4.954-1.672-7.086l-28.203-56.853-.02.041z" stroke="#6CAF61"/>
        <path d="M310.02 507.584a14.634 14.634 0 0 0-13.477-8.894c-6.023 0-11.04 3.594-13.316 8.752l-73.49 147.979h.061c-.907 1.95-1.451 4.061-1.451 6.335 0 8.041 6.406 14.538 14.344 14.681l.241.02h54.03c5.802 0 10.798-3.452 13.155-8.366l46.576-93.868c.946-1.949 1.45-4.142 1.45-6.457 0-2.314-.564-4.669-1.571-6.659l-26.552-53.503v-.02z" stroke="#6CAF61"/>
        <path d="M308.328 513.391c-2.095-4.914-6.99-8.345-12.631-8.345s-10.355 3.371-12.47 8.203L214.33 651.97h.061c-.846 1.827-1.37 3.817-1.37 5.929 0 7.533 6.003 13.624 13.437 13.766l.221.021H277.325c5.439 0 10.133-3.229 12.328-7.858l43.655-88a13.807 13.807 0 0 0 1.37-6.051c0-2.173-.524-4.366-1.47-6.254l-24.88-50.152v.02z" stroke="#6CAF61"/>
        <path d="M306.636 519.178a12.799 12.799 0 0 0-11.785-7.777c-5.278 0-9.649 3.147-11.644 7.655l-64.283 129.442h.06c-.785 1.705-1.269 3.553-1.269 5.543 0 7.025 5.6 12.731 12.551 12.832l.221.021H277.748c5.077 0 9.448-3.006 11.503-7.33l40.734-82.112c.825-1.706 1.269-3.614 1.269-5.645 0-2.03-.484-4.081-1.37-5.827l-23.228-46.802h-.02z" stroke="#6CAF61"/>
        <path d="M304.944 524.985a11.886 11.886 0 0 0-10.939-7.229c-4.895 0-8.965 2.924-10.818 7.107l-59.69 120.182h.06c-.745 1.584-1.188 3.31-1.188 5.138 0 6.517 5.197 11.817 11.644 11.918h44.077c4.714 0 8.764-2.802 10.677-6.802l37.813-76.243a11.963 11.963 0 0 0 1.189-5.239c0-1.888-.464-3.777-1.29-5.421l-21.555-43.452.02.041z" stroke="#6CAF61"/>
        <path d="M303.252 530.772a10.954 10.954 0 0 0-10.093-6.66c-4.513 0-8.28 2.7-9.972 6.558L228.11 641.574h.06c-.685 1.462-1.087 3.045-1.087 4.751 0 6.03 4.794 10.903 10.757 11.005h40.653c4.352 0 8.099-2.579 9.851-6.274l34.912-70.355a11.107 11.107 0 0 0 1.088-4.833c0-1.726-.423-3.492-1.189-4.995l-19.883-40.101h-.02z" stroke="#6CAF61"/>
        <path d="M301.58 536.579a10.04 10.04 0 0 0-9.247-6.112c-4.13 0-7.575 2.478-9.146 6.011l-50.484 101.644h.04c-.624 1.34-1.007 2.782-1.007 4.345 0 5.523 4.392 9.99 9.851 10.071h37.249c3.988 0 7.413-2.355 9.045-5.746l31.991-64.467a10.194 10.194 0 0 0 1.007-4.426c0-1.584-.383-3.208-1.088-4.569l-18.232-36.751h.021z" stroke="#6CAF61"/>
        <path d="M299.888 542.365c-1.39-3.269-4.654-5.563-8.401-5.563s-6.89 2.254-8.3 5.462l-45.871 92.365h.041c-.564 1.219-.907 2.539-.907 3.96 0 5.015 3.989 9.076 8.945 9.157H279.259c3.606 0 6.748-2.152 8.219-5.218l29.07-58.599a9.262 9.262 0 0 0 .906-4.02 9.235 9.235 0 0 0-.987-4.163l-16.559-33.401-.02.02z" stroke="#6CAF61"/>
        <path d="M298.195 548.172a8.233 8.233 0 0 0-7.575-4.995c-3.384 0-6.204 2.031-7.473 4.914l-41.278 83.107h.04c-.503 1.096-.826 2.274-.826 3.553 0 4.508 3.586 8.162 8.058 8.244H279.621c3.243 0 6.064-1.929 7.393-4.711l26.149-52.711a8.337 8.337 0 0 0 .826-3.614 8.416 8.416 0 0 0-.887-3.736l-14.907-30.051z" stroke="#6CAF61"/>
        <path d="M296.503 553.98a7.297 7.297 0 0 0-6.729-4.447c-3.021 0-5.499 1.787-6.648 4.365l-36.664 73.828h.04c-.443.975-.725 2.03-.725 3.167 0 4 3.203 7.249 7.152 7.33h27.055c2.88 0 5.399-1.725 6.567-4.182l23.228-46.843a7.49 7.49 0 0 0 .725-3.208 7.557 7.557 0 0 0-.786-3.33l-13.235-26.701.02.021z" stroke="#6CAF61"/>
        <path d="M307.079 586.021a6.358 6.358 0 0 0-.685-2.904l-11.583-23.35a6.366 6.366 0 0 0-5.883-3.878c-2.639 0-4.814 1.563-5.801 3.817l-32.072 64.548h.041c-.403.853-.645 1.767-.645 2.762a6.38 6.38 0 0 0 6.265 6.395h23.651c2.518 0 4.714-1.502 5.741-3.654l20.306-40.955a6.587 6.587 0 0 0 .645-2.822l.02.041z" stroke="#6CAF61"/>
        <path d="M385.683 716.02h-27.67c-3.39 0-6.658 1.299-9.115 3.613l-27.425 25.733c-8.506 7.996-22.453 1.948-22.453-9.721v-6.291c0-7.367-5.968-13.334-13.337-13.334h-73.346c-7.369 0-13.337 5.967-13.337 13.334v173.293c0 7.366 5.968 13.333 13.337 13.333h66.972a13.3 13.3 0 0 0 11.429-6.474l104.141-160.305A28.935 28.935 0 0 0 399 734.305v-4.972c0-7.366-5.968-13.333-13.337-13.333l.02.02z" stroke="#BF4C97"/>
        <path d="M214.976 721.743c-6.922 0-12.545 5.622-12.545 12.542v163.126c0 6.92 5.623 12.542 12.545 12.542h63.033c4.405 0 8.506-2.314 10.759-6.089l89.546-137.818c.081-.142 7.166-11.142 7.166-11.304l1.461-2.354c.264-.426.508-.913.731-1.36 2.01-3.917 2.903-8.28 2.761-12.623-.061-.02-.122-4.546-.183-4.546 0-2.496-.974-4.83-2.273-6.758-2.172-3.227-6.233-5.358-10.414-5.358h-10.618c-.101 0-10.759.041-10.84.122l-4.385.081c-3.086 0-6.252 1.36-8.506 3.471l-19.671 18.447s-5.989 5.581-6.07 5.601c-6.983 6.353-17.661 2.821-20.32-5.398a13.261 13.261 0 0 1-.609-3.978v-5.885c-.812-6.839-5.644-12.44-12.546-12.44h-69.042l.02-.021z" stroke="#BF4C97"/>
        <path d="M217.615 727.446c-6.496 0-11.774 5.277-11.774 11.771v152.938c0 6.494 5.278 11.77 11.774 11.77h59.115a11.73 11.73 0 0 0 10.09-5.723l84.267-129.721c.182-.284 6.597-10.37 6.597-10.715l1.32-2.233c.223-.385.467-.892.67-1.298 1.847-3.694 2.497-7.814 2.192-11.791-.101-.041-.223-4.14-.345-4.14 0-2.253-1.116-4.343-2.294-6.089-1.969-2.902-6.009-4.83-9.764-4.83h-9.887c-.223 0-9.927.081-10.089.224l-4.06.182c-2.781 0-5.847 1.441-7.877 3.328l-18.351 17.21c-.142.122-5.563 5.134-5.725 5.155-6.557 5.763-16.403 2.374-18.818-5.338-.346-1.075-.549-2.496-.549-3.734v-2.415s0-3.003-.02-3.085c-.792-6.352-5.319-11.567-11.754-11.567h-64.738l.02.101z" stroke="#BF4C97"/>
        <path d="M220.255 733.149c-6.07 0-10.983 4.911-10.983 10.979v142.79c0 6.068 4.913 10.98 10.983 10.98h55.176a11 11 0 0 0 9.42-5.338l79.009-121.623c.264-.427 6.029-9.6 6.029-10.107l1.178-2.111c.203-.345.406-.852.588-1.217 1.685-3.491 2.091-7.347 1.645-10.959-.163-.081-.346-3.714-.528-3.714 0-2.009-1.259-3.856-2.294-5.419-1.746-2.577-5.766-4.282-9.115-4.282h-9.176c-.325 0-9.095.122-9.318.345l-3.715.264c-2.456 0-5.461 1.522-7.247 3.207l-17.032 15.971c-.203.183-5.116 4.688-5.359 4.729-6.111 5.175-15.145 1.928-17.337-5.256-.284-.954-.487-2.375-.487-3.471v-2.232c0-.102-.02-2.76-.041-2.862-.751-5.885-4.994-10.695-10.942-10.695h-60.434l-.02.021z" stroke="#BF4C97"/>
        <path d="M222.914 738.872a10.204 10.204 0 0 0-10.211 10.208v132.603a10.204 10.204 0 0 0 10.211 10.208h51.238c3.593 0 6.902-1.888 8.75-4.952l73.751-113.506c.345-.589 5.461-8.828 5.461-9.498l1.015-1.968c.183-.305.365-.832.507-1.157 1.523-3.267 1.685-6.88 1.097-10.127-.224-.101-.447-3.308-.691-3.308 0-1.745-1.4-3.389-2.314-4.728-1.522-2.253-5.542-3.755-8.465-3.755h-8.465c-.447 0-8.242.162-8.567.467l-3.39.345c-2.152 0-5.055 1.583-6.618 3.064l-15.713 14.734c-.264.264-4.689 4.241-4.994 4.282-5.684 4.566-13.865 1.482-15.854-5.195-.244-.832-.427-2.253-.427-3.207v-2.049c0-.143-.02-2.497-.04-2.639-.711-5.398-4.649-9.802-10.151-9.802h-56.13v-.02z" stroke="#BF4C97"/>
        <path d="M225.553 744.574c-5.197 0-9.42 4.222-9.42 9.417v122.435c0 5.196 4.223 9.417 9.42 9.417h47.32a9.457 9.457 0 0 0 8.08-4.566l68.493-105.409c.427-.73 4.893-8.057 4.893-8.889l.873-1.846c.162-.264.324-.812.446-1.076 1.381-3.064 1.279-6.413.528-9.295-.264-.122-.568-2.882-.873-2.882 0-1.501-1.543-2.902-2.334-4.058-1.3-1.949-5.319-3.207-7.816-3.207h-7.755c-.548 0-7.41.203-7.795.589l-3.045.426c-1.848 0-4.649 1.664-5.989 2.922l-14.373 13.496c-.345.325-4.242 3.795-4.648 3.856-5.258 3.977-12.607 1.014-14.373-5.114-.203-.711-.366-2.131-.366-2.963v-1.867c0-.163-.04-2.253-.06-2.415-.691-4.912-4.324-8.93-9.359-8.93h-51.827l-.02-.041z" stroke="#BF4C97"/>
        <path d="M228.192 750.297c-4.771 0-8.648 3.876-8.648 8.645V871.21c0 4.77 3.877 8.646 8.648 8.646h43.382a8.602 8.602 0 0 0 7.409-4.201l63.216-97.311c.528-.873 4.324-7.286 4.324-8.301l.731-1.725c.122-.223.264-.771.365-.994 1.218-2.841.873-5.926-.02-8.463-.325-.142-.67-2.476-1.056-2.476 0-1.258-1.685-2.415-2.334-3.389-1.096-1.623-5.075-2.679-7.187-2.679h-7.044c-.649 0-6.557.244-7.044.69l-2.7.528c-1.543 0-4.243 1.745-5.38 2.801l-13.053 12.257c-.406.386-3.796 3.349-4.283 3.41-4.832 3.389-11.328.568-12.891-5.033-.162-.609-.305-2.009-.305-2.699v-1.705c0-.203-.04-2.009-.06-2.192-.65-4.444-4-8.036-8.567-8.036h-47.503v-.041z" stroke="#BF4C97"/>
        <path d="M230.831 756a7.848 7.848 0 0 0-7.856 7.854v102.1a7.848 7.848 0 0 0 7.856 7.854h39.464a7.845 7.845 0 0 0 6.74-3.815l57.958-89.214c.609-1.015 3.735-6.514 3.735-7.691l.589-1.604c.101-.162.223-.75.284-.933 1.056-2.638.467-5.459-.589-7.631-.365-.162-.791-2.07-1.218-2.07 0-.994-1.827-1.928-2.354-2.699-.873-1.299-4.852-2.151-6.537-2.151h-6.334c-.771 0-5.725.284-6.273.812l-2.375.608c-1.238 0-3.857 1.807-4.75 2.659l-11.734 11.02c-.467.446-3.37 2.902-3.918 2.983-4.405 2.801-10.069.122-11.409-4.972-.122-.487-.243-1.887-.243-2.435v-1.522c0-.244-.041-1.746-.082-1.969-.629-3.957-3.674-7.164-7.775-7.164h-43.199l.02-.02z" stroke="#BF4C97"/>
        <path d="M233.47 761.703a7.068 7.068 0 0 0-7.064 7.062v91.933a7.068 7.068 0 0 0 7.064 7.063h35.526a7.086 7.086 0 0 0 6.07-3.43l52.7-81.116c.69-1.157 3.167-5.743 3.167-7.083l.446-1.481c.081-.122.163-.711.223-.853.914-2.435.061-4.992-1.136-6.798-.427-.183-.894-1.644-1.401-1.644 0-.751-1.969-1.441-2.355-2.03-.65-.974-4.628-1.603-5.887-1.603h-5.603c-.873 0-4.872.325-5.522.934l-2.03.69c-.934 0-3.451 1.887-4.121 2.516l-10.414 9.762c-.548.507-2.923 2.435-3.553 2.537-3.958 2.191-8.79-.305-9.926-4.891-.082-.366-.183-1.766-.183-2.192v-1.34c0-.263-.041-1.501-.102-1.745-.588-3.491-3.349-6.271-6.983-6.271H233.49l-.02-.02z" stroke="#BF4C97"/>
        <path d="M236.129 767.426a6.298 6.298 0 0 0-6.293 6.291v81.766a6.298 6.298 0 0 0 6.293 6.291h31.588a6.279 6.279 0 0 0 5.4-3.064l47.442-73.019c.792-1.299 2.598-4.952 2.598-6.474l.285-1.36s.121-.69.142-.791c.751-2.233-.345-4.526-1.685-5.987-.487-.223-1.015-1.238-1.563-1.238 0-.508-2.112-.974-2.376-1.36-.426-.649-4.384-1.075-5.237-1.075h-4.892c-.975 0-4.04.365-4.751 1.055l-1.685.791c-.609 0-3.045 1.969-3.491 2.375l-9.095 8.523c-.609.569-2.517 1.908-3.207 2.111-3.715 1.116-7.532-.751-8.445-4.83-.061-.244-.122-1.664-.122-1.928v-1.157c0-.304-.041-1.238-.102-1.522-.548-3.024-3.025-5.398-6.191-5.398h-34.613z" stroke="#BF4C97"/>
        <path d="M238.769 773.128a5.493 5.493 0 0 0-5.502 5.5v71.578c0 3.044 2.457 5.5 5.502 5.5h27.669a5.518 5.518 0 0 0 4.73-2.679l42.164-64.922c.873-1.44 2.03-4.18 2.03-5.885l.142-1.238s.041-.67.082-.71c.203-2.131-.63-4.221-2.254-5.155-.507-.284-1.116-.812-1.746-.812 0-.243-2.253-.487-2.395-.669-.223-.325-4.162-.528-4.588-.528h-4.182c-1.096 0-3.207.406-3.999 1.157l-1.36.872c-.305 0-2.639 2.03-2.883 2.253l-7.775 7.286c-.67.629-2.05 1.481-2.842 1.664-3.167.771-6.252-1.177-6.963-4.749-.02-.122-.061-1.542-.061-1.684v-.995c0-.345-.04-.994-.122-1.319-.528-2.557-2.7-4.505-5.4-4.505h-30.288l.041.04z" stroke="#BF4C97"/>
        <path d="M302.837 778.851h-9.805a4.759 4.759 0 0 0-3.228 1.279l-9.724 9.112c-3.025 2.821-7.958.69-7.958-3.45v-2.232a4.721 4.721 0 0 0-4.73-4.729h-25.984a4.721 4.721 0 0 0-4.73 4.729v61.41a4.721 4.721 0 0 0 4.73 4.729h23.731a4.736 4.736 0 0 0 4.06-2.294l36.906-56.803a10.285 10.285 0 0 0 1.462-5.277v-1.765a4.721 4.721 0 0 0-4.73-4.729v.02z" stroke="#BF4C97"/>
    </g>
</svg>
