<svg width="34" height="53" viewBox="0 0 34 53" fill="none" xmlns="http://www.w3.org/2000/svg">
    <path d="M1 17.144C1 8.227 8.631 1 17 1c8.407 0 16 7.213 16 16.144 0 8.645-6.497 18.9-15.137 33.405a1.003 1.003 0 0 1-1.724 0C7.521 36.041 1 25.774 1 17.143z" fill="#74318E" stroke="#fff" stroke-width="2" stroke-linejoin="round"/>
    <ellipse cx="17" cy="17.04" rx="10.256" ry="10.282" fill="#fff"/>
    <path d="M16.726 23.224c-1.856 0-3.024-.752-3.872-1.584l.896-1.2c.655.672 1.52 1.264 2.752 1.264 1.328 0 2.32-.944 2.32-2.512 0-1.552-.896-2.448-2.24-2.448-.737 0-1.184.208-1.873.656l-.912-.576.352-5.6h5.985v1.568h-4.369l-.272 3.008c.496-.256.976-.4 1.617-.4 1.968 0 3.584 1.152 3.584 3.744 0 2.592-1.92 4.08-3.968 4.08z" fill="#74318E"/>
</svg>
