<svg width="200" height="20" viewBox="0 0 200 20" fill="none" xmlns="http://www.w3.org/2000/svg">
    <g clip-path="url(#p39t4mh3ha)">
        <path d="M116.632 6.213V4.968l2.443-2.355c.246-.235.341-.386.341-.639 0-.327-.208-.555-.606-.555-.283 0-.624.118-.624.58h-1.553c0-1.177 1.004-1.824 2.177-1.824 1.25 0 2.159.68 2.159 1.808 0 .63-.294.967-.833 1.471l-1.609 1.514h2.442v1.245H116.632zM124.262 6.263c-1.117 0-2.167-.63-2.167-1.866V2.042c0-1.236 1.05-1.867 2.167-1.867 1.117 0 2.168.63 2.168 1.867v2.355c0 1.236-1.051 1.866-2.168 1.866zm.615-4.221c0-.42-.283-.622-.615-.622-.331 0-.615.202-.615.622v2.363c0 .42.284.614.615.614.332 0 .615-.194.615-.614V2.042zM127.633 6.213V4.968l2.442-2.355c.247-.235.341-.386.341-.639 0-.327-.208-.555-.605-.555-.284 0-.625.118-.625.58h-1.552c0-1.177 1.003-1.824 2.177-1.824 1.25 0 2.158.68 2.158 1.808 0 .63-.293.967-.833 1.471l-1.609 1.514h2.443v1.245H127.633zM135.272 6.263c-1.117 0-2.244-.53-2.244-1.875h1.553c0 .421.303.63.691.63.389 0 .691-.21.691-.638 0-.362-.302-.63-.719-.63h-.217V2.554h.217c.464 0 .644-.294.644-.564 0-.378-.293-.571-.615-.571s-.615.202-.615.564h-1.553c0-1.127.966-1.809 2.168-1.809 1.202 0 2.168.74 2.168 1.775 0 .656-.36.975-.701 1.168.369.227.776.589.776 1.304 0 1.253-1.06 1.841-2.244 1.841zM144.569 6.213V3.842h-1.761v2.37h-1.657V.227h1.657V2.53h1.761V.226h1.657v5.987h-1.657zM151.592 6.213l-.312-.892h-2.073l-.331.892h-1.733l2.453-5.987h1.277l2.452 5.987H151.592zm-1.315-3.717-.606 1.598h1.174l-.568-1.598zM158.002 6.213l-1.553-2.456-.568.58v1.875h-1.638V.226h1.638v2.119l1.95-2.119h2.026l-2.3 2.422 2.375 3.565h-1.93zM164.609 6.213l-1.552-2.456-.568.58v1.875h-1.638V.226h1.638v2.119l1.95-2.119h2.026l-2.301 2.422 2.376 3.565h-1.931zM171.227 6.213l-.312-.892h-2.074l-.331.892h-1.732L169.23.226h1.278l2.452 5.987H171.227zm-1.316-3.717-.605 1.598h1.173l-.568-1.598zM176.215 6.213V.226h4.582v1.312h-2.925v1h2.499v1.313h-2.499v1.051h2.925v1.312h-4.582v-.001zM185.634 6.213l-1.107-1.842-1.108 1.842h-1.893l2.101-3.07-1.969-2.917h1.884l.985 1.69.984-1.69h1.884l-1.969 2.918 2.102 3.069h-1.894zM191.116 4.077h-1.014v2.136h-1.656V.226h2.67c1.495 0 2.3.942 2.3 1.925 0 .984-.805 1.926-2.3 1.926zm-.076-2.531h-.937v1.211h.937c.455 0 .719-.294.719-.606 0-.31-.265-.605-.719-.605zM198.85 5.59c-.492.438-1.06.673-1.884.673-.824 0-1.391-.235-1.884-.672-.71-.63-.682-1.471-.682-2.371 0-.9-.028-1.741.682-2.371.493-.438 1.06-.673 1.884-.673.824 0 1.392.235 1.884.673.711.63.682 1.47.682 2.37 0 .9.029 1.741-.682 2.372zm-1.221-3.842c-.123-.143-.36-.261-.663-.261-.302 0-.539.118-.662.26-.152.177-.247.379-.247 1.472s.095 1.286.247 1.463c.123.143.36.27.662.27.303 0 .54-.126.663-.27.152-.176.246-.37.246-1.463s-.094-1.295-.246-1.471zM120.554 16.702v-3.39h-1.589v4.679h7.277v1.312h-8.725V13.31h-1.577V12h1.577V9.592h1.448v2.407h1.589V9.352h1.378v2.647h1.611V9.454h1.46V12h1.541v1.312h-1.541v3.39h-4.45.001zm1.378-3.39v2.145h1.611v-2.145h-1.611zM135.714 14.5c.841.684 1.997 1.243 3.2 1.54a6.117 6.117 0 0 0-.923 1.163 8.63 8.63 0 0 1-1.974-.924v3.606h-1.448v-4.017h.876c-.526-.41-.993-.856-1.367-1.37h-1.203c-.386.503-.876.948-1.402 1.358h.993v.788c0 1.084-.339 2.521-2.663 3.355-.187-.331-.654-.845-.958-1.096 1.951-.627 2.185-1.586 2.185-2.317v-.41a9.452 9.452 0 0 1-2.126 1.06 6.3 6.3 0 0 0-.91-1.117c1.168-.33 2.324-.925 3.153-1.62h-1.857v-4.85h8.328v4.85h-1.904zm-5.034-2.934h2.044v-.821h-2.044v.821zm0 1.838h2.044v-.822h-2.044v.822zm5.489-2.66h-2.043v.822h2.043v-.821zm0 1.838h-2.043v.822h2.043v-.822zM149.064 12.65c-.526.822-1.226 1.518-2.056 2.112 1.203.41 2.605.707 4.111.844-.303.309-.689.925-.875 1.313-.433-.057-.83-.126-1.238-.206v3.195h-1.425v-.33h-3.936v.354h-1.355v-3.138c-.502.125-1.005.228-1.519.32-.128-.343-.42-.902-.666-1.21 1.449-.194 2.897-.56 4.159-1.096a8.89 8.89 0 0 1-1.04-.845c-.42.275-.899.525-1.424.765-.199-.32-.619-.799-.923-1.015 1.623-.593 2.698-1.438 3.271-2.283h-2.173v1.267h-1.367v-2.499h4.345a20.47 20.47 0 0 0-.385-.741l1.39-.331c.175.33.408.719.596 1.073h4.076v2.499h-1.425v-1.267h-4.859l1.308.262c-.117.149-.245.309-.373.469h2.604l.234-.057.946.548-.001-.002zm-1.484 5.81v-.982h-3.936v.982h3.936zm.012-2.1a14.667 14.667 0 0 1-1.997-.765 14.79 14.79 0 0 1-1.845.764h3.843-.001zm-3.363-3.139a6.37 6.37 0 0 0 1.377.936c.503-.297.958-.617 1.332-.982h-2.651l-.059.046h.001zM162.134 14.248c-.467.354-.992.72-1.506 1.062.455 1.346 1.389 2.476 2.733 3.001-.315.251-.724.777-.922 1.108-1.402-.651-2.325-1.872-2.897-3.424-.116.08-.245.148-.362.216.327 1.37.047 2.682-.549 3.162-.409.41-.783.524-1.39.536-.256.012-.607 0-.946-.011-.023-.377-.14-.913-.374-1.29.409.046.783.057 1.052.057.268 0 .467-.035.63-.274.199-.183.339-.605.339-1.153-1.332.89-3.165 1.734-4.718 2.19a5.48 5.48 0 0 0-.724-1.13c1.845-.387 4.088-1.369 5.244-2.327a4.38 4.38 0 0 0-.175-.434c-1.169.718-2.874 1.46-4.205 1.86a5.82 5.82 0 0 0-.689-1.05c1.436-.297 3.352-1.016 4.368-1.678a9.188 9.188 0 0 0-.328-.376c-1.016.525-2.149.913-3.247 1.198a6.253 6.253 0 0 0-.712-1.062c1.319-.262 2.709-.696 3.76-1.255h-2.008V12.02h6.529v1.153h-2.593c-.21.182-.444.365-.701.525.456.41.795.89 1.028 1.381.805-.525 1.647-1.175 2.207-1.723l1.156.89v.002zm-7.989-1.506h-1.366v-2.579h4.228a4.91 4.91 0 0 0-.281-.605l1.472-.41c.187.308.385.684.502 1.015h4.158v2.58h-1.425v-1.347h-7.288v1.346zM167.145 13.347v6.574h-1.355v-6.574h-1.273v-1.233h1.273V9.273h1.355v2.841h1.133v1.233h-1.133zm8.269 4.097h-1.518v1.198c0 .593-.105.902-.549 1.084-.421.172-1.028.182-1.834.182a4.712 4.712 0 0 0-.374-1.14c.538.022 1.134.022 1.297.01.175 0 .222-.045.222-.17v-1.165h-2.277c.432.285.864.605 1.144.81l-.865.914c-.385-.354-1.168-.925-1.728-1.324l.408-.399h-1.459V16.36h4.777v-.41h.42c-.082-.251-.245-.537-.35-.753.303.011.607.011.713.011.116 0 .151-.034.151-.136V14.9h-1.261v.844h-1.273v-.844h-1.273v1.027h-1.168V11.83h2.441V11.5h-2.792v-1.05h2.792V9.275h1.273v1.175h1.261c-.303-.16-.631-.33-.887-.468l.631-.73c.526.228 1.262.593 1.658.798l-.315.4h.572v1.05h-2.92v.33h2.476v3.264c0 .479-.094.662-.421.776a2.05 2.05 0 0 1-.49.115v.376h1.506l.012 1.084zm-5.629-4.747v.376h1.273v-.377h-1.273zm1.273 1.472v-.354h-1.273v.354h1.273zm1.273-1.473v.377h1.261v-.377h-1.261zm1.261 1.473v-.354h-1.261v.354h1.261zM185.961 18.779c.362 0 .443-.126.49-.856.269.172.806.343 1.145.388-.14 1.176-.48 1.484-1.495 1.484h-1.728c-1.39 0-1.729-.308-1.729-1.324v-.456h-1.284c-.363 1.107-1.273 1.643-4.089 1.906-.081-.308-.362-.777-.596-1.039 2.231-.103 2.956-.33 3.271-.867h-1.484v-3.823h7.393v3.823h-1.869v.445c0 .285.094.32.561.32h1.414v-.001zm-3.831-4.93h-4.87V9.603h4.777v.777h-1.682v.388h1.449v.25a3.994 3.994 0 0 0 1.32-1.745l1.191.182a5.357 5.357 0 0 1-.164.388h3.224v.845h-3.691c-.07.114-.152.216-.234.32h3.399v.741h-3.598v-.502a5.603 5.603 0 0 1-.607.57 4.218 4.218 0 0 0-.84-.718v1.53h-1.449v.467h1.775v.753zm-3.691-3.47v.389h.83v-.388h-.83zm2.196 1.108h-2.196v.434h2.196v-.434zm-2.196 1.61h.83v-.469h-.83v.468zm1.343 2.156h4.696v-.365h-4.696v.365zm0 1.027h4.696v-.365h-4.696v.365zm0 1.04h4.696v-.377h-4.696v.376zm2.78-5.262h4.636v1.815h-4.636v-1.815zm.922 1.198h.444v-.582h-.444v.582zm1.121 0h.48v-.582h-.48v.582zm1.157 0h.467v-.582h-.467v.582zM195.328 9.592c-.059.069-.117.149-.176.217 1.074.913 2.99 1.7 4.847 2.054-.291.24-.689.72-.875 1.04-.234-.058-.48-.138-.724-.207v2.944h-8.118v-2.875c-.245.08-.49.16-.724.216-.14-.25-.514-.799-.748-1.05 2.15-.49 4.229-1.437 5.292-2.761l1.226.422zm2.651 2.956a13.097 13.097 0 0 1-1.588-.696v.296h-4.099v-.228a14.24 14.24 0 0 1-1.414.627h7.101v.001zm-7.042 3.47h6.868v3.856h-1.425V19.6h-4.076v.308h-1.367v-3.89zm1.32-1.199a4.46 4.46 0 0 0-.398-1.187l.9-.25h-1.32v1.437h.818zm.047 2.089v.456h4.076v-.456h-4.076zm4.076 1.802v-.456h-4.076v.456h4.076zm-2.652-5.329h-.91a5.1 5.1 0 0 1 .467 1.21l-.748.228h1.191v-1.438zm1.682-2.11c-.35-.24-.689-.492-.981-.742-.303.25-.642.502-.992.741h1.973zm-.561 2.11v1.438h1.087l-.701-.194c.163-.342.35-.867.455-1.244h-.841zm2.313 0h-1.215l.91.217c-.233.456-.455.901-.642 1.221h.947v-1.438z" fill="#595757"/>
        <path d="m6.17.8 3.508 8.368a1.26 1.26 0 0 1 0 .976l-3.508 8.37c-.203.483-.684.799-1.22.799H1.317C.59 19.313 0 18.737 0 18.026V1.287C0 .577.59 0 1.317 0H4.95a1.32 1.32 0 0 1 1.22.8zM13.596.8l-3.509 8.368a1.26 1.26 0 0 0 0 .976l3.509 8.37c.202.483.684.799 1.22.799h3.632c.728 0 1.318-.576 1.318-1.287V1.287c0-.71-.59-1.287-1.318-1.287h-3.633a1.32 1.32 0 0 0-1.22.8z" fill="#EE7836"/>
        <path d="M64.501 0h-2.734c-.334 0-.657.124-.9.349l-2.712 2.485c-.842.77-2.219.188-2.219-.939v-.609c0-.71-.59-1.287-1.317-1.287h-7.248c-.728 0-1.318.576-1.318 1.287v16.739c0 .711.59 1.287 1.318 1.287h6.346c.463 0 .892-.238 1.13-.626L65.413 3.203c.267-.434.408-.931.408-1.438v-.48c0-.71-.59-1.287-1.318-1.287V0zM62.014 10.847l-2.81 4.103a.523.523 0 0 0-.09.295v3.538c0 .292.242.53.542.53h5.62c.299 0 .542-.238.542-.53v-3.538a.522.522 0 0 0-.091-.295l-2.81-4.103a.55.55 0 0 0-.903 0z" fill="#FF17D4"/>
        <path d="M87.528 19.313h-2.734c-.335 0-.657-.125-.902-.349l-2.71-2.484c-.842-.772-2.22-.189-2.22.939v.607c0 .71-.59 1.287-1.317 1.287h-7.248c-.728 0-1.317-.576-1.317-1.287V1.287c0-.71.59-1.287 1.317-1.287h6.618c.464 0 .893.238 1.131.626l10.292 15.483c.267.434.407.931.407 1.438v.479c0 .71-.59 1.287-1.317 1.287zM85.508 6.522c1.843 0 3.338-1.46 3.338-3.261C88.846 1.46 87.35 0 85.508 0s-3.337 1.46-3.337 3.26c0 1.802 1.494 3.262 3.337 3.262z" fill="#9100B9"/>
        <path d="m112.114 16.061-2.385-3.997-4.412-7.396-2.502-4.193a.992.992 0 0 0-1.694 0l-9.525 15.971a1.632 1.632 0 0 0 .326 2.082c.563.48 1.405.784 2.347.784.941 0 1.7-.276 2.261-.715a.5.5 0 0 1 .612 0c.56.44 1.366.715 2.261.715.896 0 1.701-.276 2.262-.715a.501.501 0 0 1 .612 0c.561.44 1.365.715 2.261.715.895 0 1.7-.276 2.261-.715a.501.501 0 0 1 .612 0c.561.44 1.366.715 2.262.715 1.082 0 2.034-.403 2.58-1.01a1.485 1.485 0 0 0 .151-1.756l-.289-.485h-.001z" fill="#0A43E5"/>
        <path d="m112.114 16.061-2.385-3.997-4.412-7.396-2.502-4.193a.992.992 0 0 0-1.694 0l-9.525 15.971a1.632 1.632 0 0 0 .326 2.082c.563.48 1.405.784 2.347.784.941 0 1.7-.276 2.261-.715a.5.5 0 0 1 .612 0c.56.44 1.366.715 2.261.715.896 0 1.701-.276 2.262-.715a.501.501 0 0 1 .612 0c.561.44 1.365.715 2.261.715.895 0 1.7-.276 2.261-.715a.501.501 0 0 1 .612 0c.561.44 1.366.715 2.262.715 1.082 0 2.034-.403 2.58-1.01a1.485 1.485 0 0 0 .151-1.756l-.289-.485h-.001z" fill="#000" fill-opacity=".2"/>
        <path d="M32.064.477 21.78 17.882c-.376.636.094 1.432.845 1.432h6.365a.979.979 0 0 0 .846-.478l7.1-12.018a.934.934 0 0 0 0-.955L33.757.477a.989.989 0 0 0-1.692 0zM33.094 19.313h10.1c.751 0 1.22-.795.845-1.432l-5.05-8.546a.989.989 0 0 0-1.691 0l-5.05 8.546c-.376.636.094 1.432.845 1.432h.001z" fill="#6EB763"/>
    </g>
    <defs>
        <clipPath id="p39t4mh3ha">
            <path fill="#fff" d="M0 0h200v20H0z"/>
        </clipPath>
    </defs>
</svg>
