<svg width="240" height="64" viewBox="0 0 240 64" fill="none" xmlns="http://www.w3.org/2000/svg">
    <path d="M60 17.693V.24h2.633v15.187h7.91v2.267H60zM87.55 8.966c0 1.864-.342 3.466-1.024 4.807-.681 1.335-1.616 2.363-2.804 3.085-1.181.716-2.525 1.074-4.03 1.074-1.512 0-2.862-.358-4.05-1.074-1.18-.722-2.113-1.753-2.795-3.094-.681-1.34-1.022-2.94-1.022-4.798 0-1.864.34-3.463 1.022-4.798.682-1.341 1.614-2.37 2.796-3.086C76.83.361 78.18 0 79.69 0c1.506 0 2.85.36 4.031 1.082 1.188.716 2.123 1.745 2.804 3.086.682 1.335 1.023 2.934 1.023 4.798zm-2.609 0c0-1.42-.23-2.617-.69-3.588-.455-.977-1.08-1.716-1.875-2.216-.79-.506-1.685-.759-2.685-.759-1.005 0-1.903.253-2.693.759-.79.5-1.415 1.239-1.875 2.216-.455.971-.682 2.167-.682 3.588 0 1.42.227 2.62.682 3.597.46.971 1.085 1.71 1.875 2.215.79.5 1.688.75 2.693.75 1 0 1.895-.25 2.685-.75.795-.505 1.42-1.244 1.875-2.216.46-.977.69-2.176.69-3.596zM90.96 17.693h-2.796L94.445.24h3.043l6.281 17.454h-2.795L96.039 3.41h-.136L90.96 17.693zm.469-6.835h9.068v2.216h-9.069v-2.216zM111.461 17.693h-5.651V.24h5.83c1.71 0 3.179.35 4.406 1.048 1.227.693 2.167 1.69 2.821 2.991.659 1.296.988 2.85.988 4.662 0 1.819-.332 3.381-.997 4.688-.659 1.307-1.613 2.312-2.863 3.017-1.25.699-2.762 1.048-4.534 1.048zm-3.017-2.301h2.872c1.329 0 2.434-.25 3.315-.75.881-.506 1.54-1.236 1.977-2.19.438-.96.657-2.131.657-3.512 0-1.369-.219-2.53-.657-3.485-.432-.955-1.076-1.68-1.934-2.174-.858-.494-1.924-.741-3.196-.741h-3.034v12.852zM125.284.239v17.454h-2.634V.24h2.634zM142.727.239v17.454h-2.42l-8.872-12.8h-.162v12.8h-2.634V.24h2.438l8.88 12.818h.162V.239h2.608zM157.901 5.753a5.316 5.316 0 0 0-.665-1.39 4.229 4.229 0 0 0-2.284-1.73 5.24 5.24 0 0 0-1.593-.23c-.983 0-1.87.253-2.659.759-.79.506-1.415 1.247-1.875 2.224-.455.972-.682 2.162-.682 3.571 0 1.415.23 2.611.69 3.588.46.978 1.091 1.72 1.892 2.225.801.506 1.713.758 2.736.758.949 0 1.775-.193 2.48-.58a4.038 4.038 0 0 0 1.645-1.636c.392-.71.588-1.545.588-2.505l.682.128h-4.995V8.76h6.861v1.986c0 1.466-.312 2.739-.937 3.818a6.392 6.392 0 0 1-2.574 2.489c-1.091.585-2.341.878-3.75.878-1.58 0-2.966-.364-4.159-1.091-1.188-.727-2.114-1.759-2.779-3.094-.664-1.34-.997-2.932-.997-4.773 0-1.392.193-2.642.58-3.75.386-1.108.929-2.048 1.628-2.82a7.1 7.1 0 0 1 2.48-1.782c.954-.415 1.997-.622 3.128-.622.943 0 1.821.14 2.633.418a7.1 7.1 0 0 1 2.182 1.184 6.718 6.718 0 0 1 2.446 4.15h-2.702zM165.06 17.855c-.466 0-.867-.165-1.202-.494a1.65 1.65 0 0 1-.503-1.21c0-.466.168-.864.503-1.194a1.64 1.64 0 0 1 1.202-.503c.466 0 .866.168 1.201.503.336.33.503.728.503 1.194 0 .312-.079.599-.238.86-.154.256-.358.46-.614.614-.256.153-.54.23-.852.23zM171.377 17.855c-.466 0-.867-.165-1.202-.494a1.65 1.65 0 0 1-.503-1.21c0-.466.168-.864.503-1.194a1.64 1.64 0 0 1 1.202-.503c.466 0 .866.168 1.201.503.336.33.503.728.503 1.194 0 .312-.079.599-.238.86-.154.256-.358.46-.614.614-.256.153-.54.23-.852.23zM177.693 17.855c-.465 0-.866-.165-1.201-.494a1.65 1.65 0 0 1-.503-1.21c0-.466.168-.864.503-1.194a1.64 1.64 0 0 1 1.201-.503c.466 0 .867.168 1.202.503.335.33.503.728.503 1.194 0 .312-.08.599-.239.86-.153.256-.358.46-.613.614-.256.153-.54.23-.853.23z" fill="#fff"/>
    <rect x="1.5" y="33.5" width="237" height="29" rx="14.5" stroke="#fff" stroke-width="3"/>
    <path d="M6 48c0-5.523 4.44-10 9.917-10h132.916c.645 0 1.167.527 1.167 1.176v17.648c0 .65-.522 1.176-1.167 1.176H15.917C10.44 58 6 53.523 6 48z" fill="#EE7836"/>
    <path d="M6 48c0-5.523 4.44-10 9.917-10h132.916c.645 0 1.167.527 1.167 1.176v17.648c0 .65-.522 1.176-1.167 1.176H15.917C10.44 58 6 53.523 6 48z" fill="url(#rv5ii6rdka)" fill-opacity=".2"/>
    <defs>
        <radialGradient id="rv5ii6rdka" cx="0" cy="0" r="1" gradientUnits="userSpaceOnUse" gradientTransform="rotate(79.203 9.023 57.666) scale(20.3605 124.02)">
            <stop stop-color="#491A00"/>
            <stop offset="1" stop-color="#7E2E00" stop-opacity="0"/>
        </radialGradient>
    </defs>
</svg>
