<svg width="190" height="33" viewBox="0 0 190 33" fill="none" xmlns="http://www.w3.org/2000/svg">
    <g opacity=".2" stroke="#6EB763" stroke-width="1.2" stroke-miterlimit="10" stroke-linecap="round">
        <path d="M192.24 37.273 105.789 1.988a13.349 13.349 0 0 0-10.082 0L9.26 37.273A13.255 13.255 0 0 0 1 49.536V86.07c0 7.32 5.955 13.254 13.301 13.254h172.898c7.346 0 13.301-5.934 13.301-13.254V49.536a13.25 13.25 0 0 0-8.26-12.263z"/>
        <path d="M179.79 95.761c6.715 0 12.159-5.503 12.159-12.29V49.583c0-4.987-2.984-9.485-7.551-11.376L105.36 5.48a12.035 12.035 0 0 0-9.218 0l-79.04 32.728c-4.568 1.891-7.552 6.385-7.552 11.376V83.47c0 6.788 5.443 12.291 12.159 12.291H179.79z"/>
        <path d="M173.662 91.489c6.166 0 11.163-4.987 11.163-11.14V49.64c0-4.522-2.74-8.593-6.932-10.308l-72.557-29.66a11.172 11.172 0 0 0-8.463 0L24.32 39.332a11.142 11.142 0 0 0-6.932 10.308v30.708c0 6.154 4.996 11.14 11.163 11.14h145.111z"/>
        <path d="M166.919 87.923c5.561 0 10.068-4.556 10.068-10.178V49.683c0-4.13-2.469-7.852-6.253-9.42L105.278 13.16a9.984 9.984 0 0 0-7.635 0L32.19 40.266c-3.783 1.565-6.252 5.287-6.252 9.42V77.75c0 5.622 4.507 10.177 10.068 10.177h130.909l.004-.003z"/>
        <path d="M159.412 82.937c4.983 0 9.025-4 9.025-8.931V49.385c0-3.625-2.214-6.89-5.603-8.264L104.17 17.342a9.11 9.11 0 0 0-6.84 0L38.666 41.121c-3.39 1.374-5.603 4.639-5.603 8.264v24.621c0 4.931 4.042 8.931 9.025 8.931h117.324z"/>
        <path d="M152.621 79.373c4.408 0 7.978-3.526 7.978-7.873V49.792c0-3.195-1.958-6.076-4.954-7.288l-51.871-20.966a8.068 8.068 0 0 0-6.05 0l-51.87 20.966c-2.996 1.212-4.955 4.09-4.955 7.288V71.5c0 4.35 3.574 7.873 7.979 7.873H152.621z"/>
        <path d="M145.875 75.811c3.804 0 6.888-3.096 6.888-6.915v-19.06a6.916 6.916 0 0 0-4.276-6.399l-44.77-18.41a6.877 6.877 0 0 0-5.221 0l-44.77 18.41a6.91 6.91 0 0 0-4.276 6.398v19.061c0 3.819 3.084 6.915 6.888 6.915h89.537z"/>
        <path d="M139.081 71.538c3.225 0 5.844-2.579 5.844-5.763V49.891c0-2.337-1.433-4.443-3.629-5.332l-37.975-15.34a5.926 5.926 0 0 0-4.43 0l-37.975 15.34c-2.193.885-3.629 2.991-3.629 5.332v15.884c0 3.18 2.616 5.763 5.844 5.763h75.95z"/>
        <path d="M132.243 67.976c2.676 0 4.844-2.149 4.844-4.801V49.937a4.8 4.8 0 0 0-3.009-4.442L102.587 32.71a4.885 4.885 0 0 0-3.675 0l-31.49 12.785a4.8 4.8 0 0 0-3.01 4.442v13.238c0 2.652 2.168 4.801 4.845 4.801h62.986z"/>
    </g>
</svg>
