<svg width="13" height="17" viewBox="0 0 13 17" fill="none" xmlns="http://www.w3.org/2000/svg">
    <path d="M6.405 16.52c.493 0 .901-.103 1.223-.308.323-.204.5-.475.535-.813H4.655c.03.338.202.609.52.813.322.205.732.307 1.23.307zm-2.307-1.663H8.72c.18 0 .334-.065.461-.193a.624.624 0 0 0 .198-.464.602.602 0 0 0-.198-.457.625.625 0 0 0-.461-.192H4.098a.634.634 0 0 0-.469.192.613.613 0 0 0-.19.457c0 .18.063.336.19.464a.633.633 0 0 0 .47.193zM3.871 13h5.076c.127 0 .23-.038.307-.114a.4.4 0 0 0 .118-.3v-1.056c0-.328.08-.638.241-.928.166-.295.371-.597.616-.906.244-.31.485-.645.725-1.006a5.65 5.65 0 0 0 .615-1.22c.166-.453.249-.974.249-1.563 0-.78-.13-1.49-.388-2.127a4.65 4.65 0 0 0-1.099-1.649 4.815 4.815 0 0 0-1.714-1.056C7.953.83 7.216.706 6.405.706c-.81 0-1.548.123-2.212.37a4.827 4.827 0 0 0-1.706 1.056A4.735 4.735 0 0 0 1.38 3.781C1.127 4.418 1 5.127 1 5.908c0 .59.08 1.11.242 1.562.166.452.37.86.615 1.22.244.362.486.698.725 1.007.244.31.45.611.615.906.166.29.25.6.25.928v1.056c0 .124.036.224.11.3A.432.432 0 0 0 3.87 13zm.703-.45v-1.02c0-.41-.083-.783-.249-1.12a6.307 6.307 0 0 0-.608-1c-.239-.323-.48-.656-.725-.999a5.561 5.561 0 0 1-.615-1.12 3.753 3.753 0 0 1-.242-1.384c0-.819.178-1.535.535-2.149a3.662 3.662 0 0 1 1.494-1.434c.64-.338 1.387-.507 2.241-.507.86 0 1.607.17 2.241.507.64.338 1.138.816 1.495 1.434.356.614.534 1.33.534 2.149 0 .513-.083.975-.249 1.384a5.308 5.308 0 0 1-.608 1.12c-.239.343-.48.676-.725 1-.239.323-.442.656-.608.999a2.569 2.569 0 0 0-.241 1.12v1.021l.637-.657H3.922l.652.657z" fill="#C14D97"/>
</svg>
