<svg width="99" height="99" viewBox="0 0 99 99" fill="none" xmlns="http://www.w3.org/2000/svg">
    <path d="M45.882 3a7.427 7.427 0 0 1 7.427 0L88.09 23.083a7.427 7.427 0 0 1 3.714 6.432v40.163a7.427 7.427 0 0 1-3.714 6.432L53.31 96.19a7.427 7.427 0 0 1-7.427 0L11.1 76.11a7.427 7.427 0 0 1-3.714-6.432V29.514a7.427 7.427 0 0 1 3.714-6.432L45.882 3.001z" fill="#9638BA"/>
    <path d="M45.882 3a7.427 7.427 0 0 1 7.427 0L88.09 23.083a7.427 7.427 0 0 1 3.714 6.432v40.163a7.427 7.427 0 0 1-3.714 6.432L53.31 96.19a7.427 7.427 0 0 1-7.427 0L11.1 76.11a7.427 7.427 0 0 1-3.714-6.432V29.514a7.427 7.427 0 0 1 3.714-6.432L45.882 3.001z" fill="#fff" fill-opacity=".7"/>
    <path d="M45.882 3a7.427 7.427 0 0 1 7.427 0L88.09 23.083a7.427 7.427 0 0 1 3.714 6.432v40.163a7.427 7.427 0 0 1-3.714 6.432L53.31 96.19a7.427 7.427 0 0 1-7.427 0L11.1 76.11a7.427 7.427 0 0 1-3.714-6.432V29.514a7.427 7.427 0 0 1 3.714-6.432L45.882 3.001z" fill="url(#h0j0reweba)" fill-opacity=".5"/>
    <path d="m75.12 29.767-21.115-12.19a8.82 8.82 0 0 0-8.82 0l-21.114 12.19a8.82 8.82 0 0 0-4.41 7.638v24.381a8.82 8.82 0 0 0 4.41 7.638l21.115 12.19a8.82 8.82 0 0 0 8.82 0l21.114-12.19a8.82 8.82 0 0 0 4.41-7.638v-24.38a8.82 8.82 0 0 0-4.41-7.639z" fill="#9638BA"/>
    <path d="m75.12 29.767-21.115-12.19a8.82 8.82 0 0 0-8.82 0l-21.114 12.19a8.82 8.82 0 0 0-4.41 7.638v24.381a8.82 8.82 0 0 0 4.41 7.638l21.115 12.19a8.82 8.82 0 0 0 8.82 0l21.114-12.19a8.82 8.82 0 0 0 4.41-7.638v-24.38a8.82 8.82 0 0 0-4.41-7.639z" fill="#fff" fill-opacity=".3"/>
    <path d="m75.12 29.767-21.115-12.19a8.82 8.82 0 0 0-8.82 0l-21.114 12.19a8.82 8.82 0 0 0-4.41 7.638v24.381a8.82 8.82 0 0 0 4.41 7.638l21.115 12.19a8.82 8.82 0 0 0 8.82 0l21.114-12.19a8.82 8.82 0 0 0 4.41-7.638v-24.38a8.82 8.82 0 0 0-4.41-7.639z" stroke="url(#2s1t1mmxbb)" stroke-width="2.785"/>
    <path d="M86.902 31.942a10.593 10.593 0 0 0-5.76 5.752.49.49 0 0 1-.899 0 10.599 10.599 0 0 0-5.749-5.752.488.488 0 0 1 0-.9 10.594 10.594 0 0 0 5.75-5.75.489.489 0 0 1 .899 0 10.597 10.597 0 0 0 5.749 5.75.488.488 0 0 1 .01.9zM50.111 46.107c6.15 0 8.497 2.94 8.497 6.624 0 3.714-2.852 7.308-9.507 7.308-2.852 0-5.971-.623-8.199-1.871l2.377-5.17a11.275 11.275 0 0 0 5.555 1.516c1.574 0 2.733-.565 2.733-1.634 0-.891-.624-1.485-3.15-1.485h-6.03l1.04-12.626h13.814v5.288h-8.05l-.15 2.05h1.07z" fill="#fff"/>
    <defs>
        <linearGradient id="h0j0reweba" x1="25.922" y1="16.175" x2="68.627" y2="88.122" gradientUnits="userSpaceOnUse">
            <stop stop-color="#fff"/>
            <stop offset="1" stop-color="#fff" stop-opacity="0"/>
        </linearGradient>
        <linearGradient id="2s1t1mmxbb" x1="49.596" y1="16.639" x2="49.596" y2="82.552" gradientUnits="userSpaceOnUse">
            <stop stop-color="#9543B4"/>
            <stop offset="1" stop-color="#fff"/>
        </linearGradient>
    </defs>
</svg>
