<svg width="335" height="58" viewBox="0 0 335 58" fill="none" xmlns="http://www.w3.org/2000/svg">
    <mask id="h1drp65cia" style="mask-type:alpha" maskUnits="userSpaceOnUse" x="0" y="-160" width="335" height="218">
        <rect y="-160" width="335" height="218" rx="12" fill="#fff"/>
    </mask>
    <g opacity=".2" stroke="#C14D97" stroke-width="1.2" stroke-miterlimit="10" stroke-linecap="round" mask="url(#h1drp65cia)">
        <path d="m405.24 58.273-86.451-35.285a13.35 13.35 0 0 0-10.082 0L222.26 58.273A13.256 13.256 0 0 0 214 70.536v36.534c0 7.32 5.955 13.254 13.301 13.254h172.898c7.346 0 13.301-5.934 13.301-13.254V70.536a13.25 13.25 0 0 0-8.26-12.263z"/>
        <path d="M392.79 116.761c6.716 0 12.159-5.503 12.159-12.291V70.585c0-4.988-2.984-9.486-7.551-11.377L318.36 26.48a12.036 12.036 0 0 0-9.218 0l-79.041 32.728c-4.567 1.891-7.551 6.385-7.551 11.377v33.885c0 6.788 5.444 12.291 12.159 12.291H392.79z"/>
        <path d="M386.662 112.489c6.166 0 11.163-4.987 11.163-11.141V70.64c0-4.522-2.74-8.593-6.932-10.308l-72.557-29.66a11.173 11.173 0 0 0-8.463 0l-72.553 29.66a11.142 11.142 0 0 0-6.932 10.308v30.708c0 6.154 4.996 11.141 11.163 11.141h145.111z"/>
        <path d="M379.919 108.923c5.561 0 10.068-4.556 10.068-10.178V70.683c0-4.13-2.469-7.852-6.253-9.42L318.278 34.16a9.984 9.984 0 0 0-7.635 0l-65.452 27.105c-3.784 1.565-6.253 5.287-6.253 9.42V98.75c0 5.622 4.507 10.177 10.068 10.177h130.909l.004-.003z"/>
        <path d="M372.412 103.937c4.983 0 9.025-4 9.025-8.931V70.385c0-3.625-2.214-6.89-5.603-8.264L317.17 38.342a9.11 9.11 0 0 0-6.84 0l-58.664 23.779c-3.39 1.374-5.604 4.639-5.604 8.264v24.621c0 4.931 4.043 8.931 9.026 8.931h117.324z"/>
        <path d="M365.621 100.373c4.408 0 7.978-3.526 7.978-7.873V70.792c0-3.195-1.958-6.076-4.954-7.288l-51.871-20.966a8.068 8.068 0 0 0-6.049 0l-51.872 20.966c-2.995 1.212-4.954 4.09-4.954 7.288V92.5c0 4.35 3.574 7.873 7.979 7.873H365.621z"/>
        <path d="M358.875 96.811c3.804 0 6.888-3.096 6.888-6.915v-19.06a6.916 6.916 0 0 0-4.276-6.399l-44.77-18.41a6.876 6.876 0 0 0-5.221 0l-44.771 18.41a6.91 6.91 0 0 0-4.275 6.398v19.061c0 3.819 3.084 6.915 6.888 6.915h89.537z"/>
        <path d="M352.081 92.538c3.225 0 5.844-2.579 5.844-5.763V70.891c0-2.337-1.433-4.443-3.629-5.333l-37.975-15.34a5.926 5.926 0 0 0-4.43 0l-37.975 15.34c-2.193.886-3.629 2.992-3.629 5.333v15.884c0 3.18 2.615 5.763 5.844 5.763h75.95z"/>
        <path d="M345.243 88.976c2.676 0 4.844-2.149 4.844-4.801V70.937a4.8 4.8 0 0 0-3.009-4.442L315.587 53.71a4.885 4.885 0 0 0-3.675 0l-31.491 12.785a4.8 4.8 0 0 0-3.009 4.442v13.238c0 2.652 2.168 4.801 4.845 4.801h62.986z"/>
        <path d="M337.83 84.7c2.046 0 3.707-1.633 3.707-3.65V70.99c0-1.48-.91-2.815-2.301-3.377l-24.083-9.716a3.738 3.738 0 0 0-2.807 0l-24.083 9.715a3.65 3.65 0 0 0-2.301 3.378v10.058c0 2.015 1.657 3.65 3.706 3.65h48.166-.004z"/>
    </g>
</svg>
