<svg width="60" height="60" viewBox="0 0 60 60" fill="none" xmlns="http://www.w3.org/2000/svg">
    <circle cx="30" cy="30" r="30" fill="#0A43E5"/>
    <circle cx="30" cy="30" r="30" fill="#000" fill-opacity=".2"/>
    <path d="m44 23.115-13.222 7.389v15.48c2.442-1.375 9.924-5.63 12.413-7.037.498-.287.809-.831.809-1.423V23.115zm-14.778 7.389L16 22.955v14.41c0 .591.311 1.135.793 1.423 2.474 1.439 9.987 5.789 12.43 7.212V30.504zM16.653 21.5 30 29.112l13.487-7.532s-10.314-5.98-12.725-7.372A1.443 1.443 0 0 0 30 14c-.264 0-.529.064-.762.208-2.411 1.391-12.585 7.292-12.585 7.292z" fill="#fff"/>
    <mask id="jwyh070yma" maskUnits="userSpaceOnUse" x="18" y="39" width="24" height="15" fill="#000">
        <path fill="#fff" d="M18 39h24v15H18z"/>
        <path fill-rule="evenodd" clip-rule="evenodd" d="M23.425 49.95h3.577l.636 2.05h2.814l-4.01-11h-2.457L20 52h2.8l.625-2.05zm2.953-2.05h-2.33l1.159-3.818 1.171 3.817zm7.499.206h1.413L37.212 52h2.8v-.116l-2.265-4.436c.649-.31 1.133-.71 1.438-1.225.306-.516.459-1.148.459-1.909 0-1.057-.37-1.87-1.095-2.45-.726-.58-1.732-.864-3.017-.864h-4.278v11h2.623v-3.895zm1.655-2.038h-1.655v-3.03h1.655c.496 0 .865.129 1.12.4.255.27.382.644.382 1.121s-.127.838-.382 1.11c-.255.27-.624.399-1.12.399z"/>
    </mask>
    <path fill-rule="evenodd" clip-rule="evenodd" d="M23.425 49.95h3.577l.636 2.05h2.814l-4.01-11h-2.457L20 52h2.8l.625-2.05zm2.953-2.05h-2.33l1.159-3.818 1.171 3.817zm7.499.206h1.413L37.212 52h2.8v-.116l-2.265-4.436c.649-.31 1.133-.71 1.438-1.225.306-.516.459-1.148.459-1.909 0-1.057-.37-1.87-1.095-2.45-.726-.58-1.732-.864-3.017-.864h-4.278v11h2.623v-3.895zm1.655-2.038h-1.655v-3.03h1.655c.496 0 .865.129 1.12.4.255.27.382.644.382 1.121s-.127.838-.382 1.11c-.255.27-.624.399-1.12.399z" fill="#fff"/>
    <path d="m27.002 49.95 1.433-.445a1.5 1.5 0 0 0-1.433-1.055v1.5zm-3.577 0v-1.5a1.5 1.5 0 0 0-1.436 1.063l1.436.437zM27.638 52l-1.432.445a1.5 1.5 0 0 0 1.432 1.055V52zm2.814 0v1.5a1.5 1.5 0 0 0 1.41-2.014l-1.41.514zm-4.01-11 1.409-.514a1.5 1.5 0 0 0-1.41-.986V41zm-2.457 0v-1.5a1.5 1.5 0 0 0-1.41.99l1.41.51zM20 52l-1.41-.51A1.5 1.5 0 0 0 20 53.5V52zm2.8 0v1.5a1.5 1.5 0 0 0 1.436-1.063L22.8 52zm1.248-4.1-1.435-.436a1.5 1.5 0 0 0 1.435 1.935v-1.5zm2.33 0v1.5a1.5 1.5 0 0 0 1.434-1.94l-1.434.44zm-1.171-3.818 1.434-.44a1.5 1.5 0 0 0-2.87.004l1.436.436zm10.083 4.023 1.345-.663a1.5 1.5 0 0 0-1.345-.837v1.5zm-1.413 0v-1.5a1.5 1.5 0 0 0-1.5 1.5h1.5zM37.212 52l-1.345.664a1.5 1.5 0 0 0 1.345.836V52zm2.8 0v1.5a1.5 1.5 0 0 0 1.5-1.5h-1.5zm0-.116h1.5a1.5 1.5 0 0 0-.163-.682l-1.336.682zm-2.265-4.436-.646-1.354a1.5 1.5 0 0 0-.69 2.036l1.336-.682zm1.438-1.225-1.29-.765 1.29.765zm-.636-4.359-.937 1.172.937-1.172zM31.254 41v-1.5a1.5 1.5 0 0 0-1.5 1.5h1.5zm0 11h-1.5a1.5 1.5 0 0 0 1.5 1.5V52zm2.623 0v1.5a1.5 1.5 0 0 0 1.5-1.5h-1.5zm0-5.932h-1.5a1.5 1.5 0 0 0 1.5 1.5v-1.5zm0-3.03v-1.5a1.5 1.5 0 0 0-1.5 1.5h1.5zm2.775.4-1.093 1.027 1.093-1.028zm0 2.23-1.093-1.027 1.093 1.027zm-9.65 2.782h-3.577v3h3.577v-3zm2.069 3.105-.637-2.05-2.865.89.637 2.05 2.865-.89zm1.38-1.055h-2.813v3h2.814v-3zm-5.419-8.986 4.01 11 2.82-1.028-4.011-11-2.819 1.028zm-1.047.986h2.457v-3h-2.457v3zM21.41 52.51l3.985-11-2.82-1.02-3.985 11 2.82 1.02zm1.39-2.01H20v3h2.8v-3zm-.81-.987-.624 2.05 2.87.874.624-2.05-2.87-.874zm2.058-.114h2.33v-3h-2.33v3zm-.276-5.753-1.159 3.818 2.87.87 1.16-3.816-2.872-.872zm4.04 3.813-1.171-3.817-2.868.88 1.171 3.817 2.868-.88zm7.478-.854h-1.413v3h1.413v-3zm3.267 4.731-1.922-3.894-2.69 1.327 1.922 3.895 2.69-1.328zm1.456-.836h-2.801v3h2.8v-3zm-1.5 1.384V52h3v-.116h-3zM36.41 48.13l2.266 4.436 2.672-1.364-2.266-4.436-2.672 1.364zm1.484-2.672c-.116.195-.336.417-.794.636l1.291 2.708c.84-.4 1.588-.978 2.084-1.815l-2.581-1.529zm.249-1.144c0 .56-.112.913-.25 1.144l2.582 1.53c.474-.8.668-1.713.668-2.674h-3zm-.532-1.279c.325.26.532.618.532 1.28h3c0-1.454-.532-2.722-1.658-3.622l-1.874 2.343zm-2.08-.535c1.081 0 1.71.24 2.08.535l1.874-2.342c-1.082-.865-2.464-1.193-3.954-1.193v3zm-4.278 0h4.278v-3h-4.278v3zm1.5 9.5V41h-3v11h3zm1.123-1.5h-2.623v3h2.623v-3zm-1.5-2.395V52h3v-3.895h-3zm1.5-.537h1.655v-3h-1.655v3zm-1.5-4.53v3.03h3v-3.03h-3zm3.155-1.5h-1.655v3h1.655v-3zm2.213.872c-.63-.67-1.46-.872-2.213-.872v3c.06 0 .1.003.125.007.025.004.03.007.024.004a.377.377 0 0 1-.122-.085l2.186-2.054zm.789 2.15c0-.747-.205-1.529-.79-2.15l-2.185 2.055a.232.232 0 0 1-.03-.04l-.01-.02a.535.535 0 0 1 .015.154h3zm-.79 2.136c.578-.614.79-1.377.79-2.137h-3c0 .107-.015.146-.013.141l.012-.025a.207.207 0 0 1 .026-.034l2.186 2.055zm-2.212.872c.753 0 1.582-.202 2.213-.872l-2.186-2.055a.378.378 0 0 1 .122-.085l-.024.004a.85.85 0 0 1-.125.008v3z" fill="#0A43E5" mask="url(#jwyh070yma)"/>
    <path d="m27.002 49.95 1.433-.445a1.5 1.5 0 0 0-1.433-1.055v1.5zm-3.577 0v-1.5a1.5 1.5 0 0 0-1.436 1.063l1.436.437zM27.638 52l-1.432.445a1.5 1.5 0 0 0 1.432 1.055V52zm2.814 0v1.5a1.5 1.5 0 0 0 1.41-2.014l-1.41.514zm-4.01-11 1.409-.514a1.5 1.5 0 0 0-1.41-.986V41zm-2.457 0v-1.5a1.5 1.5 0 0 0-1.41.99l1.41.51zM20 52l-1.41-.51A1.5 1.5 0 0 0 20 53.5V52zm2.8 0v1.5a1.5 1.5 0 0 0 1.436-1.063L22.8 52zm1.248-4.1-1.435-.436a1.5 1.5 0 0 0 1.435 1.935v-1.5zm2.33 0v1.5a1.5 1.5 0 0 0 1.434-1.94l-1.434.44zm-1.171-3.818 1.434-.44a1.5 1.5 0 0 0-2.87.004l1.436.436zm10.083 4.023 1.345-.663a1.5 1.5 0 0 0-1.345-.837v1.5zm-1.413 0v-1.5a1.5 1.5 0 0 0-1.5 1.5h1.5zM37.212 52l-1.345.664a1.5 1.5 0 0 0 1.345.836V52zm2.8 0v1.5a1.5 1.5 0 0 0 1.5-1.5h-1.5zm0-.116h1.5a1.5 1.5 0 0 0-.163-.682l-1.336.682zm-2.265-4.436-.646-1.354a1.5 1.5 0 0 0-.69 2.036l1.336-.682zm1.438-1.225-1.29-.765 1.29.765zm-.636-4.359-.937 1.172.937-1.172zM31.254 41v-1.5a1.5 1.5 0 0 0-1.5 1.5h1.5zm0 11h-1.5a1.5 1.5 0 0 0 1.5 1.5V52zm2.623 0v1.5a1.5 1.5 0 0 0 1.5-1.5h-1.5zm0-5.932h-1.5a1.5 1.5 0 0 0 1.5 1.5v-1.5zm0-3.03v-1.5a1.5 1.5 0 0 0-1.5 1.5h1.5zm2.775.4-1.093 1.027 1.093-1.028zm0 2.23-1.093-1.027 1.093 1.027zm-9.65 2.782h-3.577v3h3.577v-3zm2.069 3.105-.637-2.05-2.865.89.637 2.05 2.865-.89zm1.38-1.055h-2.813v3h2.814v-3zm-5.419-8.986 4.01 11 2.82-1.028-4.011-11-2.819 1.028zm-1.047.986h2.457v-3h-2.457v3zM21.41 52.51l3.985-11-2.82-1.02-3.985 11 2.82 1.02zm1.39-2.01H20v3h2.8v-3zm-.81-.987-.624 2.05 2.87.874.624-2.05-2.87-.874zm2.058-.114h2.33v-3h-2.33v3zm-.276-5.753-1.159 3.818 2.87.87 1.16-3.816-2.872-.872zm4.04 3.813-1.171-3.817-2.868.88 1.171 3.817 2.868-.88zm7.478-.854h-1.413v3h1.413v-3zm3.267 4.731-1.922-3.894-2.69 1.327 1.922 3.895 2.69-1.328zm1.456-.836h-2.801v3h2.8v-3zm-1.5 1.384V52h3v-.116h-3zM36.41 48.13l2.266 4.436 2.672-1.364-2.266-4.436-2.672 1.364zm1.484-2.672c-.116.195-.336.417-.794.636l1.291 2.708c.84-.4 1.588-.978 2.084-1.815l-2.581-1.529zm.249-1.144c0 .56-.112.913-.25 1.144l2.582 1.53c.474-.8.668-1.713.668-2.674h-3zm-.532-1.279c.325.26.532.618.532 1.28h3c0-1.454-.532-2.722-1.658-3.622l-1.874 2.343zm-2.08-.535c1.081 0 1.71.24 2.08.535l1.874-2.342c-1.082-.865-2.464-1.193-3.954-1.193v3zm-4.278 0h4.278v-3h-4.278v3zm1.5 9.5V41h-3v11h3zm1.123-1.5h-2.623v3h2.623v-3zm-1.5-2.395V52h3v-3.895h-3zm1.5-.537h1.655v-3h-1.655v3zm-1.5-4.53v3.03h3v-3.03h-3zm3.155-1.5h-1.655v3h1.655v-3zm2.213.872c-.63-.67-1.46-.872-2.213-.872v3c.06 0 .1.003.125.007.025.004.03.007.024.004a.377.377 0 0 1-.122-.085l2.186-2.054zm.789 2.15c0-.747-.205-1.529-.79-2.15l-2.185 2.055a.232.232 0 0 1-.03-.04l-.01-.02a.535.535 0 0 1 .015.154h3zm-.79 2.136c.578-.614.79-1.377.79-2.137h-3c0 .107-.015.146-.013.141l.012-.025a.207.207 0 0 1 .026-.034l2.186 2.055zm-2.212.872c.753 0 1.582-.202 2.213-.872l-2.186-2.055a.378.378 0 0 1 .122-.085l-.024.004a.85.85 0 0 1-.125.008v3z" fill="#000" fill-opacity=".2" mask="url(#jwyh070yma)"/>
    <path d="M39 12h9v9M21 12h-9v9M17 48h-5v-9M43 48h5v-9" stroke="#fff" stroke-width="2" stroke-linecap="round" stroke-linejoin="round"/>
</svg>
