<svg width="99" height="99" viewBox="0 0 99 99" fill="none" xmlns="http://www.w3.org/2000/svg">
    <path d="M45.882 3a7.427 7.427 0 0 1 7.427 0L88.09 23.083a7.427 7.427 0 0 1 3.714 6.432v40.163a7.427 7.427 0 0 1-3.714 6.432L53.31 96.19a7.427 7.427 0 0 1-7.427 0L11.1 76.11a7.427 7.427 0 0 1-3.714-6.432V29.514a7.427 7.427 0 0 1 3.714-6.432L45.882 3.001z" fill="#9638BA"/>
    <path d="M45.882 3a7.427 7.427 0 0 1 7.427 0L88.09 23.083a7.427 7.427 0 0 1 3.714 6.432v40.163a7.427 7.427 0 0 1-3.714 6.432L53.31 96.19a7.427 7.427 0 0 1-7.427 0L11.1 76.11a7.427 7.427 0 0 1-3.714-6.432V29.514a7.427 7.427 0 0 1 3.714-6.432L45.882 3.001z" fill="#fff" fill-opacity=".7"/>
    <path d="M45.882 3a7.427 7.427 0 0 1 7.427 0L88.09 23.083a7.427 7.427 0 0 1 3.714 6.432v40.163a7.427 7.427 0 0 1-3.714 6.432L53.31 96.19a7.427 7.427 0 0 1-7.427 0L11.1 76.11a7.427 7.427 0 0 1-3.714-6.432V29.514a7.427 7.427 0 0 1 3.714-6.432L45.882 3.001z" fill="url(#p6xbdjryfa)" fill-opacity=".5"/>
    <path d="m75.12 29.767-21.115-12.19a8.82 8.82 0 0 0-8.82 0l-21.114 12.19a8.82 8.82 0 0 0-4.41 7.638v24.381a8.82 8.82 0 0 0 4.41 7.638l21.115 12.19a8.82 8.82 0 0 0 8.82 0l21.114-12.19a8.82 8.82 0 0 0 4.41-7.638v-24.38a8.82 8.82 0 0 0-4.41-7.639z" fill="#9638BA"/>
    <path d="m75.12 29.767-21.115-12.19a8.82 8.82 0 0 0-8.82 0l-21.114 12.19a8.82 8.82 0 0 0-4.41 7.638v24.381a8.82 8.82 0 0 0 4.41 7.638l21.115 12.19a8.82 8.82 0 0 0 8.82 0l21.114-12.19a8.82 8.82 0 0 0 4.41-7.638v-24.38a8.82 8.82 0 0 0-4.41-7.639z" fill="#fff" fill-opacity=".3"/>
    <path d="m75.12 29.767-21.115-12.19a8.82 8.82 0 0 0-8.82 0l-21.114 12.19a8.82 8.82 0 0 0-4.41 7.638v24.381a8.82 8.82 0 0 0 4.41 7.638l21.115 12.19a8.82 8.82 0 0 0 8.82 0l21.114-12.19a8.82 8.82 0 0 0 4.41-7.638v-24.38a8.82 8.82 0 0 0-4.41-7.639z" stroke="url(#ycspj8mzyb)" stroke-width="2.785"/>
    <path d="M86.902 31.942a10.593 10.593 0 0 0-5.76 5.752.49.49 0 0 1-.899 0 10.599 10.599 0 0 0-5.749-5.752.488.488 0 0 1 0-.9 10.594 10.594 0 0 0 5.75-5.75.489.489 0 0 1 .899 0 10.597 10.597 0 0 0 5.749 5.75.488.488 0 0 1 .01.9zM56.49 48.602c1.752 1.07 2.792 2.704 2.792 4.783 0 4.04-3.832 6.654-9.328 6.654-5.496 0-9.328-2.614-9.328-6.654 0-2.08 1.04-3.713 2.792-4.783-1.277-1.01-2.05-2.376-2.05-4.1 0-3.772 3.536-6.208 8.586-6.208 5.05 0 8.585 2.436 8.585 6.209 0 1.723-.772 3.09-2.05 4.1zm-6.536-5.585c-.95 0-1.664.654-1.664 1.783s.713 1.782 1.664 1.782c.95 0 1.663-.654 1.663-1.782 0-1.13-.712-1.783-1.663-1.783zm0 12.299c1.337 0 2.287-.832 2.287-2.169 0-1.336-.95-2.168-2.287-2.168s-2.288.832-2.288 2.168c0 1.337.951 2.169 2.288 2.169z" fill="#fff"/>
    <defs>
        <linearGradient id="p6xbdjryfa" x1="25.922" y1="16.175" x2="68.627" y2="88.122" gradientUnits="userSpaceOnUse">
            <stop stop-color="#fff"/>
            <stop offset="1" stop-color="#fff" stop-opacity="0"/>
        </linearGradient>
        <linearGradient id="ycspj8mzyb" x1="49.596" y1="16.639" x2="49.596" y2="82.552" gradientUnits="userSpaceOnUse">
            <stop stop-color="#9543B4"/>
            <stop offset="1" stop-color="#fff"/>
        </linearGradient>
    </defs>
</svg>
