<svg width="74" height="74" viewBox="0 0 74 74" fill="none" xmlns="http://www.w3.org/2000/svg">
    <circle cx="37" cy="37" r="35.5" fill="#74318E" stroke="#74318E" stroke-width="3"/>
    <g clip-path="url(#p2hl2k6sia)">
        <path d="M33.388 28.362c.025-.7-.243-1.45-.486-2.212-.613-1.9.55-3.725 2.607-4.1a3.196 3.196 0 0 1 1.418.062c3.399.95 6.555 2.338 9.162 4.738.69.625 1.214 1.4 1.814 2.112.205.238.447.388.78.488 4.459 1.262 8.28 3.475 11.295 6.875 1.342 1.512 1.355 2.95.026 4.462-3.36 3.813-7.68 6.113-12.727 7.238-.37.087-.715.25-1.01.512-.996.888-2.006 1.75-3.028 2.613-1.89 1.612-4.715.862-5.469-1.438 0-.012 0-.025-.012-.05-.039-1.075-.729-1.362-1.751-1.537-4.012-.713-7.615-2.338-10.746-4.838-.294-.237-.486-.275-.805 0-1.674 1.5-3.373 2.975-5.073 4.463-.945.837-2.134.987-3.143.4-1.048-.613-1.495-1.688-1.086-2.863a20.767 20.767 0 0 0 1.099-8.137 19.74 19.74 0 0 0-.997-5c-.204-.613-.358-1.225-.153-1.85.562-1.663 2.645-2.275 4.05-1.125 1.278 1.025 2.466 2.137 3.693 3.225.537.475 1.086.937 1.61 1.425a.463.463 0 0 0 .626.012c2.172-1.762 4.613-3.075 7.309-3.975 1.01-.337 1.01-.35.984-1.487l.013-.013z" fill="#fff"/>
        <path d="M46 32c-.478.428-3 2.778-3 6.5s2.522 6.06 3 6.5" stroke="#74318E" stroke-width="2.2" stroke-miterlimit="10" stroke-linecap="round"/>
        <circle cx="51.985" cy="37.375" r="2.25" fill="#74318E"/>
    </g>
    <defs>
        <clipPath id="p2hl2k6sia">
            <path fill="#fff" transform="translate(15 22)" d="M0 0h46v30H0z"/>
        </clipPath>
    </defs>
</svg>
