<svg width="99" height="99" viewBox="0 0 99 99" fill="none" xmlns="http://www.w3.org/2000/svg">
    <path d="M45.882 3a7.427 7.427 0 0 1 7.427 0L88.09 23.083a7.427 7.427 0 0 1 3.714 6.432v40.163a7.427 7.427 0 0 1-3.714 6.432L53.31 96.19a7.427 7.427 0 0 1-7.427 0L11.1 76.11a7.427 7.427 0 0 1-3.714-6.432V29.514a7.427 7.427 0 0 1 3.714-6.432L45.882 3.001z" fill="#9638BA"/>
    <path d="M45.882 3a7.427 7.427 0 0 1 7.427 0L88.09 23.083a7.427 7.427 0 0 1 3.714 6.432v40.163a7.427 7.427 0 0 1-3.714 6.432L53.31 96.19a7.427 7.427 0 0 1-7.427 0L11.1 76.11a7.427 7.427 0 0 1-3.714-6.432V29.514a7.427 7.427 0 0 1 3.714-6.432L45.882 3.001z" fill="#fff" fill-opacity=".7"/>
    <path d="M45.882 3a7.427 7.427 0 0 1 7.427 0L88.09 23.083a7.427 7.427 0 0 1 3.714 6.432v40.163a7.427 7.427 0 0 1-3.714 6.432L53.31 96.19a7.427 7.427 0 0 1-7.427 0L11.1 76.11a7.427 7.427 0 0 1-3.714-6.432V29.514a7.427 7.427 0 0 1 3.714-6.432L45.882 3.001z" fill="url(#w0prdy4apa)" fill-opacity=".5"/>
    <path d="m75.12 29.767-21.115-12.19a8.82 8.82 0 0 0-8.82 0l-21.114 12.19a8.82 8.82 0 0 0-4.41 7.638v24.381a8.82 8.82 0 0 0 4.41 7.638l21.115 12.19a8.82 8.82 0 0 0 8.82 0l21.114-12.19a8.82 8.82 0 0 0 4.41-7.638v-24.38a8.82 8.82 0 0 0-4.41-7.639z" fill="#9638BA"/>
    <path d="m75.12 29.767-21.115-12.19a8.82 8.82 0 0 0-8.82 0l-21.114 12.19a8.82 8.82 0 0 0-4.41 7.638v24.381a8.82 8.82 0 0 0 4.41 7.638l21.115 12.19a8.82 8.82 0 0 0 8.82 0l21.114-12.19a8.82 8.82 0 0 0 4.41-7.638v-24.38a8.82 8.82 0 0 0-4.41-7.639z" fill="#fff" fill-opacity=".3"/>
    <path d="m75.12 29.767-21.115-12.19a8.82 8.82 0 0 0-8.82 0l-21.114 12.19a8.82 8.82 0 0 0-4.41 7.638v24.381a8.82 8.82 0 0 0 4.41 7.638l21.115 12.19a8.82 8.82 0 0 0 8.82 0l21.114-12.19a8.82 8.82 0 0 0 4.41-7.638v-24.38a8.82 8.82 0 0 0-4.41-7.639z" stroke="url(#gdo9qyv1xb)" stroke-width="2.785"/>
    <path d="M86.902 31.942a10.593 10.593 0 0 0-5.76 5.752.49.49 0 0 1-.899 0 10.599 10.599 0 0 0-5.749-5.752.488.488 0 0 1 0-.9 10.594 10.594 0 0 0 5.75-5.75.489.489 0 0 1 .899 0 10.597 10.597 0 0 0 5.749 5.75.488.488 0 0 1 .01.9zM53.362 46.998c3.268.802 4.991 3.03 4.991 5.912 0 3.565-2.852 7.13-9.506 7.13-2.852 0-5.971-.624-8.2-1.872l2.377-5.17a11.381 11.381 0 0 0 5.585 1.516c1.575 0 2.704-.535 2.704-1.604 0-.891-.684-1.426-2.466-1.426h-2.763v-4.308l3.06-3.12h-7.427V38.77h15.508v4.308l-3.863 3.921z" fill="#fff"/>
    <defs>
        <linearGradient id="w0prdy4apa" x1="25.922" y1="16.175" x2="68.627" y2="88.122" gradientUnits="userSpaceOnUse">
            <stop stop-color="#fff"/>
            <stop offset="1" stop-color="#fff" stop-opacity="0"/>
        </linearGradient>
        <linearGradient id="gdo9qyv1xb" x1="49.596" y1="16.639" x2="49.596" y2="82.552" gradientUnits="userSpaceOnUse">
            <stop stop-color="#9543B4"/>
            <stop offset="1" stop-color="#fff"/>
        </linearGradient>
    </defs>
</svg>
