<svg width="60" height="60" viewBox="0 0 60 60" fill="none" xmlns="http://www.w3.org/2000/svg">
    <g opacity=".95" filter="url(#nlmxt41oba)">
        <circle cx="30" cy="28" r="24" fill="#fff"/>
    </g>
    <path d="M16.667 24.825 24.918 20v16.584l-8.251 4.825V24.825zM34.762 24.994l-9.651-4.825v16.894l9.65 4.825V24.994zM42 20.169l-7.237 4.825v16.889L42 37.058v-16.89z" stroke="#EE7836" stroke-width="1.5" stroke-linecap="round" stroke-linejoin="round"/>
    <path fill-rule="evenodd" clip-rule="evenodd" d="M38.755 12c-3.184 0-6.088 2.652-6.088 5.925 0 2.94 2.136 6.396 5.065 11.133l.169.273a1.007 1.007 0 0 0 1.71.001l.12-.194c2.96-4.777 5.112-8.252 5.112-11.213 0-3.278-2.889-5.925-6.088-5.925zm0 8.5c1.441 0 2.61-1.14 2.61-2.55 0-1.408-1.169-2.55-2.61-2.55-1.441 0-2.61 1.142-2.61 2.55 0 1.41 1.169 2.55 2.61 2.55z" fill="#fff"/>
    <path d="m37.732 29.058.638-.394-.638.394zm.169.273-.638.394.638-.394zm1.71.001-.637-.395.637.395zm.12-.194-.637-.395.637.395zm-6.314-11.213c0-2.825 2.534-5.175 5.338-5.175v-1.5c-3.565 0-6.838 2.955-6.838 6.675h1.5zm4.953 10.739c-1.47-2.379-2.715-4.394-3.596-6.178-.883-1.79-1.357-3.264-1.357-4.561h-1.5c0 1.642.594 3.366 1.512 5.225.92 1.862 2.207 3.944 3.665 6.303l1.276-.789zm.169.273-.17-.273-1.275.789.169.272 1.276-.788zm.434 0c-.099.16-.335.16-.434 0l-1.276.788a1.757 1.757 0 0 0 2.986.002l-1.276-.79zm.12-.194-.12.194 1.276.79.12-.194-1.275-.79zm5-10.818c0 1.307-.477 2.792-1.368 4.593-.889 1.797-2.145 3.826-3.631 6.225l1.275.79c1.473-2.379 2.773-4.475 3.7-6.35.926-1.871 1.524-3.605 1.524-5.258h-1.5zm-5.338-5.175c2.818 0 5.338 2.344 5.338 5.175h1.5c0-3.724-3.258-6.675-6.838-6.675v1.5zm1.86 5.2c0 .979-.817 1.8-1.86 1.8v1.5c1.839 0 3.36-1.46 3.36-3.3h-1.5zm-1.86-1.8c1.043 0 1.86.822 1.86 1.8h1.5c0-1.838-1.521-3.3-3.36-3.3v1.5zm-1.86 1.8c0-.978.817-1.8 1.86-1.8v-1.5c-1.839 0-3.36 1.462-3.36 3.3h1.5zm1.86 1.8c-1.043 0-1.86-.821-1.86-1.8h-1.5c0 1.84 1.521 3.3 3.36 3.3v-1.5z" fill="#EE7836"/>
    <defs>
        <filter id="nlmxt41oba" x="0" y="0" width="60" height="60" filterUnits="userSpaceOnUse" color-interpolation-filters="sRGB">
            <feFlood flood-opacity="0" result="BackgroundImageFix"/>
            <feColorMatrix in="SourceAlpha" values="0 0 0 0 0 0 0 0 0 0 0 0 0 0 0 0 0 0 127 0" result="hardAlpha"/>
            <feOffset dy="2"/>
            <feGaussianBlur stdDeviation="3"/>
            <feComposite in2="hardAlpha" operator="out"/>
            <feColorMatrix values="0 0 0 0 0 0 0 0 0 0 0 0 0 0 0 0 0 0 0.25 0"/>
            <feBlend in2="BackgroundImageFix" result="effect1_dropShadow_428_14745"/>
            <feBlend in="SourceGraphic" in2="effect1_dropShadow_428_14745" result="shape"/>
        </filter>
    </defs>
</svg>
