<svg width="34" height="53" viewBox="0 0 34 53" fill="none" xmlns="http://www.w3.org/2000/svg">
    <path d="M1 17.144C1 8.227 8.631 1 17 1c8.407 0 16 7.213 16 16.144 0 8.645-6.497 18.9-15.137 33.405a1.003 1.003 0 0 1-1.724 0C7.521 36.041 1 25.774 1 17.143z" fill="#74318E" stroke="#fff" stroke-width="2" stroke-linejoin="round"/>
    <ellipse cx="17" cy="17.04" rx="10.256" ry="10.282" fill="#fff"/>
    <path d="M17.846 23v-7.68c0-.624.047-1.632.096-2.272h-.08a39.859 39.859 0 0 1-.944 1.824l-2.304 3.536h6.463v1.44h-8.32V18.6l4.673-7.376h2.143V23h-1.727z" fill="#74318E"/>
</svg>
