<svg width="219" height="134" viewBox="0 0 219 134" fill="none" xmlns="http://www.w3.org/2000/svg">
    <path d="M72.374 5.375c-11.272 10.52.646 23.042 7.106 27.133h27.779c.646-12.92-15.505-45.221-34.885-27.133z" fill="#FFBE9A"/>
    <path d="M142.674 5.375c11.271 10.52-.646 23.042-7.107 27.133h-27.778c-.646-12.92 15.504-45.221 34.885-27.133z" fill="#FFBE9A"/>
    <path d="M84.272 11.018c-4.784 6.524 7.967 16.797 14.212 20.673l4.522-8.398c-3.23-7.752-11.628-21.965-18.734-12.274zM130.776 11.018c4.784 6.524-7.968 16.797-14.213 20.673l-4.522-8.398c3.23-7.752 11.628-21.965 18.735-12.274z" fill="#F08A51"/>
    <rect x="47" y="49" width="71" height="85" rx="4" fill="#B573CF"/>
    <rect x="110" y="49" width="63" height="85" rx="4" fill="#9B50B8"/>
    <rect x="37" y="32" width="77" height="22" rx="4" fill="#B573CF"/>
    <rect x="105" y="32" width="77" height="22" rx="4" fill="#9B50B8"/>
    <path fill-rule="evenodd" clip-rule="evenodd" d="M137 54h13a4 4 0 0 0 4-4V36a4 4 0 0 0-4-4h-13a4 4 0 0 1 4 4v14a4 4 0 0 1-4 4zM133 134h13a4 4 0 0 0 4-4V54h-13v76a4 4 0 0 1-4 4z" fill="#F08A51"/>
    <path fill-rule="evenodd" clip-rule="evenodd" d="M85 54H72a4 4 0 0 1-4-4V36a4 4 0 0 1 4-4h13a4 4 0 0 0-4 4v14a4 4 0 0 0 4 4zM89 134H76a4 4 0 0 1-4-4V54h13v76a4 4 0 0 0 4 4z" fill="#FFBE9A"/>
    <path d="M47 54h126v11H47V54z" fill="#646464" style="mix-blend-mode:multiply" opacity=".5"/>
    <path d="M97 26a4 4 0 0 1 4-4h14a4 4 0 0 1 4 4v6H97v-6zM210.505 22.762a17.934 17.934 0 0 0-9.748 9.734.833.833 0 0 1-.761.504.83.83 0 0 1-.762-.504 17.931 17.931 0 0 0-9.731-9.735A.832.832 0 0 1 189 22a.832.832 0 0 1 .503-.762 17.933 17.933 0 0 0 9.731-9.734.833.833 0 0 1 .762-.504.826.826 0 0 1 .761.504 17.934 17.934 0 0 0 9.731 9.734.83.83 0 0 1 .38 1.214.826.826 0 0 1-.363.31zM21.505 46.761a17.932 17.932 0 0 0-9.748 9.735.828.828 0 0 1-1.522 0 17.939 17.939 0 0 0-9.732-9.735.828.828 0 0 1 0-1.523 17.93 17.93 0 0 0 9.732-9.734.828.828 0 0 1 1.522 0 17.937 17.937 0 0 0 9.731 9.735.828.828 0 0 1 .017 1.523zM29.64 67.554a13.04 13.04 0 0 0-7.09 7.08.602.602 0 0 1-1.107 0 13.047 13.047 0 0 0-7.077-7.08.601.601 0 0 1 0-1.108 13.04 13.04 0 0 0 7.077-7.08.601.601 0 0 1 1.107 0 13.047 13.047 0 0 0 7.078 7.08.602.602 0 0 1 .012 1.108z" fill="#FFBE9A"/>
</svg>
