<svg width="34" height="53" viewBox="0 0 34 53" fill="none" xmlns="http://www.w3.org/2000/svg">
    <path d="M1 17.144C1 8.227 8.631 1 17 1c8.407 0 16 7.213 16 16.144 0 8.645-6.497 18.9-15.137 33.405a1.003 1.003 0 0 1-1.724 0C7.521 36.041 1 25.774 1 17.143z" fill="#74318E" stroke="#fff" stroke-width="2" stroke-linejoin="round"/>
    <ellipse cx="17" cy="17.04" rx="10.256" ry="10.282" fill="#fff"/>
    <path d="M16.326 23.224c-1.36 0-2.337-.56-3.008-1.264l.992-1.136c.48.528 1.2.88 1.935.88 1.488 0 2.752-1.248 2.752-4.992 0-2.944-.912-4.288-2.352-4.288-1.024 0-1.823.912-1.823 2.464 0 1.488.688 2.352 1.92 2.352.735 0 1.567-.416 2.255-1.488l.096 1.344c-.688.912-1.744 1.488-2.688 1.488-1.968 0-3.296-1.232-3.296-3.696 0-2.352 1.6-3.872 3.52-3.872 2.256 0 4.08 1.808 4.08 5.696 0 4.64-2.111 6.512-4.383 6.512z" fill="#74318E"/>
</svg>
