<svg width="60" height="60" viewBox="0 0 60 60" fill="none" xmlns="http://www.w3.org/2000/svg">
    <circle cx="30" cy="30" r="30" fill="#9100B9"/>
    <path fill-rule="evenodd" clip-rule="evenodd" d="M30 38.75c0-.69.56-1.25 1.25-1.25H36a1 1 0 1 0 0-2h-4.75a3.25 3.25 0 0 0 0 6.5H42.5a1.5 1.5 0 0 1 0 3H24a1 1 0 1 0 0 2h18.5a3.5 3.5 0 1 0 0-7H31.25c-.69 0-1.25-.56-1.25-1.25z" fill="#fff"/>
    <path d="M19.5 17c-4.969 0-9.5 4.393-9.5 9.813 0 5.076 3.624 11.082 8.493 19.452a1.167 1.167 0 0 0 2.016.001C25.389 37.896 29 31.896 29 26.813 29 21.384 24.492 17 19.5 17zm0 13.78c-1.743 0-3.164-1.537-3.164-3.441s1.428-3.44 3.164-3.44c1.736 0 3.164 1.552 3.164 3.44 0 1.887-1.413 3.44-3.164 3.44zM40 13c-4.184 0-8 3.543-8 7.913 0 4.044 2.978 8.82 7.004 15.443.453.746 1.54.747 1.994.001C45.033 29.735 48 24.964 48 20.913 48 16.537 44.204 13 40 13zm0 11.113c-1.468 0-2.664-1.24-2.664-2.775 0-1.536 1.202-2.775 2.664-2.775 1.462 0 2.664 1.253 2.664 2.775s-1.19 2.775-2.664 2.775z" fill="#fff"/>
</svg>
