<svg width="60" height="60" viewBox="0 0 60 60" fill="none" xmlns="http://www.w3.org/2000/svg">
    <circle cx="30" cy="30" r="30" fill="#6EB763"/>
    <path d="M18 20.992V27c-4.143-.638-7-2.003-7-3.587 0-1.444 2.364-2.71 5.914-3.397.566-.11 1.086.359 1.086.976zM49 23.403c0 1.566-2.846 2.93-7 3.597v-5.99c0-.637.554-1.112 1.146-.991 3.524.717 5.854 1.97 5.854 3.384z" fill="#fff"/>
    <path d="M49 25v17.487C49 44.98 40.5 47 30 47s-19-2.02-19-4.513V25c0 1.794 4.405 3.34 10.795 4.061 2.477.294 5.263.452 8.205.452 3.124 0 6.08-.18 8.684-.497C44.806 28.272 49 26.75 49 25z" fill="#fff"/>
    <path d="M39.324 37.22a1.193 1.193 0 0 1 0 1.56l-9.23 10.658c-.723.835-2.094.324-2.094-.78V27.342c0-1.105 1.371-1.616 2.094-.781l9.23 10.657z" fill="#6EB763"/>
    <path d="M37.257 37.192c.42.457.42 1.16 0 1.616L27.32 49.606c-.736.8-2.07.28-2.07-.807V27.2c0-1.087 1.334-1.607 2.07-.807l9.937 10.798z" fill="#fff"/>
    <mask id="tngidy7lga" maskUnits="userSpaceOnUse" x="14.574" y="10.461" width="35" height="16" fill="#000">
        <path fill="#fff" d="M14.574 10.461h35v16h-35z"/>
        <path d="M19.168 17.336h1.203c.385 0 .703-.065.953-.195.25-.136.435-.323.554-.563.125-.245.188-.529.188-.851 0-.292-.057-.55-.172-.774a1.165 1.165 0 0 0-.508-.531c-.229-.13-.518-.195-.867-.195-.276 0-.531.054-.766.164-.234.109-.421.263-.562.46-.14.198-.211.438-.211.72h-2.258c0-.626.167-1.17.5-1.633a3.398 3.398 0 0 1 1.36-1.086 4.442 4.442 0 0 1 1.875-.391c.77 0 1.445.125 2.023.375.578.245 1.029.607 1.352 1.086.322.479.484 1.073.484 1.781 0 .36-.083.709-.25 1.047a2.938 2.938 0 0 1-.719.906 3.57 3.57 0 0 1-1.125.64c-.443.157-.94.235-1.492.235h-1.563v-1.195zm0 1.71v-1.163h1.562c.62 0 1.164.07 1.633.21.469.141.862.345 1.18.61.317.26.557.57.718.93.162.354.242.747.242 1.18 0 .53-.101 1.005-.304 1.421-.203.412-.49.76-.86 1.047a3.92 3.92 0 0 1-1.28.657 5.59 5.59 0 0 1-1.602.218c-.48 0-.951-.065-1.415-.195a4.209 4.209 0 0 1-1.25-.602c-.37-.27-.666-.609-.89-1.015-.219-.412-.328-.899-.328-1.461h2.258c0 .291.072.552.218.781.146.23.347.409.602.54.26.13.55.194.867.194.36 0 .667-.065.922-.195a1.41 1.41 0 0 0 .594-.562c.14-.245.21-.529.21-.852 0-.417-.075-.75-.226-1a1.345 1.345 0 0 0-.648-.562 2.54 2.54 0 0 0-1-.18h-1.203zM31.535 12.508h.328v1.797h-.133c-.593 0-1.122.088-1.586.265-.463.177-.856.43-1.18.758a3.297 3.297 0 0 0-.734 1.172c-.166.458-.25.971-.25 1.54v1.89c0 .406.04.765.117 1.078.084.307.201.565.352.773.156.203.339.357.547.461.208.1.443.149.703.149.245 0 .466-.052.664-.157.203-.104.375-.25.516-.437a2.02 2.02 0 0 0 .328-.672c.078-.26.117-.544.117-.852 0-.307-.039-.59-.117-.851a1.926 1.926 0 0 0-.328-.672 1.503 1.503 0 0 0-.532-.445 1.55 1.55 0 0 0-.703-.157 1.795 1.795 0 0 0-1.563.875 1.682 1.682 0 0 0-.241.805l-.68-.437c.016-.401.099-.782.25-1.141.156-.36.37-.677.64-.953.277-.281.607-.5.993-.656a3.35 3.35 0 0 1 1.305-.243c.53 0 .997.102 1.398.305.406.203.745.482 1.016.836.27.354.474.763.609 1.227.135.463.203.958.203 1.484 0 .552-.091 1.065-.273 1.54a3.6 3.6 0 0 1-.774 1.241c-.333.354-.734.63-1.203.828a4.021 4.021 0 0 1-1.578.297c-.604 0-1.154-.11-1.648-.328a3.75 3.75 0 0 1-1.266-.937 4.245 4.245 0 0 1-.82-1.43 5.604 5.604 0 0 1-.282-1.813v-.875c0-.916.133-1.755.399-2.515a5.793 5.793 0 0 1 1.164-1.985 5.175 5.175 0 0 1 1.828-1.304c.713-.307 1.518-.461 2.414-.461zM42.254 17.313v1.968c0 .854-.091 1.591-.273 2.211-.183.615-.446 1.12-.79 1.516-.338.39-.742.68-1.21.867-.47.188-.99.281-1.563.281a4.59 4.59 0 0 1-1.281-.172 3.224 3.224 0 0 1-1.07-.554 3.522 3.522 0 0 1-.813-.946 4.848 4.848 0 0 1-.516-1.375 8.359 8.359 0 0 1-.18-1.828v-1.968c0-.855.092-1.586.274-2.196.188-.614.45-1.117.79-1.508.343-.39.75-.677 1.218-.859.469-.188.99-.281 1.563-.281.458 0 .882.06 1.273.18.396.114.752.294 1.07.539.318.244.589.56.813.945.224.38.396.836.515 1.367.12.526.18 1.13.18 1.813zm-2.258 2.265v-2.57c0-.412-.023-.771-.07-1.078a3.16 3.16 0 0 0-.195-.782 1.649 1.649 0 0 0-.328-.53 1.195 1.195 0 0 0-.446-.298 1.57 1.57 0 0 0-.554-.093 1.5 1.5 0 0 0-.68.148 1.264 1.264 0 0 0-.492.477c-.136.213-.24.5-.313.859a7.041 7.041 0 0 0-.101 1.297v2.57c0 .412.02.774.062 1.086.047.313.115.58.203.805.094.218.203.398.328.539.13.135.279.234.446.297.172.062.359.093.562.093.25 0 .471-.049.664-.148.198-.104.365-.266.5-.484.14-.224.245-.516.313-.875.067-.36.101-.797.101-1.313zM43.684 14.61c0-.391.096-.748.29-1.07a2.18 2.18 0 0 1 .773-.782 2.035 2.035 0 0 1 1.062-.29c.38 0 .73.097 1.047.29.318.193.57.453.758.781.187.323.281.68.281 1.07a2.093 2.093 0 0 1-1.04 1.829 2.022 2.022 0 0 1-1.046.28c-.385 0-.74-.093-1.062-.28a2.157 2.157 0 0 1-.774-.758 2.05 2.05 0 0 1-.289-1.07zm1.125 0c0 .28.099.515.297.703a.988.988 0 0 0 .703.28.91.91 0 0 0 .68-.28.968.968 0 0 0 .273-.704c0-.286-.091-.526-.273-.718a.897.897 0 0 0-.68-.29.974.974 0 0 0-.703.29.963.963 0 0 0-.297.718z"/>
    </mask>
    <path d="M19.168 17.336h1.203c.385 0 .703-.065.953-.195.25-.136.435-.323.554-.563.125-.245.188-.529.188-.851 0-.292-.057-.55-.172-.774a1.165 1.165 0 0 0-.508-.531c-.229-.13-.518-.195-.867-.195-.276 0-.531.054-.766.164-.234.109-.421.263-.562.46-.14.198-.211.438-.211.72h-2.258c0-.626.167-1.17.5-1.633a3.398 3.398 0 0 1 1.36-1.086 4.442 4.442 0 0 1 1.875-.391c.77 0 1.445.125 2.023.375.578.245 1.029.607 1.352 1.086.322.479.484 1.073.484 1.781 0 .36-.083.709-.25 1.047a2.938 2.938 0 0 1-.719.906 3.57 3.57 0 0 1-1.125.64c-.443.157-.94.235-1.492.235h-1.563v-1.195zm0 1.71v-1.163h1.562c.62 0 1.164.07 1.633.21.469.141.862.345 1.18.61.317.26.557.57.718.93.162.354.242.747.242 1.18 0 .53-.101 1.005-.304 1.421-.203.412-.49.76-.86 1.047a3.92 3.92 0 0 1-1.28.657 5.59 5.59 0 0 1-1.602.218c-.48 0-.951-.065-1.415-.195a4.209 4.209 0 0 1-1.25-.602c-.37-.27-.666-.609-.89-1.015-.219-.412-.328-.899-.328-1.461h2.258c0 .291.072.552.218.781.146.23.347.409.602.54.26.13.55.194.867.194.36 0 .667-.065.922-.195a1.41 1.41 0 0 0 .594-.562c.14-.245.21-.529.21-.852 0-.417-.075-.75-.226-1a1.345 1.345 0 0 0-.648-.562 2.54 2.54 0 0 0-1-.18h-1.203zM31.535 12.508h.328v1.797h-.133c-.593 0-1.122.088-1.586.265-.463.177-.856.43-1.18.758a3.297 3.297 0 0 0-.734 1.172c-.166.458-.25.971-.25 1.54v1.89c0 .406.04.765.117 1.078.084.307.201.565.352.773.156.203.339.357.547.461.208.1.443.149.703.149.245 0 .466-.052.664-.157.203-.104.375-.25.516-.437a2.02 2.02 0 0 0 .328-.672c.078-.26.117-.544.117-.852 0-.307-.039-.59-.117-.851a1.926 1.926 0 0 0-.328-.672 1.503 1.503 0 0 0-.532-.445 1.55 1.55 0 0 0-.703-.157 1.795 1.795 0 0 0-1.563.875 1.682 1.682 0 0 0-.241.805l-.68-.437c.016-.401.099-.782.25-1.141.156-.36.37-.677.64-.953.277-.281.607-.5.993-.656a3.35 3.35 0 0 1 1.305-.243c.53 0 .997.102 1.398.305.406.203.745.482 1.016.836.27.354.474.763.609 1.227.135.463.203.958.203 1.484 0 .552-.091 1.065-.273 1.54a3.6 3.6 0 0 1-.774 1.241c-.333.354-.734.63-1.203.828a4.021 4.021 0 0 1-1.578.297c-.604 0-1.154-.11-1.648-.328a3.75 3.75 0 0 1-1.266-.937 4.245 4.245 0 0 1-.82-1.43 5.604 5.604 0 0 1-.282-1.813v-.875c0-.916.133-1.755.399-2.515a5.793 5.793 0 0 1 1.164-1.985 5.175 5.175 0 0 1 1.828-1.304c.713-.307 1.518-.461 2.414-.461zM42.254 17.313v1.968c0 .854-.091 1.591-.273 2.211-.183.615-.446 1.12-.79 1.516-.338.39-.742.68-1.21.867-.47.188-.99.281-1.563.281a4.59 4.59 0 0 1-1.281-.172 3.224 3.224 0 0 1-1.07-.554 3.522 3.522 0 0 1-.813-.946 4.848 4.848 0 0 1-.516-1.375 8.359 8.359 0 0 1-.18-1.828v-1.968c0-.855.092-1.586.274-2.196.188-.614.45-1.117.79-1.508.343-.39.75-.677 1.218-.859.469-.188.99-.281 1.563-.281.458 0 .882.06 1.273.18.396.114.752.294 1.07.539.318.244.589.56.813.945.224.38.396.836.515 1.367.12.526.18 1.13.18 1.813zm-2.258 2.265v-2.57c0-.412-.023-.771-.07-1.078a3.16 3.16 0 0 0-.195-.782 1.649 1.649 0 0 0-.328-.53 1.195 1.195 0 0 0-.446-.298 1.57 1.57 0 0 0-.554-.093 1.5 1.5 0 0 0-.68.148 1.264 1.264 0 0 0-.492.477c-.136.213-.24.5-.313.859a7.041 7.041 0 0 0-.101 1.297v2.57c0 .412.02.774.062 1.086.047.313.115.58.203.805.094.218.203.398.328.539.13.135.279.234.446.297.172.062.359.093.562.093.25 0 .471-.049.664-.148.198-.104.365-.266.5-.484.14-.224.245-.516.313-.875.067-.36.101-.797.101-1.313zM43.684 14.61c0-.391.096-.748.29-1.07a2.18 2.18 0 0 1 .773-.782 2.035 2.035 0 0 1 1.062-.29c.38 0 .73.097 1.047.29.318.193.57.453.758.781.187.323.281.68.281 1.07a2.093 2.093 0 0 1-1.04 1.829 2.022 2.022 0 0 1-1.046.28c-.385 0-.74-.093-1.062-.28a2.157 2.157 0 0 1-.774-.758 2.05 2.05 0 0 1-.289-1.07zm1.125 0c0 .28.099.515.297.703a.988.988 0 0 0 .703.28.91.91 0 0 0 .68-.28.968.968 0 0 0 .273-.704c0-.286-.091-.526-.273-.718a.897.897 0 0 0-.68-.29.974.974 0 0 0-.703.29.963.963 0 0 0-.297.718z" fill="#fff"/>
    <path d="M19.168 17.336h1.203c.385 0 .703-.065.953-.195.25-.136.435-.323.554-.563.125-.245.188-.529.188-.851 0-.292-.057-.55-.172-.774a1.165 1.165 0 0 0-.508-.531c-.229-.13-.518-.195-.867-.195-.276 0-.531.054-.766.164-.234.109-.421.263-.562.46-.14.198-.211.438-.211.72h-2.258c0-.626.167-1.17.5-1.633a3.398 3.398 0 0 1 1.36-1.086 4.442 4.442 0 0 1 1.875-.391c.77 0 1.445.125 2.023.375.578.245 1.029.607 1.352 1.086.322.479.484 1.073.484 1.781 0 .36-.083.709-.25 1.047a2.938 2.938 0 0 1-.719.906 3.57 3.57 0 0 1-1.125.64c-.443.157-.94.235-1.492.235h-1.563v-1.195zm0 1.71v-1.163h1.562c.62 0 1.164.07 1.633.21.469.141.862.345 1.18.61.317.26.557.57.718.93.162.354.242.747.242 1.18 0 .53-.101 1.005-.304 1.421-.203.412-.49.76-.86 1.047a3.92 3.92 0 0 1-1.28.657 5.59 5.59 0 0 1-1.602.218c-.48 0-.951-.065-1.415-.195a4.209 4.209 0 0 1-1.25-.602c-.37-.27-.666-.609-.89-1.015-.219-.412-.328-.899-.328-1.461h2.258c0 .291.072.552.218.781.146.23.347.409.602.54.26.13.55.194.867.194.36 0 .667-.065.922-.195a1.41 1.41 0 0 0 .594-.562c.14-.245.21-.529.21-.852 0-.417-.075-.75-.226-1a1.345 1.345 0 0 0-.648-.562 2.54 2.54 0 0 0-1-.18h-1.203zM31.535 12.508h.328v1.797h-.133c-.593 0-1.122.088-1.586.265-.463.177-.856.43-1.18.758a3.297 3.297 0 0 0-.734 1.172c-.166.458-.25.971-.25 1.54v1.89c0 .406.04.765.117 1.078.084.307.201.565.352.773.156.203.339.357.547.461.208.1.443.149.703.149.245 0 .466-.052.664-.157.203-.104.375-.25.516-.437a2.02 2.02 0 0 0 .328-.672c.078-.26.117-.544.117-.852 0-.307-.039-.59-.117-.851a1.926 1.926 0 0 0-.328-.672 1.503 1.503 0 0 0-.532-.445 1.55 1.55 0 0 0-.703-.157 1.795 1.795 0 0 0-1.563.875 1.682 1.682 0 0 0-.241.805l-.68-.437c.016-.401.099-.782.25-1.141.156-.36.37-.677.64-.953.277-.281.607-.5.993-.656a3.35 3.35 0 0 1 1.305-.243c.53 0 .997.102 1.398.305.406.203.745.482 1.016.836.27.354.474.763.609 1.227.135.463.203.958.203 1.484 0 .552-.091 1.065-.273 1.54a3.6 3.6 0 0 1-.774 1.241c-.333.354-.734.63-1.203.828a4.021 4.021 0 0 1-1.578.297c-.604 0-1.154-.11-1.648-.328a3.75 3.75 0 0 1-1.266-.937 4.245 4.245 0 0 1-.82-1.43 5.604 5.604 0 0 1-.282-1.813v-.875c0-.916.133-1.755.399-2.515a5.793 5.793 0 0 1 1.164-1.985 5.175 5.175 0 0 1 1.828-1.304c.713-.307 1.518-.461 2.414-.461zM42.254 17.313v1.968c0 .854-.091 1.591-.273 2.211-.183.615-.446 1.12-.79 1.516-.338.39-.742.68-1.21.867-.47.188-.99.281-1.563.281a4.59 4.59 0 0 1-1.281-.172 3.224 3.224 0 0 1-1.07-.554 3.522 3.522 0 0 1-.813-.946 4.848 4.848 0 0 1-.516-1.375 8.359 8.359 0 0 1-.18-1.828v-1.968c0-.855.092-1.586.274-2.196.188-.614.45-1.117.79-1.508.343-.39.75-.677 1.218-.859.469-.188.99-.281 1.563-.281.458 0 .882.06 1.273.18.396.114.752.294 1.07.539.318.244.589.56.813.945.224.38.396.836.515 1.367.12.526.18 1.13.18 1.813zm-2.258 2.265v-2.57c0-.412-.023-.771-.07-1.078a3.16 3.16 0 0 0-.195-.782 1.649 1.649 0 0 0-.328-.53 1.195 1.195 0 0 0-.446-.298 1.57 1.57 0 0 0-.554-.093 1.5 1.5 0 0 0-.68.148 1.264 1.264 0 0 0-.492.477c-.136.213-.24.5-.313.859a7.041 7.041 0 0 0-.101 1.297v2.57c0 .412.02.774.062 1.086.047.313.115.58.203.805.094.218.203.398.328.539.13.135.279.234.446.297.172.062.359.093.562.093.25 0 .471-.049.664-.148.198-.104.365-.266.5-.484.14-.224.245-.516.313-.875.067-.36.101-.797.101-1.313zM43.684 14.61c0-.391.096-.748.29-1.07a2.18 2.18 0 0 1 .773-.782 2.035 2.035 0 0 1 1.062-.29c.38 0 .73.097 1.047.29.318.193.57.453.758.781.187.323.281.68.281 1.07a2.093 2.093 0 0 1-1.04 1.829 2.022 2.022 0 0 1-1.046.28c-.385 0-.74-.093-1.062-.28a2.157 2.157 0 0 1-.774-.758 2.05 2.05 0 0 1-.289-1.07zm1.125 0c0 .28.099.515.297.703a.988.988 0 0 0 .703.28.91.91 0 0 0 .68-.28.968.968 0 0 0 .273-.704c0-.286-.091-.526-.273-.718a.897.897 0 0 0-.68-.29.974.974 0 0 0-.703.29.963.963 0 0 0-.297.718z" stroke="#6EB763" stroke-width="3" mask="url(#tngidy7lga)"/>
    <mask id="qgqm2qn54b" maskUnits="userSpaceOnUse" x="14" y="11" width="35" height="15" fill="#000">
        <path fill="#fff" d="M14 11h35v15H14z"/>
        <path fill-rule="evenodd" clip-rule="evenodd" d="M31.109 13.025v1.944h-.114c-.934 0-1.691.226-2.297.665-.606.439-.972 1.054-1.11 1.844.567-.552 1.274-.828 2.132-.828.934 0 1.679.339 2.222 1.016.542.677.833 1.568.833 2.659a3.78 3.78 0 0 1-.48 1.869 3.351 3.351 0 0 1-1.35 1.33 4.003 4.003 0 0 1-1.932.476c-.77 0-1.451-.176-2.044-.514a3.54 3.54 0 0 1-1.401-1.48c-.329-.64-.505-1.38-.518-2.22v-.991c0-1.104.24-2.095.72-2.973a5.268 5.268 0 0 1 2.032-2.07c.87-.501 1.855-.752 2.94-.752h.38l-.013.025zm-2.247 5.531c-.328 0-.606.076-.833.226a1.32 1.32 0 0 0-.492.565v.74c0 1.354.467 2.032 1.413 2.032.379 0 .695-.163.947-.502.252-.339.379-.765.379-1.267 0-.502-.127-.953-.392-1.28a1.276 1.276 0 0 0-1.035-.501l.013-.013zm-9.088-1.066H18.6v1.869h1.212c.48 0 .858.113 1.123.339.265.226.404.602.404 1.141 0 .377-.126.69-.391.928-.265.239-.606.364-1.048.364-.391 0-.72-.125-.984-.364-.265-.238-.404-.526-.404-.852H16c0 .602.151 1.153.467 1.617.316.465.77.84 1.376 1.104a4.888 4.888 0 0 0 1.969.402c1.199 0 2.17-.289 2.916-.866.744-.577 1.11-1.342 1.11-2.295 0-.615-.164-1.129-.492-1.555-.328-.427-.782-.74-1.35-.941.542-.251.946-.577 1.237-.991.29-.414.429-.84.429-1.305 0-.953-.341-1.705-1.023-2.245-.681-.539-1.628-.815-2.827-.815-.67 0-1.288.138-1.843.376-.555.239-.985.59-1.313 1.029-.328.439-.48.94-.48 1.505h2.513c0-.289.126-.527.366-.715.24-.188.53-.288.858-.288.404 0 .72.112.934.338.214.226.328.514.328.866 0 .903-.467 1.354-1.401 1.354zm20.587 5.369c.656-.79.984-1.907.984-3.35v-1.956c0-1.442-.328-2.559-.984-3.349-.657-.79-1.59-1.179-2.777-1.179s-2.108.402-2.764 1.192c-.657.79-.985 1.906-.985 3.349v1.956c0 1.43.328 2.546.985 3.337.656.79 1.59 1.179 2.776 1.179 1.187 0 2.108-.39 2.765-1.18zm-1.805-7.338c.202.376.303.953.303 1.718v2.659c-.013.766-.114 1.33-.316 1.694-.202.364-.492.54-.934.54-.442 0-.757-.177-.96-.553-.201-.376-.302-.953-.302-1.756V17.09c.012-.715.126-1.254.315-1.605.19-.352.493-.527.934-.527.442 0 .758.188.96.564zm4.96-1.894c-.416.401-.618.89-.618 1.468h.012c0 .564.202 1.053.606 1.442.404.389.896.59 1.464.59s1.048-.201 1.44-.59c.39-.389.593-.865.593-1.442a2.04 2.04 0 0 0-.606-1.468 1.924 1.924 0 0 0-1.427-.602c-.555 0-1.047.2-1.464.602zm2.108 2.12a.84.84 0 0 1-.644.263h.013a.93.93 0 0 1-.656-.263.842.842 0 0 1-.278-.652c0-.264.088-.477.265-.665a.852.852 0 0 1 .656-.276c.265 0 .48.088.644.276a.97.97 0 0 1 .252.665.917.917 0 0 1-.252.652z"/>
    </mask>
    <path fill-rule="evenodd" clip-rule="evenodd" d="M31.109 13.025v1.944h-.114c-.934 0-1.691.226-2.297.665-.606.439-.972 1.054-1.11 1.844.567-.552 1.274-.828 2.132-.828.934 0 1.679.339 2.222 1.016.542.677.833 1.568.833 2.659a3.78 3.78 0 0 1-.48 1.869 3.351 3.351 0 0 1-1.35 1.33 4.003 4.003 0 0 1-1.932.476c-.77 0-1.451-.176-2.044-.514a3.54 3.54 0 0 1-1.401-1.48c-.329-.64-.505-1.38-.518-2.22v-.991c0-1.104.24-2.095.72-2.973a5.268 5.268 0 0 1 2.032-2.07c.87-.501 1.855-.752 2.94-.752h.38l-.013.025zm-2.247 5.531c-.328 0-.606.076-.833.226a1.32 1.32 0 0 0-.492.565v.74c0 1.354.467 2.032 1.413 2.032.379 0 .695-.163.947-.502.252-.339.379-.765.379-1.267 0-.502-.127-.953-.392-1.28a1.276 1.276 0 0 0-1.035-.501l.013-.013zm-9.088-1.066H18.6v1.869h1.212c.48 0 .858.113 1.123.339.265.226.404.602.404 1.141 0 .377-.126.69-.391.928-.265.239-.606.364-1.048.364-.391 0-.72-.125-.984-.364-.265-.238-.404-.526-.404-.852H16c0 .602.151 1.153.467 1.617.316.465.77.84 1.376 1.104a4.888 4.888 0 0 0 1.969.402c1.199 0 2.17-.289 2.916-.866.744-.577 1.11-1.342 1.11-2.295 0-.615-.164-1.129-.492-1.555-.328-.427-.782-.74-1.35-.941.542-.251.946-.577 1.237-.991.29-.414.429-.84.429-1.305 0-.953-.341-1.705-1.023-2.245-.681-.539-1.628-.815-2.827-.815-.67 0-1.288.138-1.843.376-.555.239-.985.59-1.313 1.029-.328.439-.48.94-.48 1.505h2.513c0-.289.126-.527.366-.715.24-.188.53-.288.858-.288.404 0 .72.112.934.338.214.226.328.514.328.866 0 .903-.467 1.354-1.401 1.354zm20.587 5.369c.656-.79.984-1.907.984-3.35v-1.956c0-1.442-.328-2.559-.984-3.349-.657-.79-1.59-1.179-2.777-1.179s-2.108.402-2.764 1.192c-.657.79-.985 1.906-.985 3.349v1.956c0 1.43.328 2.546.985 3.337.656.79 1.59 1.179 2.776 1.179 1.187 0 2.108-.39 2.765-1.18zm-1.805-7.338c.202.376.303.953.303 1.718v2.659c-.013.766-.114 1.33-.316 1.694-.202.364-.492.54-.934.54-.442 0-.757-.177-.96-.553-.201-.376-.302-.953-.302-1.756V17.09c.012-.715.126-1.254.315-1.605.19-.352.493-.527.934-.527.442 0 .758.188.96.564zm4.96-1.894c-.416.401-.618.89-.618 1.468h.012c0 .564.202 1.053.606 1.442.404.389.896.59 1.464.59s1.048-.201 1.44-.59c.39-.389.593-.865.593-1.442a2.04 2.04 0 0 0-.606-1.468 1.924 1.924 0 0 0-1.427-.602c-.555 0-1.047.2-1.464.602zm2.108 2.12a.84.84 0 0 1-.644.263h.013a.93.93 0 0 1-.656-.263.842.842 0 0 1-.278-.652c0-.264.088-.477.265-.665a.852.852 0 0 1 .656-.276c.265 0 .48.088.644.276a.97.97 0 0 1 .252.665.917.917 0 0 1-.252.652z" fill="#fff"/>
    <path d="M31.109 14.97v1.5a1.5 1.5 0 0 0 1.5-1.5h-1.5zm0-1.945-1.34-.674a1.5 1.5 0 0 0-.16.674h1.5zm-2.411 2.609-.88-1.215.88 1.215zm-1.11 1.844-1.478-.26a1.5 1.5 0 0 0 2.522 1.336l-1.045-1.076zm4.707 4.716-1.31-.732 1.31.732zm-5.326 1.292.743-1.303-.743 1.303zm-1.919-3.7h-1.5v.022l1.5-.022zm.72-3.964-1.317-.719 1.317.72zm2.032-2.07-.75-1.3.75 1.3zm3.32-.752 1.34.674a1.5 1.5 0 0 0-1.34-2.174V13zm-2.26 5.556 1.057 1.064a1.5 1.5 0 0 0-1.057-2.564v1.5zm-1.325.79-1.37-.612c-.086.193-.13.402-.13.613h1.5zm2.347-.275 1.164-.946-1.164.946zm-1.035-.502-1.057-1.064a1.5 1.5 0 0 0 1.057 2.564v-1.5zM18.6 17.49v-1.5a1.5 1.5 0 0 0-1.5 1.5h1.5zm0 1.87h-1.5a1.5 1.5 0 0 0 1.5 1.5v-1.5zm-.088 1.555h1.5a1.5 1.5 0 0 0-1.5-1.5v1.5zm-2.512 0v-1.5a1.5 1.5 0 0 0-1.5 1.5H16zm.467 1.617 1.24-.843-1.24.843zm1.376 1.104-.598 1.376.598-1.376zm4.885-.464.918 1.186-.918-1.186zm.618-3.85 1.189-.915-1.189.915zm-1.35-.941-.63-1.362a1.5 1.5 0 0 0 .13 2.776l.5-1.414zm1.237-.991-1.229-.861 1.229.861zm-5.264-3.989-.591-1.378.591 1.378zm-1.313 1.029 1.202.898-1.202-.898zm-.48 1.505h-1.5a1.5 1.5 0 0 0 1.5 1.5v-1.5zm2.513 0v1.5a1.5 1.5 0 0 0 1.5-1.5h-1.5zm.366-.715-.926-1.18.926 1.18zm1.792.05 1.087-1.033-1.087 1.033zM40.36 22.86l1.154.958-1.154-.958zm0-8.655 1.154-.958-1.154.958zm-5.541.013-1.154-.959 1.154.959zm0 8.642-1.154.958 1.154-.958zm3.736-7.338 1.321-.71-1.321.71zm.303 4.377 1.5.025V19.9h-1.5zm-.316 1.694 1.312.728-1.312-.728zm-1.893-.013-1.322.71 1.322-.71zm-.303-4.49-1.5-.026v.026h1.5zm.315-1.605-1.32-.712 1.32.711zm6.236-.39h-1.5a1.5 1.5 0 0 0 1.5 1.5v-1.5zm.618-1.467 1.041 1.08-1.04-1.08zm-.606 1.468h1.5a1.5 1.5 0 0 0-1.5-1.5v1.5zm.606 1.442 1.04-1.08-1.04 1.08zm2.89-2.91-1.073 1.047 1.074-1.047zm-1.426.883a1.5 1.5 0 1 0 0 3v-3zm.644 1.237 1.096 1.024-1.096-1.024zm-.631 1.763a1.5 1.5 0 0 0 0-3v3zm-.669-3.08-1.093-1.027 1.093 1.027zm1.3 0 1.13-.986-1.13.986zm-13.015.54v-1.945h-3v1.944h3zm-1.614 1.5h.114v-3h-.114v3zm-1.417.379c.301-.219.733-.38 1.417-.38v-3c-1.184 0-2.267.29-3.177.95l1.76 2.43zm-.514.888c.079-.445.254-.7.514-.888l-1.76-2.43c-.952.69-1.509 1.664-1.708 2.8l2.954.518zm.656-2.587c-1.216 0-2.308.406-3.178 1.252l2.09 2.152c.266-.258.588-.404 1.088-.404v-3zm3.392 1.578c-.853-1.065-2.046-1.578-3.392-1.578v3c.523 0 .82.165 1.051.454l2.341-1.876zm1.163 3.597c0-1.363-.367-2.604-1.163-3.597l-2.34 1.876c.29.362.503.902.503 1.721h3zm-.67 2.6a5.28 5.28 0 0 0 .67-2.6h-3c0 .426-.101.8-.29 1.137l2.62 1.464zm-1.948 1.918a4.85 4.85 0 0 0 1.947-1.917l-2.618-1.464a1.852 1.852 0 0 1-.754.742l1.425 2.64zm-2.644.657c.948 0 1.837-.221 2.644-.657l-1.425-2.64a2.504 2.504 0 0 1-1.219.297v3zm-2.788-.712c.84.48 1.782.712 2.788.712v-3c-.533 0-.954-.12-1.3-.317l-1.488 2.605zm-1.992-2.098a5.04 5.04 0 0 0 1.992 2.098l1.487-2.605a2.041 2.041 0 0 1-.81-.862l-2.67 1.37zm-.683-2.882c.016 1.041.237 2.012.683 2.882l2.67-1.369c-.21-.41-.343-.918-.353-1.558l-3 .045zm0-1.013v.99h3v-.99h-3zm.903-3.692c-.612 1.12-.903 2.363-.903 3.692h3c0-.88.189-1.618.536-2.254l-2.633-1.438zm2.6-2.65a6.768 6.768 0 0 0-2.6 2.65l2.633 1.438a3.768 3.768 0 0 1 1.464-1.489l-1.497-2.6zm3.69-.953c-1.325 0-2.572.309-3.69.953l1.497 2.6c.624-.36 1.347-.553 2.193-.553v-3zm.378 0h-.378v3h.378v-3zm1.328 2.2.012-.026-2.68-1.348-.012.025 2.68 1.348zm-3.592 6.333a.262.262 0 0 1-.057.028c-.006.001.012-.005.062-.005v-3c-.562 0-1.142.132-1.661.476l1.656 2.5zm.049-.074a.26.26 0 0 1-.04.063c-.014.016-.02.019-.009.01l-1.656-2.5c-.44.29-.805.69-1.034 1.202l2.739 1.225zm.13.128v-.74h-3v.74h3zm-.086.532c-.058 0-.035-.01.028.02.07.033.12.083.143.116.016.023-.008 0-.035-.116a2.527 2.527 0 0 1-.05-.552h-3c0 .802.13 1.673.62 2.379.56.806 1.413 1.153 2.294 1.153v-3zm-.256.101c-.015.02.007-.015.078-.052a.408.408 0 0 1 .178-.05v3c.896 0 1.64-.422 2.15-1.105l-2.406-1.793zm.082-.37c0 .246-.059.34-.082.37l2.406 1.793c.482-.647.676-1.405.676-2.163h-3zm-.056-.333c-.008-.01.006.001.022.057a.982.982 0 0 1 .034.276h3c0-.73-.182-1.554-.728-2.225l-2.328 1.892zm.13.052-.022-.004a.285.285 0 0 1-.062-.022c-.048-.023-.061-.045-.046-.026l2.328-1.892a2.775 2.775 0 0 0-2.199-1.056v3zm-1.045-2.576-.013.012 2.115 2.128.012-.013-2.114-2.128zM18.6 18.99h1.174v-3H18.6v3zm1.5-1.475v-.025h-3v.025h3zm0 1.844v-1.844h-3v1.844h3zm-.288-1.5H18.6v3h1.212v-3zm2.096.697c-.627-.534-1.4-.697-2.096-.697v3c.125 0 .19.015.21.021.016.005-.014-.001-.06-.04l1.946-2.284zm.931 2.283c0-.763-.197-1.657-.931-2.283l-1.945 2.284a.554.554 0 0 1-.101-.113.348.348 0 0 1-.038-.071c-.003-.008.001 0 .006.031s.01.08.01.152h3zm-.888 2.044c.62-.558.888-1.297.888-2.044h-3c0 .02-.003-.008.02-.061a.362.362 0 0 1 .086-.126l2.006 2.23zm-2.05.748c.75 0 1.467-.224 2.05-.748l-2.006-2.231a.15.15 0 0 1 .047-.028c.01-.004-.013.007-.092.007v3zm-1.988-.748c.555.5 1.246.748 1.987.748v-3l-.027-.001.011.003a.143.143 0 0 1 .024.012l.01.007-2.005 2.23zm-.901-1.968c0 .803.36 1.482.9 1.968l2.007-2.231c-.005-.004.022.02.05.078.03.061.043.128.043.184h-3zM16 22.415h2.512v-3H16v3zm1.707-.726c-.122-.18-.207-.428-.207-.774h-3c0 .857.218 1.713.727 2.46l2.48-1.686zm.734.572c-.369-.16-.591-.362-.734-.572l-2.48 1.687c.488.719 1.175 1.27 2.018 1.636l1.196-2.751zm1.37.277c-.505 0-.957-.098-1.37-.277l-1.196 2.75c.799.348 1.66.527 2.567.527v-3zm1.998-.552c-.417.324-1.039.552-1.997.552v3c1.44 0 2.762-.35 3.834-1.18l-1.837-2.372zm.53-1.11c0 .504-.163.826-.53 1.11l1.837 2.372c1.123-.87 1.692-2.078 1.692-3.481h-3zm-.182-.64c.1.13.181.312.181.64h3c0-.9-.247-1.747-.803-2.47l-2.378 1.83zm-.661-.44c.335.118.534.275.661.44l2.378-1.83c-.53-.687-1.24-1.157-2.04-1.44l-1 2.83zm.508-3.267c-.115.165-.297.333-.638.49l1.259 2.723c.744-.344 1.37-.828 1.835-1.49l-2.456-1.723zm.158-.444c0 .133-.03.262-.158.444l2.456 1.722c.454-.646.702-1.37.702-2.166h-3zm-.453-1.068c.28.222.453.52.453 1.069h3c0-1.358-.51-2.566-1.592-3.422l-1.861 2.353zm-1.897-.492c.982 0 1.561.226 1.896.492l1.862-2.353c-1.028-.813-2.343-1.139-3.758-1.139v3zm-1.251.255c.374-.161.792-.255 1.25-.255v-3c-.878 0-1.697.182-2.433.498l1.183 2.757zm-.703.548c.174-.233.394-.416.703-.548l-1.183-2.757a4.664 4.664 0 0 0-1.923 1.509l2.403 1.796zm-.181.607c0-.276.067-.454.18-.607l-2.402-1.796c-.542.725-.778 1.55-.778 2.403h3zm1.012-1.5h-2.512v3h2.512v-3zm-.56-.395c-.56.439-.94 1.094-.94 1.895h3c0 .083-.02.189-.075.293a.53.53 0 0 1-.134.172l-1.851-2.36zm1.784-.608c-.65 0-1.27.204-1.784.608l1.851 2.36a.17.17 0 0 1-.049.026c-.02.007-.028.006-.018.006v-3zm2.021.805c-.58-.61-1.343-.805-2.021-.805v3c.065 0 .067.009.028-.005a.493.493 0 0 1-.181-.123l2.174-2.067zm.741 1.899c0-.705-.24-1.372-.74-1.9l-2.175 2.068a.346.346 0 0 1-.07-.112c-.016-.044-.015-.068-.015-.056h3zm-2.901 2.854c.686 0 1.478-.165 2.093-.76.625-.604.808-1.399.808-2.094h-3c0 .1-.013.126-.006.103a.512.512 0 0 1 .258-.261c.007-.002-.036.012-.153.012v3zm20.071.52c0 1.232-.28 1.96-.638 2.39l2.308 1.917c.955-1.15 1.33-2.654 1.33-4.307h-3zm0-.013v.013h3v-.013h-3zm0-1.944v1.944h3v-1.944h-3zm-.638-2.39c.357.43.638 1.158.638 2.39h3c0-1.653-.375-3.157-1.33-4.307l-2.308 1.916zm-1.623-.638c.83 0 1.304.254 1.623.637l2.308-1.916c-.995-1.197-2.389-1.72-3.931-1.72v3zm-1.61.65c.329-.396.799-.65 1.61-.65v-3c-1.562 0-2.935.55-3.918 1.733l2.308 1.917zm-.639 2.39c0-1.232.281-1.96.639-2.39l-2.308-1.917c-.956 1.15-1.33 2.655-1.33 4.308h3zm0 1.957v-1.956h-3v1.956h3zm.639 2.378c-.359-.43-.639-1.16-.639-2.378h-3c0 1.642.376 3.146 1.33 4.295l2.309-1.917zm1.623.638c-.83 0-1.305-.254-1.623-.638l-2.308 1.917c.994 1.197 2.388 1.72 3.93 1.72v-3zm1.61-.638c-.322.388-.786.638-1.61.638v3c1.548 0 2.927-.528 3.918-1.721L39.207 21.9zm1.152-4.66c0-.843-.102-1.722-.482-2.428l-2.643 1.418.007.016.018.05c.014.045.031.11.047.198.031.18.053.425.053.745h3zm0 .012v-.012h-3v.012h3zm0 2.646v-2.646h-3v2.646h3zm-.504 2.422c.388-.7.49-1.574.504-2.397l-3-.05a4.67 4.67 0 0 1-.062.75c-.034.183-.068.246-.065.24l2.623 1.457zm-2.246 1.311c.423 0 .881-.085 1.313-.338.434-.253.73-.61.933-.973l-2.623-1.456s.05-.087.178-.162c.126-.073.218-.07.2-.07v3zm-2.28-1.342c.212.397.527.76.967 1.01.434.247.892.332 1.313.332v-3c-.021 0 .06-.003.174.063.12.069.177.155.188.176l-2.643 1.419zm-.482-2.466c0 .873.1 1.756.481 2.466l2.643-1.42s-.01-.018-.024-.063a1.556 1.556 0 0 1-.046-.2 4.702 4.702 0 0 1-.054-.783h-3zm0-2.734v2.734h3V17.09h-3zm.495-2.317c-.353.655-.48 1.471-.495 2.29l3 .053c.005-.287.03-.509.062-.67.034-.167.068-.24.074-.25l-2.64-1.423zm2.255-1.315c-.421 0-.875.084-1.303.327a2.462 2.462 0 0 0-.952.988l2.64 1.423a.55.55 0 0 1-.206.198c-.119.067-.2.064-.18.064v-3zm2.28 1.355a2.55 2.55 0 0 0-.948-1.006 2.595 2.595 0 0 0-1.333-.35v3c.004 0-.08 0-.192-.066a.473.473 0 0 1-.17-.16l2.643-1.418zm4.52.283c0-.18.045-.277.16-.388l-2.082-2.16a3.453 3.453 0 0 0-1.077 2.548h3zm-1.487-1.5h-.012v3h.012v-3zm1.647 1.861a.442.442 0 0 1-.147-.361h-3c0 .958.359 1.842 1.066 2.523l2.08-2.162zm.423.17a.552.552 0 0 1-.423-.17l-2.081 2.162a3.546 3.546 0 0 0 2.504 1.009v-3zm.382-.153a.476.476 0 0 1-.382.154v3c.964 0 1.824-.357 2.497-1.026l-2.115-2.128zm.15-.378c0 .18-.044.273-.15.378l2.115 2.128a3.45 3.45 0 0 0 1.036-2.506h-3zm-.18-.42c.135.137.18.257.18.42h3c0-.991-.383-1.85-1.031-2.515l-2.148 2.094zm-.352-.15c.152 0 .244.038.353.15l2.148-2.095a3.422 3.422 0 0 0-2.5-1.055v3zm-.423.182a.555.555 0 0 1 .423-.182v-3c-.956 0-1.818.36-2.505 1.022l2.082 2.16zm.423 2.803c.633 0 1.262-.227 1.74-.739l-2.192-2.048a.702.702 0 0 1 .244-.167.568.568 0 0 1 .208-.046v3zm.013-3h-.013v3h.013v-3zm-1.676 2.337a2.428 2.428 0 0 0 1.676.663v-3a.571.571 0 0 1 .364.137l-2.04 2.2zm-.758-1.752c0 .655.244 1.276.758 1.752l2.04-2.2a.656.656 0 0 1 .202.448h-3zm.672-1.692a2.423 2.423 0 0 0-.672 1.692h3a.554.554 0 0 1-.042.2.536.536 0 0 1-.1.162l-2.186-2.054zm1.75-.75c-.652 0-1.271.24-1.75.75l2.186 2.054a.65.65 0 0 1-.437.197v-3zm1.773.79c-.485-.556-1.134-.79-1.774-.79v3a.599.599 0 0 1-.225-.05.726.726 0 0 1-.261-.187l2.26-1.972zm.623 1.652c0-.65-.237-1.209-.622-1.651l-2.261 1.972a.52.52 0 0 1-.117-.321h3zm-.657 1.676a2.416 2.416 0 0 0 .657-1.676h-3a.58.58 0 0 1 .152-.372l2.191 2.048z" fill="#6EB763" mask="url(#qgqm2qn54b)"/>
</svg>
