<svg width="34" height="53" viewBox="0 0 34 53" fill="none" xmlns="http://www.w3.org/2000/svg">
    <path d="M1 17.144C1 8.227 8.631 1 17 1c8.407 0 16 7.213 16 16.144 0 8.645-6.497 18.9-15.137 33.405a1.003 1.003 0 0 1-1.724 0C7.521 36.041 1 25.774 1 17.143z" fill="#74318E" stroke="#fff" stroke-width="2" stroke-linejoin="round"/>
    <ellipse cx="17" cy="17.04" rx="10.256" ry="10.282" fill="#fff"/>
    <path d="M17.35 23.224c-2.24 0-4.065-1.888-4.065-5.888 0-4.512 2.113-6.32 4.448-6.32 1.313 0 2.273.544 2.944 1.264L19.67 13.4c-.431-.512-1.152-.88-1.84-.88-1.567 0-2.832 1.216-2.832 4.816 0 3.04.896 4.464 2.337 4.464 1.024 0 1.823-.928 1.823-2.448s-.688-2.368-1.936-2.368c-.704 0-1.552.416-2.255 1.488l-.08-1.344c.688-.928 1.776-1.472 2.655-1.472 1.985 0 3.328 1.2 3.328 3.696 0 2.336-1.616 3.872-3.52 3.872z" fill="#74318E"/>
</svg>
