<svg width="276" height="276" viewBox="0 0 276 276" fill="none" xmlns="http://www.w3.org/2000/svg">
    <g clip-path="url(#s9xxgmcr4a)" fill="#fff">
        <path d="M270.957 85.093c2.863 0 4.295-1.485 4.295-4.454V39.127c0-12.725-3.34-22.427-10.021-29.107C258.657 3.34 248.955 0 236.125 0h-41.353C191.591 0 190 1.431 190 4.294c0 2.97 1.591 4.454 4.772 4.454h41.035c9.755 0 17.336 2.598 22.744 7.793 5.408 5.196 8.112 12.83 8.112 22.904v41.194c0 2.97 1.431 4.454 4.294 4.454zM194.52 275.093h41.353c12.831 0 22.533-3.394 29.107-10.18 6.68-6.68 10.02-16.329 10.02-28.947v-41.513c0-2.969-1.431-4.453-4.294-4.453-2.863 0-4.295 1.484-4.295 4.453v41.036c0 10.179-2.704 17.867-8.111 23.062-5.408 5.196-12.989 7.794-22.745 7.794H194.52c-3.181 0-4.771 1.431-4.771 4.294 0 2.969 1.59 4.454 4.771 4.454zM4.294 85.093c2.97 0 4.454-1.485 4.454-4.454V39.445c0-10.073 2.598-17.708 7.793-22.904 5.196-5.195 12.883-7.793 23.063-7.793h41.194c2.97 0 4.454-1.485 4.454-4.454C85.252 1.431 83.767 0 80.798 0H39.286C26.349 0 16.54 3.34 9.86 10.02 3.287 16.594 0 26.296 0 39.127v41.512c0 2.97 1.431 4.454 4.294 4.454zM39.286 275.093h41.512c2.97 0 4.454-1.485 4.454-4.454 0-2.863-1.485-4.294-4.454-4.294H39.604c-10.18 0-17.867-2.598-23.063-7.794-5.195-5.195-7.793-12.883-7.793-23.062v-41.036c0-2.969-1.485-4.453-4.454-4.453C1.431 190 0 191.484 0 194.453v41.513c0 12.83 3.287 22.532 9.861 29.106 6.68 6.68 16.488 10.021 29.425 10.021z"/>
    </g>
    <defs>
        <clipPath id="s9xxgmcr4a">
            <path fill="#fff" d="M0 0h276v276H0z"/>
        </clipPath>
    </defs>
</svg>
