<svg width="34" height="53" viewBox="0 0 34 53" fill="none" xmlns="http://www.w3.org/2000/svg">
    <path d="M1 17.144C1 8.227 8.631 1 17 1c8.407 0 16 7.213 16 16.144 0 8.645-6.497 18.9-15.137 33.405a1.003 1.003 0 0 1-1.724 0C7.521 36.041 1 25.774 1 17.143z" fill="#74318E" stroke="#fff" stroke-width="2" stroke-linejoin="round"/>
    <ellipse cx="17" cy="17.04" rx="10.256" ry="10.282" fill="#fff"/>
    <path d="M17.014 23.224c-2.224 0-3.84-1.312-3.84-3.136 0-1.552 1.008-2.608 2.096-3.184v-.064c-.88-.624-1.585-1.52-1.585-2.752 0-1.84 1.44-3.04 3.376-3.04 2.049 0 3.313 1.264 3.313 3.104 0 1.216-.816 2.224-1.537 2.784v.08c1.056.592 1.985 1.504 1.985 3.12 0 1.744-1.537 3.088-3.808 3.088zm.768-6.752c.703-.656 1.055-1.408 1.055-2.208 0-1.072-.671-1.888-1.808-1.888-.96 0-1.68.656-1.68 1.712 0 1.264 1.12 1.856 2.433 2.384zm-.736 5.408c1.2 0 2.032-.704 2.032-1.808 0-1.424-1.296-1.968-2.896-2.64-.816.576-1.392 1.44-1.392 2.464 0 1.168.976 1.984 2.256 1.984z" fill="#74318E"/>
</svg>
