<svg width="101" height="34" viewBox="0 0 101 34" fill="none" xmlns="http://www.w3.org/2000/svg">
    <path d="M83.552 6.458c0-.473.356-.87.826-.923L98.746 3.94a.928.928 0 0 1 .969 1.256l-3.96 10.297a.928.928 0 0 0 .009.69l4.022 9.654a.928.928 0 0 1-.754 1.28L84.583 28.72a.928.928 0 0 1-1.03-.922V6.458zM17.639 9.885a.928.928 0 0 0-1.005-.925L2.198 10.163a.928.928 0 0 0-.78 1.282l4.01 9.62c.091.221.094.468.009.691L1.46 32.096a.928.928 0 0 0 .943 1.259l14.385-1.199a.928.928 0 0 0 .85-.925V9.885z" fill="#C14D97"/>
    <path d="m17.639 31.157-9.284-2.321 9.284-1.857v4.178zM83.552 27.907l9.284-4.641h-9.284v4.641z" fill="#893169"/>
    <path d="M6.499 7.37c0-.98.761-1.791 1.74-1.853L92.718.181a1.857 1.857 0 0 1 1.974 1.853v19.489c0 .98-.762 1.79-1.74 1.853L8.473 28.71a1.857 1.857 0 0 1-1.974-1.853V7.37z" fill="#DA53A9"/>
    <path d="M37.583 11.446h8.672v1.838h-8.672v-1.838zm-3.075 3.074H49.48v1.872H34.508V14.52zm4.16 1.37h2.056c-.167 3.543-.785 5.482-5.48 6.384-.151-.501-.653-1.287-1.037-1.704 4.027-.652 4.328-1.905 4.462-4.68zm4.279-.267h2.038v3.994c0 .535.084.602.669.602h1.637c.518 0 .619-.284.686-2.039.417.317 1.27.635 1.804.769-.217 2.44-.735 3.091-2.306 3.091H45.37c-1.956 0-2.423-.601-2.423-2.423v-3.994zm-8.138-7.319h14.304v4.178h-2.089v-2.256h-10.21v2.256h-2.005V8.304zm5.564-1.32 2.056-.585c.434.735.885 1.738 1.052 2.406l-2.189.652c-.133-.635-.518-1.688-.919-2.473zm13.001 5.882h3.86v1.838h-3.86v-1.838zm3.091 0h1.955s-.016.501-.016.735c-.067 3.543-.15 5.03-.535 5.548-.334.418-.668.568-1.153.652-.451.067-1.17.067-1.955.05-.034-.585-.25-1.37-.552-1.871.602.066 1.17.066 1.438.066.233 0 .384-.033.518-.2.2-.268.267-1.437.3-4.68v-.3zm5.03-5.23 1.203-1.22c.92.484 2.156 1.253 2.758 1.805l-1.287 1.353c-.551-.585-1.738-1.404-2.674-1.938zm1.972 4.294 2.022.485c-1.404 4.361-3.86 7.754-7.169 9.792-.3-.418-1.036-1.253-1.454-1.654 3.209-1.721 5.448-4.746 6.601-8.623zm-9.976-2.84h12.884v1.971H53.49V9.09zm-1.337 0h2.106v4.912c0 2.507-.285 6.217-1.805 8.473-.334-.401-1.237-1.137-1.705-1.37 1.287-2.006 1.404-4.93 1.404-7.12V9.09zm6.784-2.49h2.106c-.117 6.818 1.42 13.518 3.108 13.518.385 0 .585-.852.685-2.957.451.468 1.17.935 1.705 1.136-.318 3.108-.986 3.86-2.557 3.86-3.643 0-4.996-7.937-5.047-15.557z" fill="#fff"/>
</svg>
