<svg width="34" height="53" viewBox="0 0 34 53" fill="none" xmlns="http://www.w3.org/2000/svg">
    <path d="M1 17.144C1 8.227 8.631 1 17 1c8.407 0 16 7.213 16 16.144 0 8.645-6.497 18.9-15.137 33.405a1.003 1.003 0 0 1-1.724 0C7.521 36.041 1 25.774 1 17.143z" fill="#74318E" stroke="#fff" stroke-width="2" stroke-linejoin="round"/>
    <ellipse cx="17" cy="17.04" rx="10.256" ry="10.282" fill="#fff"/>
    <path d="M13.126 23v-1.072c3.487-3.072 5.264-5.36 5.264-7.296 0-1.264-.672-2.144-1.985-2.144-.928 0-1.696.576-2.32 1.296l-1.056-1.008c1.024-1.104 2.065-1.76 3.6-1.76 2.16 0 3.552 1.392 3.552 3.536 0 2.256-1.823 4.608-4.32 7.008.608-.064 1.36-.128 1.936-.128h2.944V23h-7.615z" fill="#74318E"/>
</svg>
