<svg width="34" height="53" viewBox="0 0 34 53" fill="none" xmlns="http://www.w3.org/2000/svg">
    <path d="M1 17.144C1 8.227 8.631 1 17 1c8.407 0 16 7.213 16 16.144 0 8.645-6.497 18.9-15.137 33.405a1.003 1.003 0 0 1-1.724 0C7.521 36.041 1 25.774 1 17.143z" fill="#74318E" stroke="#fff" stroke-width="2" stroke-linejoin="round"/>
    <ellipse cx="17" cy="17.04" rx="10.256" ry="10.282" fill="#fff"/>
    <path d="M16.71 23.224c-1.84 0-3.04-.736-3.84-1.632l.912-1.184c.688.704 1.552 1.296 2.784 1.296 1.312 0 2.224-.736 2.224-1.952 0-1.312-.832-2.144-3.472-2.144v-1.376c2.304 0 3.072-.864 3.072-2.048 0-1.04-.672-1.696-1.809-1.696-.896 0-1.663.432-2.335 1.104l-.976-1.168c.944-.832 2.032-1.408 3.392-1.408 2.111 0 3.6 1.088 3.6 3.024 0 1.36-.785 2.304-2.032 2.768v.08c1.36.352 2.431 1.36 2.431 2.96 0 2.128-1.776 3.376-3.952 3.376z" fill="#74318E"/>
</svg>
