<svg width="60" height="60" viewBox="0 0 60 60" fill="none" xmlns="http://www.w3.org/2000/svg">
    <circle cx="30" cy="30" r="30" fill="#EE7836"/>
    <path d="M27.301 35.213a.55.55 0 0 1 .201-.751l7.68-4.433a.55.55 0 0 1 .75.2l9.199 15.933a.55.55 0 0 1-.493.824l-4.462-.136a.55.55 0 0 0-.498.284l-2.214 4.013a.55.55 0 0 1-.958.01L27.3 35.212z" fill="#fff"/>
    <path d="M24.646 30.23a.55.55 0 0 1 .752-.201l7.679 4.433a.55.55 0 0 1 .2.751L24.08 51.145a.55.55 0 0 1-.961-.015L21.007 47.2a.55.55 0 0 0-.495-.29l-4.583.089a.55.55 0 0 1-.487-.825l9.204-15.943z" fill="#fff"/>
    <path d="m33.32 11.087-2.096-1.34a1.85 1.85 0 0 0-1.994 0l-2.095 1.34a.35.35 0 0 1-.24.052l-2.46-.372a1.85 1.85 0 0 0-1.821.81l-1.37 2.077a.35.35 0 0 1-.199.145l-2.398.66a1.85 1.85 0 0 0-1.334 1.482l-.406 2.454a.35.35 0 0 1-.123.213l-1.922 1.579a1.85 1.85 0 0 0-.616 1.896l.627 2.407a.35.35 0 0 1-.026.245l-1.114 2.224a1.85 1.85 0 0 0 .209 1.982l1.551 1.944a.35.35 0 0 1 .076.234l-.112 2.485a1.85 1.85 0 0 0 .996 1.727l2.209 1.144a.35.35 0 0 1 .165.183l.907 2.316a1.85 1.85 0 0 0 1.613 1.172l2.483.147a.35.35 0 0 1 .225.1l1.77 1.747a1.85 1.85 0 0 0 1.95.414l2.33-.875a.35.35 0 0 1 .245 0l2.329.875a1.85 1.85 0 0 0 1.95-.414l1.77-1.746a.35.35 0 0 1 .226-.1l2.483-.148a1.85 1.85 0 0 0 1.612-1.172l.908-2.316a.35.35 0 0 1 .165-.183L44 35.33a1.85 1.85 0 0 0 .997-1.726l-.113-2.485a.35.35 0 0 1 .076-.234l1.552-1.944a1.85 1.85 0 0 0 .208-1.982l-1.113-2.224a.35.35 0 0 1-.026-.245l.627-2.407a1.85 1.85 0 0 0-.616-1.896l-1.922-1.58a.35.35 0 0 1-.123-.212l-.407-2.454a1.85 1.85 0 0 0-1.334-1.482l-2.398-.66a.35.35 0 0 1-.199-.145l-1.37-2.077a1.85 1.85 0 0 0-1.82-.81l-2.46.372a.35.35 0 0 1-.24-.052z" fill="#fff" stroke="#EE7836" stroke-width="1.5"/>
    <circle cx="30.227" cy="26.227" r="10.704" fill="#fff" stroke="#EE7836" stroke-width="1.5"/>
    <path d="M29.706 20.21a.6.6 0 0 1 1.133 0l1.102 3.153a.6.6 0 0 0 .555.402l3.349.067a.6.6 0 0 1 .349 1.08l-2.664 2.007a.6.6 0 0 0-.213.654l.97 3.184a.6.6 0 0 1-.916.668l-2.757-1.907a.6.6 0 0 0-.683 0l-2.757 1.907a.6.6 0 0 1-.915-.668l.97-3.184a.6.6 0 0 0-.214-.654l-2.663-2.008a.6.6 0 0 1 .349-1.079l3.349-.067a.6.6 0 0 0 .554-.402l1.102-3.152z" fill="#EE7836"/>
</svg>
