<svg width="99" height="99" viewBox="0 0 99 99" fill="none" xmlns="http://www.w3.org/2000/svg">
    <path d="M45.882 3a7.427 7.427 0 0 1 7.427 0L88.09 23.083a7.427 7.427 0 0 1 3.714 6.432v40.163a7.427 7.427 0 0 1-3.714 6.432L53.31 96.19a7.427 7.427 0 0 1-7.427 0L11.1 76.11a7.427 7.427 0 0 1-3.714-6.432V29.514a7.427 7.427 0 0 1 3.714-6.432L45.882 3.001z" fill="#9638BA"/>
    <path d="M45.882 3a7.427 7.427 0 0 1 7.427 0L88.09 23.083a7.427 7.427 0 0 1 3.714 6.432v40.163a7.427 7.427 0 0 1-3.714 6.432L53.31 96.19a7.427 7.427 0 0 1-7.427 0L11.1 76.11a7.427 7.427 0 0 1-3.714-6.432V29.514a7.427 7.427 0 0 1 3.714-6.432L45.882 3.001z" fill="#fff" fill-opacity=".7"/>
    <path d="M45.882 3a7.427 7.427 0 0 1 7.427 0L88.09 23.083a7.427 7.427 0 0 1 3.714 6.432v40.163a7.427 7.427 0 0 1-3.714 6.432L53.31 96.19a7.427 7.427 0 0 1-7.427 0L11.1 76.11a7.427 7.427 0 0 1-3.714-6.432V29.514a7.427 7.427 0 0 1 3.714-6.432L45.882 3.001z" fill="url(#szk2fx56da)" fill-opacity=".5"/>
    <path d="m75.12 29.767-21.115-12.19a8.82 8.82 0 0 0-8.82 0l-21.114 12.19a8.82 8.82 0 0 0-4.41 7.638v24.381a8.82 8.82 0 0 0 4.41 7.638l21.115 12.19a8.82 8.82 0 0 0 8.82 0l21.114-12.19a8.82 8.82 0 0 0 4.41-7.638v-24.38a8.82 8.82 0 0 0-4.41-7.639z" fill="#9638BA"/>
    <path d="m75.12 29.767-21.115-12.19a8.82 8.82 0 0 0-8.82 0l-21.114 12.19a8.82 8.82 0 0 0-4.41 7.638v24.381a8.82 8.82 0 0 0 4.41 7.638l21.115 12.19a8.82 8.82 0 0 0 8.82 0l21.114-12.19a8.82 8.82 0 0 0 4.41-7.638v-24.38a8.82 8.82 0 0 0-4.41-7.639z" fill="#fff" fill-opacity=".3"/>
    <path d="m75.12 29.767-21.115-12.19a8.82 8.82 0 0 0-8.82 0l-21.114 12.19a8.82 8.82 0 0 0-4.41 7.638v24.381a8.82 8.82 0 0 0 4.41 7.638l21.115 12.19a8.82 8.82 0 0 0 8.82 0l21.114-12.19a8.82 8.82 0 0 0 4.41-7.638v-24.38a8.82 8.82 0 0 0-4.41-7.639z" stroke="url(#css6x0psab)" stroke-width="2.785"/>
    <path d="M86.902 31.942a10.593 10.593 0 0 0-5.76 5.752.49.49 0 0 1-.899 0 10.599 10.599 0 0 0-5.749-5.752.488.488 0 0 1 0-.9 10.594 10.594 0 0 0 5.75-5.75.489.489 0 0 1 .899 0 10.597 10.597 0 0 0 5.749 5.75.488.488 0 0 1 .01.9zM52.28 46.107c3.803 0 7.13 2.584 7.13 6.654 0 4.456-3.743 7.278-8.437 7.278-5.942 0-9.982-3.416-9.982-10.219 0-7.278 4.664-11.526 11.527-11.526 2.465 0 4.872.594 6.446 1.634l-2.525 4.901c-1.218-.861-2.466-1.099-3.773-1.099-2.376 0-4.04 1.218-4.515 3.535 1.04-.742 2.376-1.158 4.129-1.158zm-1.782 9.09c1.247 0 2.139-.802 2.139-2.109s-.892-2.139-2.14-2.139c-1.247 0-2.138.832-2.138 2.139s.89 2.11 2.139 2.11z" fill="#fff"/>
    <defs>
        <linearGradient id="szk2fx56da" x1="25.922" y1="16.175" x2="68.627" y2="88.122" gradientUnits="userSpaceOnUse">
            <stop stop-color="#fff"/>
            <stop offset="1" stop-color="#fff" stop-opacity="0"/>
        </linearGradient>
        <linearGradient id="css6x0psab" x1="49.596" y1="16.639" x2="49.596" y2="82.552" gradientUnits="userSpaceOnUse">
            <stop stop-color="#9543B4"/>
            <stop offset="1" stop-color="#fff"/>
        </linearGradient>
    </defs>
</svg>
