<svg width="15" height="15" viewBox="0 0 15 15" fill="none" xmlns="http://www.w3.org/2000/svg">
    <g clip-path="url(#4e4ev1kura)">
        <path d="M1.281 2.7 12.31 13.72c.124.125.27.207.44.246a1.02 1.02 0 0 0 .964-.254.922.922 0 0 0 .253-.456 1 1 0 0 0 0-.516.9.9 0 0 0-.245-.44L2.702 1.28a.9.9 0 0 0-.44-.246c-.169-.04-.34-.04-.516 0a.922.922 0 0 0-.456.254c-.124.13-.209.282-.254.456-.04.17-.04.341 0 .516a1 1 0 0 0 .245.44zm0 9.608a.941.941 0 0 0-.245.44c-.045.17-.048.341-.008.516a.93.93 0 0 0 .262.449.92.92 0 0 0 .456.253.998.998 0 0 0 .516 0 .899.899 0 0 0 .44-.245L13.721 2.7a.9.9 0 0 0 .245-.44 1 1 0 0 0 0-.517.922.922 0 0 0-.253-.456 1.018 1.018 0 0 0-.457-.254.968.968 0 0 0-.508 0 .9.9 0 0 0-.44.245L1.282 12.31z" fill="#333"/>
    </g>
    <defs>
        <clipPath id="4e4ev1kura">
            <path fill="#fff" d="M0 0h15v15H0z"/>
        </clipPath>
    </defs>
</svg>
