<svg width="347" height="104" viewBox="0 0 347 104" fill="none" xmlns="http://www.w3.org/2000/svg">
    <g filter="url(#w92yubw52a)">
        <path fill-rule="evenodd" clip-rule="evenodd" d="M255.5 7a2.5 2.5 0 0 0 2.5-2.5c0-.26.193-.5.453-.5H333a8 8 0 0 1 8 8v25.8c0 1.657-1.369 2.956-2.962 3.41C333.961 42.372 331 45.868 331 50c0 4.132 2.961 7.628 7.038 8.79 1.593.454 2.962 1.753 2.962 3.41V88a8 8 0 0 1-8 8h-74.547c-.26 0-.453-.24-.453-.5a2.5 2.5 0 1 0-5 0c0 .26-.193.5-.453.5H14a8 8 0 0 1-8-8V61.508c0-1.445 1.055-2.642 2.373-3.232C11.705 56.783 14 53.638 14 50s-2.295-6.783-5.627-8.276C7.055 41.134 6 39.937 6 38.492V12a8 8 0 0 1 8-8h238.547c.26 0 .453.24.453.5a2.5 2.5 0 0 0 2.5 2.5zm2.5 4.5a2.5 2.5 0 1 1-5 0 2.5 2.5 0 0 1 5 0zm-2.5 9.5a2.5 2.5 0 1 0 0-5 2.5 2.5 0 0 0 0 5zm2.5 4.5a2.5 2.5 0 1 1-5 0 2.5 2.5 0 0 1 5 0zm-2.5 9.5a2.5 2.5 0 1 0 0-5 2.5 2.5 0 0 0 0 5zm2.5 4.5a2.5 2.5 0 1 1-5 0 2.5 2.5 0 0 1 5 0zm-2.5 9.5a2.5 2.5 0 1 0 0-5 2.5 2.5 0 0 0 0 5zm2.5 4.5a2.5 2.5 0 1 1-5 0 2.5 2.5 0 0 1 5 0zm-2.5 9.5a2.5 2.5 0 1 0 0-5 2.5 2.5 0 0 0 0 5zm2.5 4.5a2.5 2.5 0 1 1-5 0 2.5 2.5 0 0 1 5 0zm-2.5 9.5a2.5 2.5 0 1 0 0-5 2.5 2.5 0 0 0 0 5zm2.5 4.5a2.5 2.5 0 1 1-5 0 2.5 2.5 0 0 1 5 0zm-2.5 9.5a2.5 2.5 0 1 0 0-5 2.5 2.5 0 0 0 0 5z" fill="#fff"/>
        <mask id="sxlpll5bsb" style="mask-type:alpha" maskUnits="userSpaceOnUse" x="6" y="4" width="335" height="92">
            <path fill-rule="evenodd" clip-rule="evenodd" d="M255.5 7a2.5 2.5 0 0 0 2.5-2.5c0-.26.193-.5.453-.5H333a8 8 0 0 1 8 8v25.8c0 1.657-1.369 2.956-2.962 3.41C333.961 42.372 331 45.868 331 50c0 4.132 2.961 7.628 7.038 8.79 1.593.454 2.962 1.753 2.962 3.41V88a8 8 0 0 1-8 8h-74.547c-.26 0-.453-.24-.453-.5a2.5 2.5 0 1 0-5 0c0 .26-.193.5-.453.5H14a8 8 0 0 1-8-8V61.508c0-1.445 1.055-2.642 2.373-3.232C11.705 56.783 14 53.638 14 50s-2.295-6.783-5.627-8.276C7.055 41.134 6 39.937 6 38.492V12a8 8 0 0 1 8-8h238.547c.26 0 .453.24.453.5a2.5 2.5 0 0 0 2.5 2.5zm2.5 4.5a2.5 2.5 0 1 1-5 0 2.5 2.5 0 0 1 5 0zm-2.5 9.5a2.5 2.5 0 1 0 0-5 2.5 2.5 0 0 0 0 5zm2.5 4.5a2.5 2.5 0 1 1-5 0 2.5 2.5 0 0 1 5 0zm-2.5 9.5a2.5 2.5 0 1 0 0-5 2.5 2.5 0 0 0 0 5zm2.5 4.5a2.5 2.5 0 1 1-5 0 2.5 2.5 0 0 1 5 0zm-2.5 9.5a2.5 2.5 0 1 0 0-5 2.5 2.5 0 0 0 0 5zm2.5 4.5a2.5 2.5 0 1 1-5 0 2.5 2.5 0 0 1 5 0zm-2.5 9.5a2.5 2.5 0 1 0 0-5 2.5 2.5 0 0 0 0 5zm2.5 4.5a2.5 2.5 0 1 1-5 0 2.5 2.5 0 0 1 5 0zm-2.5 9.5a2.5 2.5 0 1 0 0-5 2.5 2.5 0 0 0 0 5zm2.5 4.5a2.5 2.5 0 1 1-5 0 2.5 2.5 0 0 1 5 0zm-2.5 9.5a2.5 2.5 0 1 0 0-5 2.5 2.5 0 0 0 0 5z" fill="#fff"/>
        </mask>
        <g mask="url(#sxlpll5bsb)">
            <path fill="#DDD" d="M256 4h85v92h-85z"/>
            <g opacity=".3" stroke="#EE7836" stroke-miterlimit="10" stroke-linecap="round">
                <path d="M143.24 97.273 56.789 61.988a13.35 13.35 0 0 0-10.082 0L-39.74 97.273A13.255 13.255 0 0 0-48 109.536v36.534c0 7.32 5.955 13.254 13.301 13.254h172.898c7.346 0 13.301-5.934 13.301-13.254v-36.534a13.25 13.25 0 0 0-8.26-12.263z"/>
                <path d="M130.79 155.761c6.716 0 12.159-5.503 12.159-12.291v-33.886c0-4.987-2.984-9.485-7.551-11.376L56.36 65.48a12.036 12.036 0 0 0-9.218 0l-79.04 32.728c-4.568 1.891-7.552 6.385-7.552 11.376v33.886c0 6.788 5.444 12.291 12.159 12.291H130.79z"/>
                <path d="M124.662 151.489c6.166 0 11.163-4.987 11.163-11.141V109.64c0-4.522-2.74-8.593-6.932-10.308l-72.557-29.66a11.172 11.172 0 0 0-8.463 0l-72.553 29.66a11.142 11.142 0 0 0-6.932 10.308v30.708c0 6.154 4.996 11.141 11.163 11.141h145.111z"/>
                <path d="M117.919 147.923c5.561 0 10.068-4.556 10.068-10.178v-28.062c0-4.13-2.469-7.852-6.253-9.421L56.278 73.161a9.985 9.985 0 0 0-7.635 0l-65.453 27.105c-3.783 1.565-6.252 5.287-6.252 9.421v28.062c0 5.622 4.507 10.177 10.068 10.177h130.909l.004-.003z"/>
                <path d="M110.412 142.937c4.983 0 9.025-4 9.025-8.931v-24.621c0-3.625-2.214-6.89-5.603-8.264L55.17 77.342a9.11 9.11 0 0 0-6.84 0l-58.664 23.779c-3.39 1.374-5.604 4.639-5.604 8.264v24.621c0 4.931 4.043 8.931 9.026 8.931h117.324z"/>
                <path d="M103.621 139.373c4.408 0 7.978-3.526 7.978-7.873v-21.708c0-3.195-1.958-6.076-4.954-7.288L54.774 81.538a8.068 8.068 0 0 0-6.05 0l-51.87 20.966c-2.996 1.212-4.955 4.09-4.955 7.288V131.5c0 4.35 3.574 7.873 7.979 7.873H103.621z"/>
                <path d="M96.875 135.811c3.804 0 6.888-3.096 6.888-6.915v-19.061a6.916 6.916 0 0 0-4.276-6.398l-44.77-18.41a6.878 6.878 0 0 0-5.221 0l-44.77 18.41a6.91 6.91 0 0 0-4.276 6.398v19.061c0 3.819 3.084 6.915 6.888 6.915h89.537z"/>
                <path d="M90.08 131.538c3.226 0 5.844-2.579 5.844-5.763v-15.884c0-2.337-1.432-4.443-3.629-5.333l-37.974-15.34a5.925 5.925 0 0 0-4.43 0l-37.975 15.34c-2.193.886-3.629 2.992-3.629 5.333v15.884c0 3.181 2.615 5.763 5.844 5.763h75.95z"/>
                <path d="M83.243 127.976c2.676 0 4.844-2.149 4.844-4.801v-13.238a4.799 4.799 0 0 0-3.009-4.442L53.587 92.71a4.884 4.884 0 0 0-3.675 0l-31.49 12.785a4.8 4.8 0 0 0-3.01 4.442v13.238c0 2.652 2.168 4.801 4.845 4.801h62.986z"/>
            </g>
        </g>
    </g>
    <defs>
        <filter id="w92yubw52a" x="0" y="0" width="347" height="104" filterUnits="userSpaceOnUse" color-interpolation-filters="sRGB">
            <feFlood flood-opacity="0" result="BackgroundImageFix"/>
            <feColorMatrix in="SourceAlpha" values="0 0 0 0 0 0 0 0 0 0 0 0 0 0 0 0 0 0 127 0" result="hardAlpha"/>
            <feOffset dy="2"/>
            <feGaussianBlur stdDeviation="3"/>
            <feComposite in2="hardAlpha" operator="out"/>
            <feColorMatrix values="0 0 0 0 0 0 0 0 0 0 0 0 0 0 0 0 0 0 0.25 0"/>
            <feBlend in2="BackgroundImageFix" result="effect1_dropShadow_487_13154"/>
            <feBlend in="SourceGraphic" in2="effect1_dropShadow_487_13154" result="shape"/>
        </filter>
    </defs>
</svg>
