<svg width="347" height="104" viewBox="0 0 347 104" fill="none" xmlns="http://www.w3.org/2000/svg">
    <g filter="url(#pw09kv3qha)">
        <path fill-rule="evenodd" clip-rule="evenodd" d="M255.5 7a2.5 2.5 0 0 0 2.5-2.5c0-.26.193-.5.453-.5H333a8 8 0 0 1 8 8v25.8c0 1.657-1.369 2.956-2.962 3.41C333.961 42.372 331 45.868 331 50c0 4.132 2.961 7.628 7.038 8.79 1.593.454 2.962 1.753 2.962 3.41V88a8 8 0 0 1-8 8h-74.547c-.26 0-.453-.24-.453-.5a2.5 2.5 0 1 0-5 0c0 .26-.193.5-.453.5H14a8 8 0 0 1-8-8V61.508c0-1.445 1.055-2.642 2.373-3.232C11.705 56.783 14 53.638 14 50s-2.295-6.783-5.627-8.276C7.055 41.134 6 39.937 6 38.492V12a8 8 0 0 1 8-8h238.547c.26 0 .453.24.453.5a2.5 2.5 0 0 0 2.5 2.5zm2.5 4.5a2.5 2.5 0 1 1-5 0 2.5 2.5 0 0 1 5 0zm-2.5 9.5a2.5 2.5 0 1 0 0-5 2.5 2.5 0 0 0 0 5zm2.5 4.5a2.5 2.5 0 1 1-5 0 2.5 2.5 0 0 1 5 0zm-2.5 9.5a2.5 2.5 0 1 0 0-5 2.5 2.5 0 0 0 0 5zm2.5 4.5a2.5 2.5 0 1 1-5 0 2.5 2.5 0 0 1 5 0zm-2.5 9.5a2.5 2.5 0 1 0 0-5 2.5 2.5 0 0 0 0 5zm2.5 4.5a2.5 2.5 0 1 1-5 0 2.5 2.5 0 0 1 5 0zm-2.5 9.5a2.5 2.5 0 1 0 0-5 2.5 2.5 0 0 0 0 5zm2.5 4.5a2.5 2.5 0 1 1-5 0 2.5 2.5 0 0 1 5 0zm-2.5 9.5a2.5 2.5 0 1 0 0-5 2.5 2.5 0 0 0 0 5zm2.5 4.5a2.5 2.5 0 1 1-5 0 2.5 2.5 0 0 1 5 0zm-2.5 9.5a2.5 2.5 0 1 0 0-5 2.5 2.5 0 0 0 0 5z" fill="url(#50c0arhq9b)"/>
        <mask id="8x4ou089ed" style="mask-type:alpha" maskUnits="userSpaceOnUse" x="6" y="4" width="335" height="92">
            <path fill-rule="evenodd" clip-rule="evenodd" d="M255.5 7a2.5 2.5 0 0 0 2.5-2.5c0-.26.193-.5.453-.5H333a8 8 0 0 1 8 8v25.8c0 1.657-1.369 2.956-2.962 3.41C333.961 42.372 331 45.868 331 50c0 4.132 2.961 7.628 7.038 8.79 1.593.454 2.962 1.753 2.962 3.41V88a8 8 0 0 1-8 8h-74.547c-.26 0-.453-.24-.453-.5a2.5 2.5 0 1 0-5 0c0 .26-.193.5-.453.5H14a8 8 0 0 1-8-8V61.508c0-1.445 1.055-2.642 2.373-3.232C11.705 56.783 14 53.638 14 50s-2.295-6.783-5.627-8.276C7.055 41.134 6 39.937 6 38.492V12a8 8 0 0 1 8-8h238.547c.26 0 .453.24.453.5a2.5 2.5 0 0 0 2.5 2.5zm2.5 4.5a2.5 2.5 0 1 1-5 0 2.5 2.5 0 0 1 5 0zm-2.5 9.5a2.5 2.5 0 1 0 0-5 2.5 2.5 0 0 0 0 5zm2.5 4.5a2.5 2.5 0 1 1-5 0 2.5 2.5 0 0 1 5 0zm-2.5 9.5a2.5 2.5 0 1 0 0-5 2.5 2.5 0 0 0 0 5zm2.5 4.5a2.5 2.5 0 1 1-5 0 2.5 2.5 0 0 1 5 0zm-2.5 9.5a2.5 2.5 0 1 0 0-5 2.5 2.5 0 0 0 0 5zm2.5 4.5a2.5 2.5 0 1 1-5 0 2.5 2.5 0 0 1 5 0zm-2.5 9.5a2.5 2.5 0 1 0 0-5 2.5 2.5 0 0 0 0 5zm2.5 4.5a2.5 2.5 0 1 1-5 0 2.5 2.5 0 0 1 5 0zm-2.5 9.5a2.5 2.5 0 1 0 0-5 2.5 2.5 0 0 0 0 5zm2.5 4.5a2.5 2.5 0 1 1-5 0 2.5 2.5 0 0 1 5 0zm-2.5 9.5a2.5 2.5 0 1 0 0-5 2.5 2.5 0 0 0 0 5z" fill="url(#7zbxq7v58c)"/>
        </mask>
        <g mask="url(#8x4ou089ed)">
            <path fill="#DDD" d="M256 4h85v92h-85z"/>
            <g opacity=".3" stroke="#EE7836" stroke-miterlimit="10" stroke-linecap="round">
                <path d="M143.24 97.273 56.789 61.988a13.35 13.35 0 0 0-10.082 0L-39.74 97.273A13.255 13.255 0 0 0-48 109.536v36.534c0 7.32 5.955 13.254 13.301 13.254h172.898c7.346 0 13.301-5.934 13.301-13.254v-36.534a13.25 13.25 0 0 0-8.26-12.263z"/>
                <path d="M130.79 155.761c6.716 0 12.159-5.503 12.159-12.291v-33.886c0-4.987-2.984-9.485-7.551-11.376L56.36 65.48a12.036 12.036 0 0 0-9.218 0l-79.04 32.728c-4.568 1.891-7.552 6.385-7.552 11.376v33.886c0 6.788 5.444 12.291 12.159 12.291H130.79z"/>
                <path d="M124.662 151.489c6.166 0 11.163-4.987 11.163-11.141V109.64c0-4.522-2.74-8.593-6.932-10.308l-72.557-29.66a11.172 11.172 0 0 0-8.463 0l-72.553 29.66a11.142 11.142 0 0 0-6.932 10.308v30.708c0 6.154 4.996 11.141 11.163 11.141h145.111z"/>
                <path d="M117.919 147.923c5.561 0 10.068-4.556 10.068-10.178v-28.062c0-4.13-2.469-7.852-6.253-9.421L56.278 73.161a9.985 9.985 0 0 0-7.635 0l-65.453 27.105c-3.783 1.565-6.252 5.287-6.252 9.421v28.062c0 5.622 4.507 10.177 10.068 10.177h130.909l.004-.003z"/>
                <path d="M110.412 142.937c4.983 0 9.025-4 9.025-8.931v-24.621c0-3.625-2.214-6.89-5.603-8.264L55.17 77.342a9.11 9.11 0 0 0-6.84 0l-58.664 23.779c-3.39 1.374-5.604 4.639-5.604 8.264v24.621c0 4.931 4.043 8.931 9.026 8.931h117.324z"/>
                <path d="M103.621 139.373c4.408 0 7.978-3.526 7.978-7.873v-21.708c0-3.195-1.958-6.076-4.954-7.288L54.774 81.538a8.068 8.068 0 0 0-6.05 0l-51.87 20.966c-2.996 1.212-4.955 4.09-4.955 7.288V131.5c0 4.35 3.574 7.873 7.979 7.873H103.621z"/>
                <path d="M96.875 135.811c3.804 0 6.888-3.096 6.888-6.915v-19.061a6.916 6.916 0 0 0-4.276-6.398l-44.77-18.41a6.878 6.878 0 0 0-5.221 0l-44.77 18.41a6.91 6.91 0 0 0-4.276 6.398v19.061c0 3.819 3.084 6.915 6.888 6.915h89.537z"/>
                <path d="M90.08 131.538c3.226 0 5.844-2.579 5.844-5.763v-15.884c0-2.337-1.432-4.443-3.629-5.333l-37.974-15.34a5.925 5.925 0 0 0-4.43 0l-37.975 15.34c-2.193.886-3.629 2.992-3.629 5.333v15.884c0 3.181 2.615 5.763 5.844 5.763h75.95z"/>
                <path d="M83.243 127.976c2.676 0 4.844-2.149 4.844-4.801v-13.238a4.799 4.799 0 0 0-3.009-4.442L53.587 92.71a4.884 4.884 0 0 0-3.675 0l-31.49 12.785a4.8 4.8 0 0 0-3.01 4.442v13.238c0 2.652 2.168 4.801 4.845 4.801h62.986z"/>
            </g>
        </g>
        <path d="M280.56 47.836h1.488v5.616c0 .744.204.864 1.536.864h3.96c1.236 0 1.428-.312 1.596-2.076.372.24 1.044.492 1.464.564-.276 2.28-.804 2.94-3 2.94h-4.008c-2.328 0-3.036-.456-3.036-2.292v-5.616zm.864 1.632h6.636v1.428h-6.636v-1.428zm-1.344-3.984h8.94v5.964h-1.5v-4.536h-7.44v-1.428zm16.452-.204h5.952v1.212h-5.952V45.28zm1.68 4.812v.768h2.616v-.768h-2.616zm0 1.752v.768h2.616v-.768h-2.616zm0-3.492v.756h2.616v-.756h-2.616zm-1.284-1.056h5.244v6.372h-5.244v-6.372zm1.896-1.356 1.596.18a37.605 37.605 0 0 1-.66 2.028l-1.224-.228c.12-.576.252-1.392.288-1.98zm-.636 7.74 1.152.768c-.636.624-1.692 1.308-2.568 1.668a8.561 8.561 0 0 0-.924-.948c.864-.324 1.848-.972 2.34-1.488zm1.584.804 1.044-.72c.636.444 1.488 1.092 1.944 1.536l-1.104.816c-.384-.444-1.236-1.152-1.884-1.632zm-7.584-1.02.876-.756c.816.636 1.944 1.668 2.544 2.412l-.948.876c-.516-.72-1.632-1.812-2.472-2.532zm-.348-2.964h3.804v1.176h-3.804V50.5zm2.124-5.772 1.068.66c-.756 1.8-1.884 3.384-3.012 4.464a5.981 5.981 0 0 0-.792-1.284c1.02-.84 2.148-2.316 2.736-3.84zm1.464 5.772h.192l.18-.072.864.552c-.504 1.368-1.428 2.844-2.208 3.756-.216-.288-.624-.744-.9-.96.696-.708 1.536-2.088 1.872-3.024V50.5zm-1.884-4.032.648-.984c.864.78 2.028 1.884 2.532 2.592l-.696 1.152c-.516-.756-1.632-1.92-2.484-2.76zm-.744 2.004h2.76v1.224h-2.76v-1.224zm16.428-2.124h4.092v1.404h-4.092v-1.404zm-5.724-.864h6.06v1.332h-6.06v-1.332zm1.584 2.484h2.892v1.284h-2.892v-1.284zm0 2.496h2.892v1.284h-2.892v-1.284zm7.836-4.116h.252l.252-.036.936.228c-.468 4.86-2.04 7.812-4.752 9.468-.216-.372-.624-.912-.948-1.188 2.388-1.248 3.864-4.2 4.26-8.16v-.312zm-2.292 1.44c.588 3.12 1.872 5.772 4.176 7.02-.324.276-.768.828-.996 1.2-2.52-1.524-3.804-4.332-4.56-7.956l1.38-.264zm-6.3-1.752h1.368v7.848h-1.368v-7.848zm3.084 0h1.392V56.08h-1.392V46.036zm-4.188 7.32a176.56 176.56 0 0 0 4.668-.612l.084 1.308c-1.56.276-3.228.54-4.488.732l-.264-1.428z" fill="#fff"/>
    </g>
    <defs>
        <linearGradient id="50c0arhq9b" x1="173.5" y1="4" x2="173.5" y2="96" gradientUnits="userSpaceOnUse">
            <stop stop-color="#fff"/>
            <stop offset="1" stop-color="#FFFBFA"/>
        </linearGradient>
        <linearGradient id="7zbxq7v58c" x1="173.5" y1="4" x2="173.5" y2="96" gradientUnits="userSpaceOnUse">
            <stop stop-color="#fff"/>
            <stop offset="1" stop-color="#FFFBFA"/>
        </linearGradient>
        <filter id="pw09kv3qha" x="0" y="0" width="347" height="104" filterUnits="userSpaceOnUse" color-interpolation-filters="sRGB">
            <feFlood flood-opacity="0" result="BackgroundImageFix"/>
            <feColorMatrix in="SourceAlpha" values="0 0 0 0 0 0 0 0 0 0 0 0 0 0 0 0 0 0 127 0" result="hardAlpha"/>
            <feOffset dy="2"/>
            <feGaussianBlur stdDeviation="3"/>
            <feComposite in2="hardAlpha" operator="out"/>
            <feColorMatrix values="0 0 0 0 0 0 0 0 0 0 0 0 0 0 0 0 0 0 0.25 0"/>
            <feBlend in2="BackgroundImageFix" result="effect1_dropShadow_487_13154"/>
            <feBlend in="SourceGraphic" in2="effect1_dropShadow_487_13154" result="shape"/>
        </filter>
    </defs>
</svg>
